<svg id="Group_5779" data-name="Group 5779" xmlns="http://www.w3.org/2000/svg" xmlns:xlink="http://www.w3.org/1999/xlink" width="1226.5" height="596.55" viewBox="0 0 1226.5 596.55">
  <defs>
    <clipPath id="clip-path">
      <rect id="Rectangle_2907" data-name="Rectangle 2907" width="1226.5" height="596.55" fill="none"/>
    </clipPath>
  </defs>
  <g id="Group_5778" data-name="Group 5778" clip-path="url(#clip-path)">
    <path id="Path_6862" data-name="Path 6862" d="M272.865,218.349c.331-.294.636-.55.923-.823a55.29,55.29,0,0,1,27.3-14.406,32.974,32.974,0,0,1,17.021.6c9.217,2.978,14.735,9.326,16.66,18.755a37.444,37.444,0,0,1-1.265,18.443,58.144,58.144,0,0,1-8.925,17.658c-.427.587-.867,1.165-1.331,1.79a5.616,5.616,0,0,0,1.238,2.3,90.182,90.182,0,0,1,11.235,25.14c5,18.662,3.41,36.844-4.157,54.544a103.77,103.77,0,0,1-21.6,31.687A133.147,133.147,0,0,1,289.5,391.089c-.468.319-.921.666-1.412.944a3.076,3.076,0,0,0-1.5,2.072c-1.342,5.076-2.857,10.11-4.115,15.208a107.649,107.649,0,0,1-7.781,20.855c-.35.729-.757,1.429-1.139,2.142a7.8,7.8,0,0,1-5.278,3.925,35.264,35.264,0,0,1-9.611,1.079c-2.745-.075-5.493-.265-8.226-.541a17.892,17.892,0,0,1-6.229-1.9,10.649,10.649,0,0,1-4.474-4.651,66.453,66.453,0,0,1-3.008-6.346c-1.081-2.61-2-5.286-3.043-8.086a7.826,7.826,0,0,0-1.314.1c-6.141,1.436-12.312,2.706-18.569,3.524a3.161,3.161,0,0,0-2.477,1.671c-1.983,3.335-4.008,6.644-6.034,9.951-1.943,3.169-3.862,6.353-5.872,9.48a13.057,13.057,0,0,1-10.471,6.089,82.383,82.383,0,0,1-21.712-1.328c-2.387-.417-4.766-.892-7.143-1.365a13.744,13.744,0,0,1-2.1-.571,10.4,10.4,0,0,1-6.057-5.269,83.528,83.528,0,0,1-4.5-10.981c-.965-3-1.95-5.992-2.941-9.04a18.211,18.211,0,0,0-1.865-.576,190.287,190.287,0,0,1-21.556-5.661c-.3-.1-.615-.168-1.046-.284a13.561,13.561,0,0,0-.879,1.389c-1.287,2.7-2.547,5.411-3.817,8.119a63.6,63.6,0,0,1-7.425,12.475c-.4.508-.786,1.028-1.2,1.527a5.464,5.464,0,0,1-4.7,2.058,20.643,20.643,0,0,1-3.841-.508q-7.3-1.784-14.558-3.717a41.332,41.332,0,0,1-4.106-1.463,7.248,7.248,0,0,1-4.714-5.714c-.361-1.822-.676-3.656-.972-5.49-.758-4.708-1.491-9.419-2.239-14.129-1.1-6.945-2.2-13.894-2.643-20.922a4.079,4.079,0,0,0-1.564-3.076A111.283,111.283,0,0,1,49,361.824,91.016,91.016,0,0,1,34.92,331.412a79.587,79.587,0,0,1,.44-41,26.419,26.419,0,0,0,.755-8.839c-.182-2.985-.293-5.977-.3-8.967a36.752,36.752,0,0,1,2.519-13.025,27.461,27.461,0,0,1,4.514-7.711,36,36,0,0,1,5.861-5.779,49.238,49.238,0,0,1,20.725-9.56,2.353,2.353,0,0,1,.715-.116c1.958.245,3.319-.848,4.752-1.95a158.937,158.937,0,0,1,39.958-22.122,194.9,194.9,0,0,1,39.263-10.522,206.584,206.584,0,0,1,45.693-2.274,192.248,192.248,0,0,1,64.627,14.977c2.3.988,4.558,2.079,6.837,3.121.508.231,1.021.454,1.585.7M243.773,420.557a.55.55,0,0,1-.762-.352q-.925-2.367-1.844-4.738c-.2-.515-.394-1.032-.632-1.654l-1.251.457c.58,1.732,1.132,3.332,1.647,4.941.489,1.529,1.3,2.974,1.422,4.822a4.762,4.762,0,0,1-1.622-2.358c-.876-2.168-1.648-4.379-2.475-6.569a3.607,3.607,0,0,0-.422-.629l-1.781.569c-.019.28-.086.455-.033.582a118.645,118.645,0,0,0,5.9,13.023,9.36,9.36,0,0,0,6.094,4.789,48.589,48.589,0,0,0,12.75,1.16,26.981,26.981,0,0,0,4.812-.531c4.351-.843,4.735-1.137,6.647-5.127a109.98,109.98,0,0,0,6.929-18.089q1.979-7.123,3.969-14.243c.1-.361.117-.744.221-1.435-.97.54-1.666.911-2.345,1.309s-1.361.837-2.021,1.245c-.123.813-.249,1.527-.338,2.247a71.941,71.941,0,0,1-3.093,12.7,2.161,2.161,0,0,1-1.112,1.45c.981-5.309,2.41-10.184,3.076-15.5-.5.3-.857.387-.967.6-.256.494-.37,1.058-.58,1.578a14.261,14.261,0,0,1-1.617,3.787c.221-1.564.934-3.015,1.132-4.9-3.008,1.461-5.726,2.838-8.492,4.111q-4.183,1.926-8.446,3.677c-2.829,1.156-5.707,2.2-8.6,3.305.06,1.512.867,2.86.364,4.458-1.146-1.161-.659-2.917-1.69-3.91-.582.063-.825.336-.737.822.284,1.592.608,3.176.862,4.771.063.389.321.89-.289,1.314-1.179-1.927-.977-4.248-1.985-6.3a29.516,29.516,0,0,0-4.88,1.618c.736,2.421,1.436,4.724,2.139,7.028ZM318.682,251.32l-.06-.067c.389.6-.084,1.054-.266,1.566-.359,1-.347,1,.9,1.878.883-1.2,1.769-2.4,2.927-3.978-.035,2.435-1.4,3.812-2.246,5.388.6.757.9,1.612,1.85,2.014a57.518,57.518,0,0,0,9.559-19.042,34.2,34.2,0,0,0,.981-15.59c-1.245-6.609-4.468-11.894-10.421-15.3a23.608,23.608,0,0,0-9.419-2.927,39.417,39.417,0,0,0-16.93,2.193,68.024,68.024,0,0,0-20.107,11.48c-.1.081-.123.271-.229.522a5.744,5.744,0,0,0,2.114,1.2c6.749-6.015,6.749-6.015,9.1-6.76a99.09,99.09,0,0,0-7.448,7.39c.328.615.725.636,1.06.357.93-.774,1.8-1.622,2.731-2.4.4-.331.708-.892,1.561-.723-.814,1.655-2.566,2.459-3.344,4,.534.734,1.119,1.019,1.881.455.778-.578,1.543-1.172,2.319-1.753.249-.186.5-.434.83-.112-.678,1.151-2.153,1.612-2.752,3.016,2.365,1.379,4.46,2.978,6.942,4.23a18.352,18.352,0,0,1,6.593-7.469,31.733,31.733,0,0,1,10.785-4.808,25.576,25.576,0,0,1,9.142-.657,7.2,7.2,0,0,1,4.165,1.762,8.156,8.156,0,0,1,.813,1.266c-2.811-1.273-5.314-1.109-7.807-.946a25.879,25.879,0,0,0-2.88.4,33.425,33.425,0,0,0-14.917,6.6,16.561,16.561,0,0,0-4.4,4.94c.508.42.97.855,1.482,1.219a154.667,154.667,0,0,1,23.257,21.163,11.79,11.79,0,0,0,1.021.885l1.209-1.4M203.132,206.7l-.07-.053c.422.879,1.358,1.1,2.081,1.571a58.028,58.028,0,0,1,13.663,12.263,7.737,7.737,0,0,1,.932,1.4,1.2,1.2,0,0,1-.5,1.468,1.074,1.074,0,0,1-1.345-.107,9.853,9.853,0,0,1-1.144-1.24,55.537,55.537,0,0,0-7.858-7.9c-7.136-5.77-15.1-9.643-24.362-10.438a31.843,31.843,0,0,0-22.959,6.644,34.782,34.782,0,0,0-11.218,15.534,49.39,49.39,0,0,0-2.186,26.266,62.462,62.462,0,0,0,11.745,27.112c1.011,1.363,2.095,2.671,3.13,4.017a10.767,10.767,0,0,1,1.086,1.6,1.02,1.02,0,0,1-.2.834.681.681,0,0,1-.655.11,7.285,7.285,0,0,1-1.548-1.146c-1.543-1.652-3.151-3.263-4.528-5.05a60.233,60.233,0,0,1-12.274-29.911,50.843,50.843,0,0,1,1.475-20.659c3.23-11.083,9.539-19.692,20.135-24.812a12.039,12.039,0,0,0,1.065-.7c-1.018,0-1.634-.061-2.237.009-5.94.7-11.857,1.554-17.728,2.717a183.028,183.028,0,0,0-44.31,14.617,143.226,143.226,0,0,0-36.576,24.833,105.272,105.272,0,0,0-21.875,28.85,82.293,82.293,0,0,0-8.89,31.034,77.92,77.92,0,0,0,3.466,29.929,92.335,92.335,0,0,0,18.154,32.074,112.635,112.635,0,0,0,11.585,11.724,3.253,3.253,0,0,1,1.365,1.918c.326,2.053.935,4.032,1.167,6.126.575,5.218,1.4,10.412,2.183,15.605.906,5.992,1.871,11.976,2.829,17.961.242,1.515.541,3.022.83,4.528a4.009,4.009,0,0,0,2.638,3.216,34.12,34.12,0,0,0,3.405,1.258c5.082,1.322,10.179,2.591,15.278,3.843a24.026,24.026,0,0,0,2.641.371,3.094,3.094,0,0,0,3.141-1.379,58.272,58.272,0,0,0,5.414-8.324c1.34-2.762,2.647-5.54,3.976-8.31,1.256-2.617,2.522-5.229,3.75-7.775a13.233,13.233,0,0,1,2.559-.165,18.152,18.152,0,0,1,2.549.755c4.115,1.184,8.213,2.43,12.354,3.512,3.046.8,6.141,1.415,9.231,2.028a2.836,2.836,0,0,1,2.251,1.6c.243.508.582.97.846,1.47.107.2.256.531.17.655-.652.946.044,1.713.312,2.51.594,1.76,1.263,3.495,1.89,5.244a93.622,93.622,0,0,0,4.7,10.9,6.907,6.907,0,0,0,3.636,3.391,14.507,14.507,0,0,0,2.531.8c2.373.5,4.752.965,7.141,1.377a79.567,79.567,0,0,0,20.5,1.256c3.673-.319,6.5-1.764,8.434-4.891,1.827-2.957,3.626-5.929,5.427-8.9,2.049-3.388,4.078-6.788,6.134-10.174.667-1.1,1.389-2.162,2.049-3.184,7.282-1.021,14.355-2.3,21.349-4A175.256,175.256,0,0,0,278.4,394.145a131.794,131.794,0,0,0,33.141-26.618,95.449,95.449,0,0,0,19.512-32.959c.152-.45.394-.872.594-1.319-.032-.177-.061-.354-.091-.531.026.186.054.371.082.557-.459-.252-.734-.014-.988.349-.883,1.256-1.711,2.556-2.676,3.745-10.559,13.034-28.737,18.313-43.936,14.3a31.135,31.135,0,0,1-13.178-6.938,24.669,24.669,0,0,1-8.516-21.452,28.84,28.84,0,0,1,4.668-13.113,35.71,35.71,0,0,1,10.258-10.522c12.594-8.455,26.15-10.407,40.407-5.153a25.52,25.52,0,0,1,16.667,18.208c.133.508.093,1.133.79,1.41.033-.368.077-.687.091-1.007A80.07,80.07,0,0,0,329.62,279.4a97.566,97.566,0,0,0-16.951-27.538c-.839-.983-1.664-1.979-2.51-2.957s-1.638-2-2.564-2.887a140.159,140.159,0,0,0-33.311-23.612c-24.886-12.755-51.468-18.792-79.274-19.962-.357-.014-.716.033-1.477.072a8.559,8.559,0,0,0,1.144.678,50.775,50.775,0,0,1,7.546,3.288,3.786,3.786,0,0,0,.909.21m91.182,143.319a41.716,41.716,0,0,0,26.795-9.748,30.947,30.947,0,0,0,9.482-12.983c2.514-6.621,2.382-13.158-1.077-19.44-3.689-6.7-9.709-10.54-16.774-12.689a35.367,35.367,0,0,0-16.593-.55,41.018,41.018,0,0,0-22.491,11.575,30.37,30.37,0,0,0-7.508,12.032,22.4,22.4,0,0,0,7.525,25.246,27.363,27.363,0,0,0,6.006,3.624,34.709,34.709,0,0,0,14.635,2.932M38.77,279.81c.279-.571.582-1.132.834-1.715A98.77,98.77,0,0,1,52.028,257.1a120.257,120.257,0,0,1,15.164-16.289c.433-.391,1.03-.678,1.2-1.452a5.157,5.157,0,0,0-.822.105,62.514,62.514,0,0,0-13.237,5.9,35.738,35.738,0,0,0-8.844,7.467,25.507,25.507,0,0,0-4.4,7.2A41.377,41.377,0,0,0,38.77,279.81" transform="translate(24.391 149.696)" fill="#201a06"/>
    <path id="Path_6863" data-name="Path 6863" d="M112.963,206.092c1.212,0,2.426-.023,3.638.011a8.736,8.736,0,0,1,1.676.217,1.621,1.621,0,0,1,1.359,1.484,6.518,6.518,0,0,1-.533,3.78,1.656,1.656,0,0,1-2.1,1.189,22.841,22.841,0,0,0-6.528-.042c-9.448,1.146-18.609,3.3-27.107,7.777-2.359,1.244-4.752,2.423-7.131,3.631a12.038,12.038,0,0,1-1.084.541c-.8.31-1.668,1.054-2.437.179a3.752,3.752,0,0,1-.081-3.9,3.3,3.3,0,0,1,.532-.492c2.163-1.685,4.165-3.6,6.654-4.828,3.77-1.857,7.474-3.885,11.366-5.435a56.225,56.225,0,0,1,14.283-3.645c2.484-.291,4.985-.454,7.478-.674.005.068.009.138.014.207" transform="translate(54.214 154.752)" fill="#201a06"/>
    <path id="Path_6864" data-name="Path 6864" d="M111.024,234.4a48.047,48.047,0,0,0,5.8,22.736c.942,1.781,2.046,3.48,3.085,5.213.373.624.785,1.224,1.161,1.846.249.408.547.834.163,1.319-.271.345-.811.217-1.435-.445a31.768,31.768,0,0,1-2.211-2.57,44.92,44.92,0,0,1-7.063-14A42.734,42.734,0,0,1,108.8,229.6a29.34,29.34,0,0,1,5.169-13.437c5.437-7.4,12.79-10.352,21.829-9.021,7.5,1.1,13.565,4.964,18.848,10.21a2.68,2.68,0,0,1,.669.979.963.963,0,0,1-.151.871,1.356,1.356,0,0,1-1.058.294,3.7,3.7,0,0,1-1.163-.818c-1.228-1.049-2.393-2.179-3.668-3.165a31.024,31.024,0,0,0-12.33-5.97,19.743,19.743,0,0,0-21.978,9.5,28.789,28.789,0,0,0-3.685,11.451c-.18,1.522-.2,3.062-.256,3.911" transform="translate(81.476 155.461)" fill="#201a06"/>
    <path id="Path_6865" data-name="Path 6865" d="M161.949,248.827c-.023.38-.035.7-.063,1.025-.448,5.015-4.952,7.769-9.66,5.9a6.06,6.06,0,0,1-3.9-5.141,7.8,7.8,0,0,1,4.435-7.917,6.272,6.272,0,0,1,9.033,4.742c.089.475.107.963.152,1.391" transform="translate(111.439 181.942)" fill="#201a06"/>
    <path id="Path_6866" data-name="Path 6866" d="M166.111,291.667c-.622.946-1.14,1.736-1.654,2.522a1.493,1.493,0,0,1-1.426-1.23,5.4,5.4,0,0,1,4.693-6.609,3.172,3.172,0,0,1,1.361.368.871.871,0,0,1,.2,1.27c-.532.469-1.121.876-1.8,1.4.489.443.862.839,1.291,1.161a32.991,32.991,0,0,0,15.313,6.287,32.124,32.124,0,0,0,18.04-2.226c1.4-.624,2.722-1.412,4.071-2.139.567-.307,1.107-.664,1.671-.977a.721.721,0,0,1,1.058.2,1.252,1.252,0,0,1-.072,1.095,10.659,10.659,0,0,1-1.715,1.692,21.612,21.612,0,0,1-7.726,3.938c-11.19,3.107-21.589,1.312-31.19-5.183-.669-.452-1.3-.96-2.118-1.573" transform="translate(122.406 215.232)" fill="#201a06"/>
    <path id="Path_6867" data-name="Path 6867" d="M195.038,248.943a6.386,6.386,0,0,1-5.954-4.039,5.607,5.607,0,0,1,1.5-6.817,9.607,9.607,0,0,1,2.89-1.711,4.039,4.039,0,0,1,4.8,1.3c.568.683,1.151,1.356,1.676,2.069a4.15,4.15,0,0,1,.515,4.56,18.671,18.671,0,0,1-1.759,2.888,4.367,4.367,0,0,1-3.67,1.748" transform="translate(141.713 177.44)" fill="#201a06"/>
    <path id="Path_6868" data-name="Path 6868" d="M214.416,254.025c-.981.329-1.554-.261-2.191-.5-1.657-.631-3.248-1.477-4.941-1.965a48.706,48.706,0,0,0-17.5-1.788,21.025,21.025,0,0,0-5.171,1.2,62.54,62.54,0,0,0-12.463,5.9c-1.368.851-2.64,1.86-3.953,2.8a1.719,1.719,0,0,1-1.084.426,3.184,3.184,0,0,1,.392-.766,30.623,30.623,0,0,1,2.522-2.61,44.726,44.726,0,0,1,16.576-8.8c3.791-1.128,7.69-.8,11.559-.408,1.685.168,3.351.536,5.038.722a20.792,20.792,0,0,1,6.912,2.135,23.065,23.065,0,0,1,3.579,2.461,4.214,4.214,0,0,1,.727,1.2" transform="translate(125.608 185.762)" fill="#201a06"/>
    <path id="Path_6869" data-name="Path 6869" d="M165.219,318.389c3.388-1.659,6.819-3.234,10.149-5,3.424-1.813,6.807-3.719,10.1-5.754,3.209-1.983,6.285-4.183,9.431-6.3.371.377-.054.585-.224.748a35.406,35.406,0,0,1-2.7,2.43A95.448,95.448,0,0,1,168.535,318c-1.023.4-2.049.949-3.316.385" transform="translate(124.186 226.501)" fill="#201a06"/>
    <path id="Path_6870" data-name="Path 6870" d="M168.726,276.223c-.217-.6-.4-.837-.343-.99a19.755,19.755,0,0,1,1.018-2.452,27.067,27.067,0,0,1,7.15-8.455,38.272,38.272,0,0,1,18.923-8.086,35.488,35.488,0,0,1,15.11,1.028,31.261,31.261,0,0,1,8.431,4.178.717.717,0,0,1,.221,1.042.8.8,0,0,1-1.091.081c-.067-.044-.13-.093-.193-.144-3.389-2.706-7.381-3.929-11.566-4.619a35.9,35.9,0,0,0-16.973,1.583,37.319,37.319,0,0,0-11.724,6.2,31.33,31.33,0,0,0-7.43,8.236c-.42.681-.862,1.352-1.531,2.4" transform="translate(126.556 192.315)" fill="#201a06"/>
    <path id="Path_6871" data-name="Path 6871" d="M187.938,272.066a6.091,6.091,0,0,1-1.908,4.754,4.579,4.579,0,0,1-5.115.993,4.893,4.893,0,0,1-2.652-4.759,6.282,6.282,0,0,1,4.684-5.528,3.664,3.664,0,0,1,3.361.906,4.657,4.657,0,0,1,1.629,3.635" transform="translate(133.981 201.009)" fill="#201a06"/>
    <path id="Path_6872" data-name="Path 6872" d="M197.32,275.387a4,4,0,0,1-4.167-3.78,5.144,5.144,0,0,1,4.461-5.437,3.192,3.192,0,0,1,3.316,1.526,5.184,5.184,0,0,1,.217,5.516,4.1,4.1,0,0,1-3.827,2.176" transform="translate(145.174 200.039)" fill="#201a06"/>
    <path id="Path_6873" data-name="Path 6873" d="M195.883,229.289l.51-.822c.032.445.138,1.018-.568.76l.058.061" transform="translate(147.19 171.725)" fill="#201a06"/>
    <path id="Path_6874" data-name="Path 6874" d="M200.507,224.335l.047.45c-.024-.145-.047-.291-.074-.438l.026-.012" transform="translate(150.69 168.62)" fill="#201a06"/>
    <path id="Path_6875" data-name="Path 6875" d="M170.335,317.276l.044.212-.149-.031Z" transform="translate(127.952 238.478)" fill="#201a06"/>
    <path id="Path_6876" data-name="Path 6876" d="M153.076,325.59c.037.156.081.31.1.466,0,.025-.091.063-.14.095.026-.2.053-.392.088-.594.009-.007-.051.033-.051.033" transform="translate(115.031 244.701)" fill="#201a06"/>
    <path id="Path_6877" data-name="Path 6877" d="M129.123,201.788a31.836,31.836,0,0,0-22.957,6.644Z" transform="translate(79.799 151.568)" fill="#201a06"/>
    <path id="Path_6878" data-name="Path 6878" d="M234.314,242.776c2.47.035,4.955-.984,7.434-1.524-.117-.373-.236-.744-.354-1.118l-41.15-2.962c.9,1.531,1.745,3.086,2.556,4.656,3.526,0,7.052,0,10.58.011,6.979.026,13.952.839,20.934.937" transform="translate(150.513 178.269)"/>
    <path id="Path_6879" data-name="Path 6879" d="M1111.363,463.707c-.007-.622-.014-1.242-.021-1.864-1.417-.107-2.834-.321-4.249-.3q-45.358.46-90.716.958c-25.924.254-51.849.52-77.771.5-2.035,0-5.632-1.967-5.836-3.4-1.03-7.226-5.829-7.712-11.31-7.257-8.382.7-9.005.336-10.529-7.537-1.652-8.525-2.57-9.186-11.419-7.749a31.566,31.566,0,0,0-7.157,1.741c-5.434,2.279-9.053,1.281-12.2-4.164-1.752-3.036-5.575-4.877-8.466-7.257-1.769,3.449-3.78,6.8-5.208,10.385-.725,1.822-.37,4.066-.55,6.113-.175,1.978-.41,3.95-.62,5.924-1.47-29.487-.6-58.852-4.778-88.144a10.278,10.278,0,0,0-2.866,5.9c-.58,5.924-1.034,11.874-1.221,17.825-.627,19.944-1.221,39.892-1.577,59.843-.08,4.568-1.146,6.567-6.267,6.418-10.893-.315-21.806.088-32.712.166-5.069.037-10.138.005-15.406.005V334.76c25.858,7.753,51.454,15.427,77.337,23.185,1.447-17.912,5.8-15.448-10.165-22.221-24.385-10.345-49.242-19.571-73.805-29.5-3.61-1.459-6.639-4.309-10.07-6.283a66.022,66.022,0,0,0-9.359-4.553c-.842-.321-2.286.939-3.454,1.471.545.993.86,2.289,1.685,2.909a14.716,14.716,0,0,0,4.414,2.148c5.048,1.583,6.4,4.752,6.42,10.1.172,38.263.79,76.524,1.224,114.785.091,8.149.012,16.3.012,24.954-28.583,0-56.506-2.727-84.441,1.055a9.158,9.158,0,0,0,5.434,2.351c25.425,1.773,50.852,3.54,76.293,5.029,2.179.126,4.475-1.748,7.868-3.179-.6,6.854-1.307,13.878-1.817,20.916-.361,5-2.725,7.147-7.854,7.12-23.642-.121-47.284-.028-70.926-.016-7.923.005-15.845,0-24.227,0V448.767c7.352,0,14.327.27,21.272-.051,19.084-.879,38.179-1.708,57.221-3.171,8.508-.653,8.862-1.589,8.7-10-.448-23.446-1.053-46.888-1.625-70.33a25.4,25.4,0,0,0-.648-3.516c-13.633-.7-27.143-1.787-40.664-1.983-13.968-.2-27.947.391-41.919.78-6.155.172-10.2,2.246-10.743,9.646-1.4,19.252-3.65,38.442-5.246,57.683-.35,4.214-1.447,6.2-6.071,5.052V356.569c12.363,0,24.05.261,35.72-.061,17.057-.473,34.1-1.541,51.155-1.976,5.491-.14,7.557-2.013,7.718-7.609,1.018-35.353,2.33-70.7,3.5-106.048.135-4.036.019-8.079.019-11.752l8.961-2.521L765,214.622q-1.135.423-2.272.843c-.559,3.326-1.119,6.651-1.853,11.006l-109.7-2.973c.4-7.318.743-13.531,1.1-19.991H773.352V193.6l-133.014-2.5c1.461,10.47,1.468,10.689-9.049,11.056-16.648.582-33.306,1.123-49.96,1.181q-136.084.476-272.168.7c-7.294.018-14.588,0-22.207,0,.827-7.241,1.941-13.137,2.035-19.047.077-4.929,1.853-6.108,6.581-6.1,45.473.028,90.945-.233,136.418-.315q93.811-.168,187.622-.228c1.827,0,3.654-.35,5.481-.538a12.091,12.091,0,0,0-5.349-3.892c-10.24-4.257-20.451-8.59-30.754-12.685-37.222-14.789-74.384-29.834-113.408-39.342-8.212-2-17.709-4.358-25.348-2.156-52.1,15.006-103.874,31.13-155.67,47.163-2.559.792-4.346,4.081-6.486,6.211-1.16,1.153-2.265,3.256-3.472,3.314-6.7.326-13.419.156-19.8.156-1.985-5.239.314-6.866,4.2-8.329,41.728-15.686,83.455-31.379,125.046-47.426,16.091-6.206,31.843-13.291,47.729-20.032,2.776-1.179,4.565-3.726,8.679-2.011q46.073,19.215,92.46,37.667c31.284,12.5,62.672,24.744,94.068,36.96,2.726,1.06,7.849,2.335,8.466,1.361a52.029,52.029,0,0,0,6.712-15.239c1.128-4.651-1.957-8.152-6.4-10.047-9.82-4.192-19.536-8.651-29.48-12.523Q537.324,106.217,458.27,75.711c-2.354-.913-4.621-2.06-7.057-3.156,7.7-10.233,4.549-22.016-6.413-24.292-3.377-.7-8.226.779-10.935,3.025-3.491,2.894-1.757,7.418.974,10.475,3.216,3.6,7.021,6.667,11.291,10.638-8.192,3.011-15.2,5.29-21.978,8.131-33.141,13.9-66.317,27.718-99.285,42.017-22.617,9.809-44.944,20.295-67.309,30.676-2.13.99-4.952,3.276-5.132,5.18-.632,6.651-.245,13.4-.245,20.284,3.113.277,6.087.541,9.009.8V198.51c-3.274,0-6.1-.068-8.93.01-31.442.874-62.886,1.713-94.319,2.815-1.638.058-4.157,2.125-4.6,3.717-1.105,3.983,3.682,9.634,7.867,9.713,4.1.077,8.213-.321,12.323-.366a14.7,14.7,0,0,1,3.379.764q-.089.857-.182,1.71c-1.391,0-2.9.352-4.151-.061-4.957-1.634-7.136.233-6.852,5.2.433,7.585.9,15.173,1.622,22.735.194,2.032,1.37,3.971,2.622,7.392,7.259-10.086,5.709-21.17,9.133-30.493,3.815.186,7.289.329,10.759.531,13.1.755,26.217,1.407,39.307,2.347,6.746.485,13.435,1.829,20.182,2.205,17.6.983,17.565.99,18.743,18.9.364,5.551-1.86,7.467-6.972,7.411-5.553-.06-11.116.257-16.662.067-20.132-.694-40.262-1.435-60.384-2.384-4.771-.224-6.91,1.375-6.7,6.217.173,3.9-.079,7.823.093,11.725.918,20.808,1.915,41.612,2.824,62.42l.238.11c.508.233,1.021.454,1.587.7.175-.156.329-.3.492-.438-1.1-26.117-2.183-51.738-3.26-77.27,10.421,0,19.4-.126,28.382.026,18.091.307,36.178.9,54.271,1.09,7.243.075,8.746-1.76,8.427-8.816a88.387,88.387,0,0,0-1.107-11.048c-1.8-10.389-2.06-10.534-12.424-10.818-2.468-.068-4.943-.047-7.4-.236-21.452-1.647-42.652-6.621-64.382-4.8-1.874.156-3.847-.834-5.572-1.242-.175-2.65-.3-4.616-.445-6.754-5.341.3-10.251.489-15.145.879-6.034.48-7.872-2.817-7.933-8.758,35.21-2.107,70.136-4.537,105.2-2.393.289,5.469.524,9.923.76,14.379l1.725.1c.816-2.776,1.633-5.553,2.125-7.224,6.471,0,12.181.3,17.842-.089,5.157-.357,10.238-1.86,15.393-2.149,5.73-.324,11.5.273,17.261.264,66.037-.109,132.076-.088,198.111-.455,39.7-.221,79.406-.948,119.1-1.7,9.937-.189,9.928-.643,10.715-10.923l126.514,2.547c1.918,6.245-1.654,5.9-5.169,5.833-32.292-.624-64.585-1.613-96.878-1.664-21.7-.033-19.093-2.867-19.843,19.935-.138,4.246,1.158,5.64,5.525,5.728,34.134.688,68.265,1.619,102.394,2.5a19.49,19.49,0,0,1,3.048.42c0,20.855.317,41.2-.091,61.519-.377,18.7-1.606,37.377-2.282,56.07-.135,3.743-1.137,5.651-5.265,5.693-26.3.257-52.59.843-78.885.93-8.467.028-8.385-.511-8.513-8.755q-.694-44.417-1.547-88.831c-.054-2.67-.916-5.323-1.4-7.984-.622,0-1.245.005-1.867.009a43.136,43.136,0,0,0-1.214,6.679c-.461,17.273-1.587,34.579-.934,51.814.645,17-4.292,34.639,4.579,50.925,0,24.481.042,48.962-.123,73.441-.009,1.335-1.557,3.593-2.712,3.826-5.754,1.16-11.615,1.787-19.135,2.836.751-7.662,1.93-14.206,1.936-20.75.016-21.386-.45-42.772-.622-64.159-.147-18.107-.843-36.247-.007-54.311.827-17.895-2.932-35.811,2.6-53.852,2.382-7.769-1.286-17.4-2.249-26.178a19.855,19.855,0,0,0-.757-2.887l-2.382,1.424c0,8.536.165,17.079-.14,25.6-.06,1.652-1.886,4.589-3,4.638-8.753.387-17.53.215-26.294.215a73.623,73.623,0,0,0-1.343-7.343c-.482-1.655-1.394-4.458-2.277-4.523a137.46,137.46,0,0,0-19.8-.371c-5.891.424-3.861,5.954-4.708,10.107-7.36.59-14.589,1.17-21.556,1.727-1.051-3.694-1.869-6.567-2.689-9.441-.6.04-1.2.081-1.8.123-.839,1.993-1.538,4.064-2.566,5.954-.767,1.408-2.333,3.808-2.9,3.636-1.881-.568-4.27-1.732-5.008-3.337-1.5-3.272-2.051-6.98-2.983-10.468-11.039,1.167-11.039,1.167-16.029-3.337-2.007,4.484-4.081,8.441-9.8,9.489-3.368.617-6.211,4.094-9.291,6.283-10.485,2.119-15.332.8-21.96-5.994-.846,1.8-1.675,3.554-2.5,5.311a18.466,18.466,0,0,1-1.238-8.937c.476-4.523-1.118-6.274-5.829-6.1-5.737.212-11.517-.711-17.25-.469-17.571.739-15.243-.858-17.031,13.707-.023.179-.2.338-.685,1.105H416.178l-2.524-5.632a26.26,26.26,0,0,1-1.967,2.4c-1.426,1.3-2.917,2.542-4.381,3.806-1.014-1.689-2.657-3.288-2.908-5.082-.469-3.375-.135-6.863-.135-11.561l-22.3,2.226c-3.589-1.841-5.824-3.962-8.1-4.011-26.325-.569-52.661-.711-78.987-1.263-5.153-.109-6.562,1.365-6.432,6.586q1.277,51.191,1.922,102.4c.368,26.127.5,52.26.566,78.391,0,1.857-1.226,3.8-2.169,5.553-1.2,2.232-3.206,4.146-3.934,6.486-.811,2.61-.58,5.546-.829,8.676-3.943,0-7.245.345-10.445-.081-4.759-.632-6.325,1.48-6.33,5.835,0,3.412-.319,6.824-.506,10.44-2.843,0-5.082.07-7.313-.012q-7.882-.289-15.763-.6c-.245.743-.5,1.484-.769,2.223l23.523,1.054c-.005.815-.012,1.629-.016,2.444L242.035,452.9q-.478,1.235-1,2.465c8.664.326,17.341.729,25.984,1.785v10.618c-2.286,0-4.3.11-6.3-.018q-12.533-.8-25.066-1.626c-.436.751-.865,1.508-1.321,2.247q14.349.914,28.694,1.823c2.009.126,4.032.016,6.5.016V458.291c5.006-4.828,14.181,3.689,16.628-6.385,10.214-1.042,6.611-9.389,7.756-15.4,7.511,0,14.807-.116,22.09.138.984.033,2.268,1.8,2.678,3.018.168.5-1.478,2.126-2.529,2.422-2.813.79-5.751,1.137-8.639,1.661l.207,1.307c20.526,0,41.053-.175,61.575.032q120.322,1.211,240.642,2.615c10.48.116,20.96.075,31.44.212,6.478.086,11.971,4.964,13.884,13.46-118.691,1.666-236.948-.331-355.846-3.992.441-1.85.979-2.813.793-3.608a25.956,25.956,0,0,0-1.683-4.125c-1.125.743-2.655,1.233-3.3,2.272-2.4,3.862-4.053,8.28-6.87,11.775-2.762,3.424-6.6,5.978-11.23,10.014L658.3,482.145c.589,4.174,1.323,9.375,2.188,15.513-125.552.252-250.87,2.053-377.784-1.408,2.126-5.579,3.689-9.68,5.013-13.151-8.41.466-16.658,1.47-24.877,1.28q-19.808-.455-39.61-1.118c-.652.734-1.317,1.459-1.988,2.179q22.257.707,44.516,1.377c5.689.168,11.389.023,17.34.023-.235,1.263-.4,2.458-.687,3.626-1.72,7.173-1.286,7.826,5.826,8.2,6.98.364,13.964.872,20.951.953,36.62.419,73.243,1,109.865,1.005,71.2.019,142.395-.392,213.592-.394,12.479,0,24.952,1.3,37.44,1.64,4.68.128,9.391-.767,14.087-1.195q-.081-1.574-.163-3.146c-4.56,0-9.145.284-13.672-.112-2.519-.219-6.747-1.133-7.075-2.489-1.1-4.566-2.8-10.958-.594-13.922,4.017-5.406,1.093-8.671.326-12.815l-1.843-.263c-1.053,3.349-2.107,6.7-3.712,11.79l-373-8.275c6.9-7.637,12.736-14.928,23.786-11.319,1.872.611,4.088.161,6.147.2,50.584,1.025,101.163,2.368,151.752,2.992,54.315.669,108.637.709,162.955.9,8,.03,16.01-.576,24.012-.956,3.659-.173,5.132-2.17,4.379-5.763-1.074-5.134-9.527-11.957-14.9-12.036-21.384-.312-42.768-.7-64.156-.92Q487.7,443.63,397,442.845c-23.25-.2-46.5-.233-69.754-.361-3.256-.017-7.084.452-5.115-5.549,2.156,0,4.376-.053,6.591.007,55.716,1.484,111.429,3.162,167.151,4.421,53.651,1.212,107.311,1.99,160.967,2.981,1.823.033,4.7-.34,5.286.6,2.834,4.565,7.234,2.932,11.058,3.409,2.792.347,5.635.3,9.089.464v34.7l-19.8,1.277q-.024,1.671-.046,3.339c6.131.862,12.256,1.76,18.4,2.529.7.088,1.466-.615,2.232-.862,2.888-.93,5.791-2.61,8.686-2.608,26.737.018,53.479.746,80.21.417,20.893-.256,16.413.864,19.653-18.2.844-4.964-.765-10.414-1.645-15.572-.478-2.8-2.564-5.453-2.612-8.194q-.759-43.2-1.035-86.4c-.135-17.455-.024-34.914-.024-52.616a12.324,12.324,0,0,1,2.307.443c26.756,10.548,53.571,20.953,80.211,31.787,9.079,3.692,8.877,4.188,6.376,16.1q-34.464-10.836-68.743-21.6c-4.5-1.41-7.7-3.586-7.322-9.054.1-1.489-1.091-3.069-1.834-4.98V454.227H854.4c-.215,4.032-.406,7.569-.622,11.58-3.09,0-5.53-.042-7.967.007-13.362.271-26.727.489-40.083.934-2.168.072-4.3,1.184-6.451,1.816q.1,1.2.207,2.4c18.494,2.708,37.18,2.733,55,2.915,1.908-2.428,3.2-5.619,4.687-5.709,7.733-.471,7.833-5.658,8.094-11.256.268-5.751.736-11.507,1.471-17.215.426-3.316,1.548-6.542,2.832-11.731,3.44,4.246,6,6.814,7.846,9.825,2.659,4.344,5.877,5.88,10.837,4.192a94.875,94.875,0,0,1,11.337-2.85c3.973-.823,6.4-.126,6.914,4.973,1.03,10.195,2.869,11.37,12.867,10.636,7.648-.561,9,.678,8.827,9.587H872.116c-.033.613-.065,1.226-.1,1.839,1.054.492,2.077,1.333,3.165,1.429,18.208,1.59,36.417,3.186,54.643,4.526,4.022.3,8.136-.37,6.926-6.32l174.611-2.1M784.5,457.923l-60.756-3.391c.021-.054.04-.109.061-.165h60.763l-.068,3.556M296.04,168.823c29.247-8.954,58.447-18.065,87.7-27.009,18.651-5.7,37.566-10.622,55.977-17,12.1-4.193,23.6-3.74,35.593-.664,38.1,9.771,74.532,24.292,111.012,38.687,9.5,3.75,18.946,7.665,28.417,11.5q-.215.838-.429,1.675H290.7c-1.111-4.532,1.594-6.041,5.339-7.189M175.133,227.3c-1.664,5.961-2.424,12.174-3.58,18.277l-2.274-.328q-.631-13.043-1.263-26.106c7.154-.4,8.777,2.2,7.117,8.157M445.889,68.9a47.081,47.081,0,0,1-9.158-8.925c-1.266-1.652-1.967-4.863-1.207-6.63s3.659-2.647,6.937-4.763c3.428,3.009,7.681,5.25,9.424,8.742,1.4,2.818.074,7.215-.748,10.75-.166.709-4.193,1.612-5.248.825M262.31,167.925a54.263,54.263,0,0,1-7.567,1.559c-1.429-11.034-1.293-11.913,7.187-15.593q86.425-37.51,172.934-74.827c8.818-3.826,16.592-3.7,25.977.046,54.522,21.775,109.423,42.6,164.159,63.844,6.5,2.522,12.845,5.479,19.114,8.537,7.21,3.519,7.814,16.642.841,20.613-1.492.85-4.332.051-6.269-.708Q584.5,150.174,530.4,128.723c-26.7-10.652-53.276-21.614-79.889-32.479-2.831-1.156-5.544-2.6-9.764-4.595,3.754,7.681-2.065,8.063-5.528,9.447q-62.061,24.787-124.267,49.218c-16.059,6.269-32.393,11.839-48.641,17.611m7.3,35.483c-2.181-.448-5.05-3.677-5.346-5.943-.76-5.8-.254-11.762-.254-18.026h22.955c-.79,7.861-1.571,15.651-2.433,24.248-5.6,0-10.422.646-14.922-.279M661.69,349.249c-.292.042-.585.084-.879.124V269.66l.879-.018ZM281.837,448.326c-2.062,2.184-7.8.9-11.845,1.142-1.417-14.871-.534-15.733,13.875-13.412-.527,4.171.345,9.753-2.03,12.27M584.91,247.437l1.4-.023v16.208l-1.4.074Zm2.459,18.979c.811-2.014,2-4.034,2.169-6.118.338-4.281.1-8.609.1-13.225l6.106-1.967c-1.025-2.487-2-4.863-2.985-7.254,11.274-2.99,11.386-2.908,14.927,11.239H639.1V419.939c-.618-5.919-4.6-6.131-9.322-6.05-12.046.208-24.1.07-34.458.07-.7-6.509-1.289-12.314-1.979-18.108-.089-.748-.582-1.962-1.077-2.067-7.6-1.622-5.117-7.639-5.223-12.249q-1.256-54.559-2.151-109.126c-.032-1.981,1.671-3.973,2.484-5.992m.322,146.993V395.486l1.662-.794a39.4,39.4,0,0,1,2.554,5.912c1.165,4.542,2.7,9.342-4.216,12.8m-2.925-22.09-23.952,1.135V266.532l21.358,1.012c.865,41.276,1.724,82.227,2.594,123.775m-24.861-142.2,21.7-1.967v16.9c-6.294,0-12.708.112-19.11-.128-.9-.033-2.393-1.732-2.473-2.75-.294-3.808-.117-7.651-.117-12.058m-6.313.434,3.093-.044c.278,4.1.559,8.2.893,13.12-1.652-.228-3.827-.34-3.838-.557-.2-4.165-.149-8.343-.149-12.519m-32.01-10.683c.387,9.573-1.976,10.888-12.249,6.364l12.249-6.364M520.2,250.043c-1.2,10.326-1.2,10.326-9.464,9.322v-9.322Zm-30.112-1.822,17.324,1.379c2.321,9.783,1.636,10.638-7.387,9.739-.613-.061-1.231-.056-1.848-.089-9.781-.526-9.781-.526-8.089-11.028m19.841,157.443c1.65-3.58,2.68-5.812,3.71-8.044l2.3-.483c1.508,3.864,3.015,7.726,5.134,13.164-13.917,0-26.532.112-39.142-.093-2.564-.042-7.609-9.177-5.9-11.232,1.534-1.845,5.206-2.486,7.982-2.608,7.572-.335,15.169-.116,22.624-.116,1.21,3.463,1.981,5.665,3.291,9.412M507.4,262.152V389.7c-8.033.757-15.541,1.464-24.87,2.345,2.132-43.717,4.235-86.825,6.336-129.895Zm-59.22-30.713c1.335,10.916,1.123,11.5-4.132,11.764-.105-4.146-1.329-8.49,4.132-11.764m.748,15c-1.349,4.509-2.447,8.177-3.545,11.845-3.186-6.32-1.694-11.056,3.545-11.845m-1.82,12.82c1.689-.606,1.939-5.017,3-7.621,1.044-2.552,2.288-5.024,4.183-9.133-.473-2-1.407-5.942-2.431-10.27h26.38v11.5l-7.35.347q-.108.738-.219,1.477l11.147,2.058c8.709,26.933,1.477,53.576,1.2,80.145-.2,19.935-1.466,39.859-2.126,59.791-.1,3.057-.182,5.206-3.826,6.581-1.787.674-3.684,4.472-3.417,6.591,1.273,10.179,3.966,12.626,14.185,12.719,9.857.089,19.718-.592,29.58-.872,4.283-.123,6.085-1.871,4.677-6.255-1.561-4.856-2.978-9.757-4.824-15.847-1.433,2.377-2.088,3.465-2.745,4.552-.7.005-1.4.012-2.1.016-.9-7.313-2.57-14.624-2.585-21.939-.072-35.79.293-71.581.518-107.372a25.7,25.7,0,0,1,.342-2.757,18.189,18.189,0,0,1,4.088-.685c4.379.263,6.423-1.829,6.814-6.033.335-3.608,1-6.838,5.7-7.444,1.13-.147,2.465-2.48,2.81-4.01.482-2.133.123-4.458.123-7.3l9.145-2.1c3.193,5.558,1.38,14.915,11.9,14.129-.277,2.922-.385,5.348-.758,7.732-.631,4.041-.5,7.367,4.67,8.308.986.179,2.3,2.328,2.307,3.572.137,39.867.1,79.735.187,119.6.007,3.523-1.662,4.446-4.8,4.9-3.349.489-6.586,1.75-11.023,3,7.038,4.647,13.137,4.283,17.184.133.667-.685,1.561-1.622,2.363-1.634,7.537-.126,15.078-.075,22.994-.075v19.179H459.167c-1.764-7.227-4.523-14.316-10.857-19.494-.718-.587-.78-2.2-.823-3.356q-2.352-61.328-4.616-122.662c-.138-3.74-1.093-7.548,4.237-9.462m1.24,137.651c3.2,5.815,5.714,10.385,8.227,14.955q-.491.951-.979,1.906l-40.983-2.134c.018-.45.033-.9.051-1.352,7.684-.6,15.4-.97,23.045-1.866,7.4-.865,8.982-2.633,10.64-11.51m-28.955-1.4c-.683-43.872-1.366-87.778-2.058-132.217l22.822-1.377c1.734,44.362,3.463,88.628,5.22,133.594ZM441.34,246.927c-.41,4.038-.79,7.779-1.261,12.421-7.66.443-15.1.876-23.216,1.347-.324-4.887-.587-8.869-.913-13.768Zm-61.868-1.394c.643-12.875,2.677-14.765,15.879-14.73,1.818,0,3.636,0,5.125,0,3.528,6.294-3.713,17.212,11.3,16.2,1.259,18.977,3.022,37.478,3.589,56.016.818,26.7.811,53.422,1.042,80.134.037,4.08-.531,8.164-.846,12.6l-11.484,1.209c3.638,4.873,7.686,4.484,11.526,4.039,9.534-1.1,19.042-2.43,28.7-3.685,1.538,7.448-3.041,8.175-6.541,8.6-7.737.934-15.569,1.039-23.348,1.673a64.91,64.91,0,0,0-7.707,1.536l-.011,2.456,14.882,3.559c-.019.179-.037.357-.056.536H377.6c-4.817-9.457-4.764-19.38-4.7-29.76.165-26.085-1.053-52.178-1.662-78.27-.294-12.537-.6-25.078-.545-37.615.007-1.9,1.983-3.771,2.99-5.686.809-1.536,2.519-3.5,2.091-4.6-.958-2.461-3-4.5-4.6-6.712-.946.822-2.424,1.482-2.729,2.5-.636,2.105-.65,4.4-1,7.261H338.722c10.953-13.738,24.977-16.649,40.071-15a15.963,15.963,0,0,0,.68-2.263m-42.227,20.214h30.766c.909,44.152,1.818,88.358,2.712,131.8-11.873-.869-23.09-1.687-35.62-2.6.716-43.206,1.422-85.806,2.142-129.192m-.149-5.185a28.059,28.059,0,0,1-3.074,2.219c-.76-1.086-2.091-2.132-2.174-3.269-.277-3.8-.105-7.625-.105-11.275h18.609q.223.581.447,1.16c-2.922,2.046-5.943,3.964-8.732,6.178-1.825,1.45-3.26,3.381-4.971,4.987m31.381,140.312q-.155,1.138-.308,2.275l-30.627,1.58c.1-4.985,1.962-6.562,6.052-6.36,6.159.3,12.349.019,18.5.371,2.16.124,4.255,1.389,6.379,2.133m-29.061,5.689c8.177.261,16.4-.5,24.584-1.161,8.01-.652,9.2.336,9.128,10.559L331.1,412.753c1.785-5.2,4.017-6.329,8.32-6.19m37.32-161.556H362.322l-.657-1.449c4.68-2.843,9.359-5.686,15.071-9.158Zm-88.4,175.378,2.764.7c0,2.976.179,5.968-.093,8.918-.1,1.086-1.268,2.074-1.95,3.106-.769-1.158-2.223-2.349-2.17-3.468a77.122,77.122,0,0,1,1.449-9.259m-2.659,28.247c.186-3.792.147-7.033.617-10.2.145-.981,1.673-1.755,2.568-2.626.743.984,2.228,2.083,2.1,2.932-.548,3.554,2.836,9.345-5.283,9.89m8.016-31.989q-1.2-94.166-2.4-188.943c18.608,0,36.66-.06,54.713.026,8.636.04,17.273.273,25.9.631,1.538.065,3.03,1.167,4.544,1.79-1.237,1.321-2.289,2.916-3.756,3.9-2.184,1.463-5.292,1.941-6.908,3.794-9.247,10.6-20.964,7.979-32.47,7-.662-3.589-1.258-6.809-1.852-10.03l-2.473-.683c-1.606,2.969-3.9,5.807-4.514,8.97-.289,1.487,2.668,3.6,5.082,6.574,1.235,4.642-4.539,13.391,5.752,16.432-.657,22.2-1.615,44.338-1.878,66.484-.254,21.587.326,43.183.224,64.772-.016,3.281-1.554,6.623-2.748,9.8-.816,2.17-2.261,4.1-3.763,6.735l8.464,1.652q-.016.547-.035,1.093ZM318.6,426.695c-.315,2.529-.555,4.463-.823,6.614H294.041v-14.25c12.12,0,24.152.075,36.182-.014q56.167-.412,112.335-.93,91.021-.836,182.043-1.717c11.274-.1,11.275-.011,12.4,12.846l-318.4-2.55m339.158,15.26c-17.269-.273-34.539-.419-51.807-.744-36.6-.688-73.21-1.324-109.807-2.23q-83.262-2.065-166.508-4.6c-2.988-.091-8.3,2.3-8.688-5.206L638.1,431.736c.846,2.359,1.6,4.469,2.568,7.166l20.974-2.123c1.979,4.868-.583,5.229-3.887,5.176M681.3,441.9c-4.081,0-8.522.188-12.927-.126-1.161-.082-2.211-1.715-3.312-2.634,1.053-1.158,1.918-2.65,3.213-3.381,1.352-.762,3.116-.79,4.892-1.181,1.356-15.723,2.648-31.244,4.053-46.755.538-5.926,1.708-11.817,1.909-17.746.191-5.628,3.608-6.935,8.028-7.124,11.291-.48,22.6-1.17,33.887-1.012,13.971.194,27.93,1.238,41.9,1.741,3.668.133,5.47,1,5.526,5.258q.436,33.613,1.482,67.216c.135,4.391-1.408,6.744-5.628,6.924q-39.076,1.671-78.162,3.135c-.335.014-.685-.373-.347-.175V428.807l-2.554-.284c-.594,4.05-1.188,8.1-1.96,13.376M853.64,470.444H811.073l.021-1.422h42.574Zm5.29-92.587a16.129,16.129,0,0,1,.553-2.759l1.69.016c0,6.5-.06,13,.01,19.5.184,17.028.5,34.057.529,51.085,0,1.762-1.548,3.528-2.377,5.292-.694-1.811-2.016-3.635-1.985-5.434.4-22.57,1-45.138,1.578-67.7m-1.675,87.267V454.276l6.9-.778c1.54,9.264.326,11.468-6.9,11.626m35.1,2.654c13.157-3.447,38.484-2.652,42.453,2.4l-42.453-2.4" transform="translate(115.137 36.145)"/>
    <path id="Path_6880" data-name="Path 6880" d="M59.7,275.466c-19.9.06-39.8.289-59.7.8a10.228,10.228,0,0,0,5.358,1.23q27.5.21,55,.357c-.238-.788-.445-1.59-.657-2.389" transform="translate(0 207.052)"/>
    <path id="Path_6881" data-name="Path 6881" d="M102.094,152.993l-.03-.054a7.129,7.129,0,0,0-9.645-2.887l-.576.312-2.013-3.735a.994.994,0,0,0-1.75.942l2.014,3.734-3.272,1.764-2.013-3.735a.994.994,0,0,0-1.75.944l2.014,3.734L81.766,155.8a.994.994,0,0,0,.942,1.75l3.309-1.783,10.743,19.92-3.309,1.785a.994.994,0,0,0,.944,1.75l3.309-1.785,2.014,3.734a.993.993,0,1,0,1.748-.944l-2.013-3.735,3.27-1.762,2.014,3.733a.993.993,0,1,0,1.748-.942l-2.013-3.735.575-.31a7.125,7.125,0,0,0,2.887-9.645l-.028-.054a7.123,7.123,0,0,0-5.985-3.731,7.12,7.12,0,0,0,.172-7.05m4.064,11.726.03.054a5.138,5.138,0,0,1-2.081,6.951l-5.6,3.018-4.9-9.086,5.6-3.018a5.135,5.135,0,0,1,6.951,2.081m-7.895-3.831-5.6,3.018-4.9-9.086,5.6-3.018a5.137,5.137,0,0,1,6.951,2.081l.03.054a5.138,5.138,0,0,1-2.081,6.951" transform="translate(61.066 109.82)"/>
    <path id="Path_6882" data-name="Path 6882" d="M119.784,142.307a.994.994,0,0,0-1.028,1.7,29.483,29.483,0,1,1-14.425-4.255.995.995,0,0,0,.06-1.988,31.469,31.469,0,1,0,15.393,4.542" transform="translate(54.115 103.54)"/>
    <path id="Path_6883" data-name="Path 6883" d="M572.326,349.027l34.09,8.1c.531-2.239,1.023-4.064,1.4-5.914,3.009-14.943,6.122-29.867,8.914-44.851.82-4.391,2.379-8.047,6.013-10.674,2.314-1.671,2.754-3.747,2.319-6.548-1.205-7.755-1.072-7.79-8.833-9.38-3.561-.73-7.14-1.366-10.7-2.109a30.428,30.428,0,0,1-3.409-1.233c6.318-4.346,11.519-9.37,20.139-4.842-.683-1.916-.937-2.824-1.319-3.673q-32.788-72.881-65.6-145.752c-1.907-4.239-1.914-4.234,1.909-6.612,11.869-7.381,27.72-5.952,39.557,3.566.55.441,1.088.9,1.625,1.354a21.986,21.986,0,0,1,8.093,14.854c5.623,44.3,11.661,88.549,17.531,132.818.291,2.2.615,4.059,3.8,3.409q-.728-7.37-1.454-14.7-5.778-57.615-11.631-115.225c-.289-2.8.541-4.192,2.9-5.453,15.027-8.042,30.685-8.839,46.613-3.635a63.646,63.646,0,0,1,33.926,26.021,4.408,4.408,0,0,1,.568,4.71c-8.608,19.988-16.614,40.26-25.921,59.915-8.056,17.012-17.574,33.33-26.443,49.957-.321.6-.6,1.219-.988,2,5.653,1.386,10.646,2.519,16.369-.55,39.028-20.923,76.958-43.548,112.219-70.448,5.6-4.272,11.123-8.648,17.021-13.241-3.952-2.2-2.542-4.32-.843-6.966,3.931-6.127,4.167-4.334-.776-9.382-20.583-21.021-45.091-28.328-73.742-20.212a5.456,5.456,0,0,1-3.03.222A42.757,42.757,0,0,1,730.1,144.5c6.565-2.035,13.349-3.365,19.808-4.947a65.331,65.331,0,0,0-29.417-1.335c-7.01,1.177-12.917,3.344-14.919,11.246-.613,2.419-2.374,4.549-3.608,6.81l-1.072-.047c-.592-2.9-1.184-5.808-1.869-9.172l-5.583,3.684c-.471-.941-.916-1.675-1.223-2.465-5.172-13.341-15.232-21.316-28.5-25.478-13.374-4.193-26.674-3.4-39.773,1.489a4.3,4.3,0,0,1-3.03-.026,54.306,54.306,0,0,1,34.38-10.011c20.628.757,36.375,9.541,44.788,29,7.832-.732,9.751-6.928,11.93-12.941,9.746-26.886,13.992-54.443,9.984-82.968a99.251,99.251,0,0,0-11.6-35.455c-1.172-2.077-2.328-2.459-4.552-1.862-40.055,10.755-68.475,34.928-84.371,73.366a98.722,98.722,0,0,0-6.711,27.569c-4.638-7.931-10.806-13.7-20.049-15.591,11.347,8.413,16.905,19.783,18.256,33.321-.385.224-.773.448-1.158.674a29.66,29.66,0,0,1-1.843-3.032c-8.047-17.511-29.182-27.348-46.674-21.636a59.9,59.9,0,0,1-7.383,2.4c2.226-4.379,5.922-7.222,10.018-9.375,4.146-2.181,8.608-3.766,12.77-5.544-13.957-1.154-24.593,5.865-34.432,15.269,8.051-37.809,27.481-67.622,60.33-88.1C628.27,4.581,654.282-1.382,682.051.265c7.457.443,14.892,1.356,22.113,4.12-12.228,1.4-23.968,4.025-35.042,9.21C658,18.8,648.13,25.674,640.673,35.766L639.747,35a17.045,17.045,0,0,1,1.435-2.806c6.866-8.954,15.863-15.311,26.047-19.7,8.46-3.647,17.387-6.213,25.388-9.007-10.832-5.826-53.309-.016-76.769,11.824-36.31,18.324-58.548,48.032-68.612,87.379,1.076-.918,2.135-1.853,3.227-2.748,9.082-7.462,19.356-11.359,31.151-9.275a101.516,101.516,0,0,1,20.34,5.3c4.349,1.757,7.821,5.682,11.747,8.683.128-.538.357-1.47.569-2.405C625.662,51.87,657.461,21.458,706.5,7.85c2.515-.7,3.808,0,5.064,2.186,8.425,14.667,12.305,30.629,13.449,47.319,1.881,27.483-3.237,53.821-13.5,79.258a12.088,12.088,0,0,0-.42,1.133,4.427,4.427,0,0,0,0,.906c1-.277,1.916-.522,2.831-.783a67.193,67.193,0,0,1,43.061,1.878,12.988,12.988,0,0,0,2.9.818c16.742,2.006,29.946,9.624,38.729,24.3.133.221.422.345.874.7,5.386-14.374,7.346-28.892,4.807-44.536-2.818,5.309-4.58,10.682-10.228,13.565,4.409-28.452-3.351-54.019-17.956-77.8C761.535,33.07,742.428,14.488,714.882,6.107l.286-.921a11.338,11.338,0,0,1,2.868-.109C755.3,13.253,783.46,33.686,801.154,67.7c13.241,25.451,16.639,52.621,12.629,80.852a151.814,151.814,0,0,1-8.576,33.038,25.407,25.407,0,0,1-1.86,3.107c-1.3-4.9-2.381-8.981-3.594-13.556-2.454,3.22-3.375,5.822-1.54,9.058,1.06,1.869,1.487,4.1,2.465,6.926-3.838-.857-3.868-4.348-6.264-5.973-1.38,2.095-2.767,4.2-4.137,6.273,3.554,3.388,3.619,3.468-.226,6.591a655.95,655.95,0,0,1-84.506,58.1c-14.314,8.308-28.881,16.18-43.348,24.227a14.17,14.17,0,0,1-2.232.8c.1.291.208.582.312.872l40.9,7.786c.042.324.082.646.123.97-.685.664-1.331,1.372-2.06,1.983-8.581,7.2-17.133,14.43-25.819,21.5a6.072,6.072,0,0,1-4.307,1.069c-6.5-1.04-12.96-2.374-19.636-2.983,4.435,2,8.862,4.02,13.311,5.987,6.138,2.713,6.225,2.71,4.9,9.3-2.184,10.888-4.486,21.752-6.73,32.626-.217,1.047-.385,2.105-.739,4.05,3.955-3.2,7.072-6.2,10.634-8.509,5.714-3.7,8.406-8.863,10.023-15.357,3.12-12.531,6.767-24.945,10.706-37.243.813-2.535,3.833-4.383,5.945-6.432a2.59,2.59,0,0,1,1.773,1.053,4.556,4.556,0,0,1-.392,2.333c-4.865,17.716-9.692,35.444-14.689,53.124a9.338,9.338,0,0,1-3.123,4.509q-10.187,7.864-20.7,15.288a6.66,6.66,0,0,1-4.673.886c-10.284-2.111-20.522-4.447-30.773-6.718-1.168-.257-2.328-.55-3.281-.776-.431.342-.669.433-.724.589-1.81,5.131-1.808,5.132-7.136,3.75-1.172-.3-2.345-.6-3.51-.939-4.9-1.407-4.9-1.412-4.358-6.931-1.058-.25-2.181-.531-3.312-.785-9.949-2.232-19.892-4.5-29.857-6.651-1.986-.429-2.606-1.121-2.181-3.262q5.318-26.729,10.393-53.507a7.654,7.654,0,0,1,3.416-5.388c2.268-1.5,4.363-3.263,6.588-4.838a16.637,16.637,0,0,1,2.468-1.212q.4.336.807.673l-4.449,9.315c2.358.561,4.544,1.128,6.751,1.594,4.742,1,9.478,2.046,14.257,2.831a4.366,4.366,0,0,0,3.29-1.14c2.021-2.041,3.754-4.37,5.91-6.956-8.389-2.643-16.266-5.127-24.143-7.611q.26-.8.52-1.6l27.143,8.17c-3.481,4.048-6.355,7.52-9.413,10.822-.494.533-1.857.568-2.729.391-7.224-1.456-14.412-3.086-21.641-4.5-2.5-.49-2.722-1.559-1.564-3.517.648-1.1,1.163-2.275,2-3.939-4.3,2.54-7.045,4.912-7.882,9.984-2.659,16.127-6.111,32.125-9.266,48.172-.193.981-.457,1.948-.72,3.058M684.846,297.8a21.8,21.8,0,0,0-3.6,2.57c-2.121,2.256-4.377,2.533-7.336,1.78-8.313-2.116-16.788-3.624-25.04-5.94-4.57-1.282-7.639-.356-10.879,3.016-3.03,3.156-5.143,6.32-6.01,10.734-3.167,16.145-6.7,32.218-10.084,48.319a21.021,21.021,0,0,0-.207,2.223c1.219.289,2.277.554,3.342.792,9.949,2.225,19.918,4.374,29.839,6.719a5.926,5.926,0,0,0,5.542-1.14q9.128-7,18.487-13.694a9.358,9.358,0,0,0,3.89-5.467c4.505-16.555,9.117-33.082,13.682-49.622a13.719,13.719,0,0,0,.259-1.844l-.988-.426c-1,1.82-2.366,3.53-2.936,5.474-4.179,14.236-8.152,28.533-12.328,42.768a9.76,9.76,0,0,1-2.789,4.456c-5.439,4.659-11.081,9.079-16.606,13.64a18.666,18.666,0,0,0-2.149,2.5q-.557-.617-1.112-1.237c.119-1.04.159-2.1.368-3.123,2.7-13.151,5.391-26.3,8.171-39.438.394-1.86.186-2.853-1.78-3.692-7.972-3.4-15.856-7-23.75-10.582a19.83,19.83,0,0,1-2.673-1.753q.174-.41.347-.823c1.047.114,2.109.159,3.144.349,8.737,1.594,17.466,3.242,26.21,4.8,1.246.223,2.994.6,3.771-.023,4.531-3.621,8.844-7.516,13.23-11.321l13.412-10.436c-2.706-.643-4.614-1.181-6.553-1.543-10.207-1.9-20.512-3.381-30.6-5.78-5.6-1.333-9.222,1.654-14.383,3.785,1.9.45,2.857.706,3.829.906,11.556,2.366,23.115,4.71,34.665,7.1a39.8,39.8,0,0,1,4,1.31l-4.39,4.64m-48.734-24.2a12.176,12.176,0,0,1,2.38.424c3.654,1.414,5.437-.254,7.259-3.407A717.672,717.672,0,0,0,696.624,163.39a5.555,5.555,0,0,0-.573-4.351,60.421,60.421,0,0,0-32.919-24.8c-15.089-4.787-29.794-4.055-44,3.36-1.992,1.039-2.65,2.17-2.414,4.461q6.385,62.095,12.607,124.209c.631,6.225.636,6.225,6.789,7.327M555.931,118.778l64.963,144.306a1.457,1.457,0,0,0,.366-1.319c-5.581-41.848-11.33-83.674-16.581-125.565a21.57,21.57,0,0,0-9.3-15.707,40.839,40.839,0,0,0-8.849-5.127c-10.629-4.211-20.864-3.636-30.6,3.412m248.087-2.859.748-.168a31.193,31.193,0,0,1,1.291,4.12,84.2,84.2,0,0,1-3.712,43.206c-.694,1.953-1.687,4.141-1.38,6.033.5,3.113,1.957,6.073,3.069,9.275a11.379,11.379,0,0,0,.718-1.17c.245-.55.448-1.123.641-1.7a146.282,146.282,0,0,0,7.816-40.582c1.459-33.931-7.558-64.457-30.055-90.408A114.235,114.235,0,0,0,735.248,11.9c40.731,28.566,63.516,66.883,62.159,118.6l6.611-14.575M627.065,281.973q-.468.16-.932.319a38.634,38.634,0,0,0,.734,6.178c1.053,3.764.186,6.656-3.043,8.872-3.3,2.265-4.518,5.591-5.251,9.41-3.125,16.245-6.45,32.451-9.681,48.676a11.389,11.389,0,0,0-.093,1.841l10.718,2.545c.258-1.084.461-1.862.627-2.647,3.064-14.511,6.6-28.944,8.995-43.563,1.294-7.9,4.519-13.864,10.7-18.657,1.743-1.352,3.142-2.06,5.39-1.512,9.9,2.414,19.835,4.682,29.774,6.935,1.005.229,2.407.426,3.118-.079,2.5-1.771,4.78-3.854,7.534-6.143-1.123-.368-1.65-.6-2.2-.711-12.258-2.494-24.5-5.059-36.8-7.376a16.5,16.5,0,0,0-6.691.489c-2.987.722-3.1.8-2.932-2.468-.964-.228-1.934-.492-2.918-.683-.937-.18-1.89-.284-2.815-.417-.095,1.787-.172,3.237-.249,4.687q-.468.076-.935.151-1.527-2.922-3.053-5.847M722.3,150.123c28.723-4.207,52.558,4.666,71.936,26.252a19.331,19.331,0,0,0-1.788-3.971,70.332,70.332,0,0,0-29.457-27.869c-1.862-.935-3.862-2.02-5.865-2.177-12.38-.979-23.952,1.974-34.826,7.765m-159.527-47.7a41.313,41.313,0,0,1,26.006,1.72c8.378,3.3,14.9,8.974,20.384,16.035-2.494-9.35-7.2-17.142-15.246-22.544-2.3-1.543-4.975-3.407-7.542-3.51-8.8-.352-16.688,2.654-23.6,8.3m135.5,42.542c-7.968-24.744-38.326-33.724-60.032-26.5,24.442-1.326,44.847,5.113,56.24,29.294l3.792-2.794m97.186,28.991c3.475-4.983,3.586-5.129.564-9.562a62.168,62.168,0,0,0-6.372-8c-6.238-6.516-14.026-10.326-22.8-12.367a75.623,75.623,0,0,1,28.613,29.934M606.928,275.4c5.614,1.335,10.911,2.594,16.269,3.866.328-5.971.065-5.763-4.913-7.28-4.8-1.463-7.727,1.408-11.356,3.414m23.757-.881c-.9,5.728-.6,6.132,5.344,7.35,3,.615,4.309-.631,5.526-5.392-3.633-.653-7.248-1.3-10.871-1.958m-22.216,85.012c-.37.215-.739.429-1.107.645.536,1.074.82,2.775,1.652,3.109a90.994,90.994,0,0,0,8.928,2.676c.363-1.524.645-2.708.941-3.955l-10.413-2.475M652.18,279.23c-8.522-2.64-10.058-2.014-10.851,4.64l10.851-4.64m50.26-127.677c1.429-2.925,2.72-5.57,4.211-8.623-6.348,2.482-6.572,2.95-4.211,8.623" transform="translate(409.086 -0.001)"/>
  </g>
</svg>
