<svg xmlns="http://www.w3.org/2000/svg" xmlns:xlink="http://www.w3.org/1999/xlink" width="159.079" height="97" viewBox="0 0 159.079 97">
  <defs>
    <clipPath id="clip-path">
      <rect id="Rectangle_2878" data-name="Rectangle 2878" width="159.079" height="97" fill="none"/>
    </clipPath>
  </defs>
  <g id="Group_5747" data-name="Group 5747" transform="translate(-937 -1899)">
    <g id="Group_5741" data-name="Group 5741" transform="translate(937 1899)">
      <g id="Group_5740" data-name="Group 5740" clip-path="url(#clip-path)">
        <path id="Path_3110" data-name="Path 3110" d="M130.841,84.373a6.7,6.7,0,0,1-.444.664l.142.522c.215-.339.421-.668.618-.966,0-.105-.1-.215-.316-.22m.082,2.6c-.092.215-.183.426-.275.636.142-.192.293-.375.444-.545a.219.219,0,0,1-.169-.092m-1.7-.609c.142.156.284.307.43.467a1.341,1.341,0,0,0,.169-.192.861.861,0,0,0,.073-.105,6.024,6.024,0,0,0,.5-1.493,12.019,12.019,0,0,1-1.177,1.323m1.621-1.987a6.7,6.7,0,0,1-.444.664l.142.522c.215-.339.421-.668.618-.966,0-.105-.1-.215-.316-.22m.082,2.6c-.092.215-.183.426-.275.636.142-.192.293-.375.444-.545a.219.219,0,0,1-.169-.092m-1.7-.609c.142.156.284.307.43.467a1.341,1.341,0,0,0,.169-.192.861.861,0,0,0,.073-.105,6.024,6.024,0,0,0,.5-1.493,12.019,12.019,0,0,1-1.177,1.323m1.621-1.987a6.7,6.7,0,0,1-.444.664l.142.522c.215-.339.421-.668.618-.966,0-.105-.1-.215-.316-.22m.082,2.6c-.092.215-.183.426-.275.636.142-.192.293-.375.444-.545a.219.219,0,0,1-.169-.092m-1.7-.609c.142.156.284.307.43.467a1.341,1.341,0,0,0,.169-.192.861.861,0,0,0,.073-.105,6.024,6.024,0,0,0,.5-1.493,12.019,12.019,0,0,1-1.177,1.323m1.621-1.987a6.7,6.7,0,0,1-.444.664l.142.522c.215-.339.421-.668.618-.966,0-.105-.1-.215-.316-.22m.082,2.6c-.092.215-.183.426-.275.636.142-.192.293-.375.444-.545a.219.219,0,0,1-.169-.092m-1.7-.609c.142.156.284.307.43.467a1.341,1.341,0,0,0,.169-.192.861.861,0,0,0,.073-.105,6.024,6.024,0,0,0,.5-1.493,12.019,12.019,0,0,1-1.177,1.323m1.621-1.987a6.7,6.7,0,0,1-.444.664l.142.522c.215-.339.421-.668.618-.966,0-.105-.1-.215-.316-.22m.082,2.6c-.092.215-.183.426-.275.636.142-.192.293-.375.444-.545a.219.219,0,0,1-.169-.092m-1.7-.609c.142.156.284.307.43.467a1.341,1.341,0,0,0,.169-.192.861.861,0,0,0,.073-.105,6.024,6.024,0,0,0,.5-1.493,12.019,12.019,0,0,1-1.177,1.323m12.513-22.426c-.128-.43-1.355-.742-2.088-.746q-2.72-.014-5.439.018c-.22,0-.44,0-.664.009h-.023c-.018,1.291-.055,2.573-.1,3.855a1.035,1.035,0,0,0,.119,0c.2-.009.4-.018.6-.032,1.552-.073,3.187-.174,5-.266a49.869,49.869,0,0,0-3.3,4.107c-.577.9-1.163,1.8-1.74,2.71-.192.293-.38.591-.568.888v4c.192-.311.389-.618.586-.925,1.058-1.662,2.1-3.283,3.173-4.89,1.342-2.01,2.921-3.869,4.176-5.929a3.817,3.817,0,0,0,.256-2.793M129.188,67.1c.266.023.536.041.8.05.3-.421.6-.838.907-1.25a8.634,8.634,0,0,0-1.708,1.2m-1.731-.366a5.177,5.177,0,0,0,.76.215,24.4,24.4,0,0,0,2.408-3.1c-1.383.444-2.262,1.818-3.168,2.884m-1.708-2.321c.046.082.092.169.133.261,0-.064,0-.133,0-.2.165-.16.334-.316.5-.472a6.522,6.522,0,0,1-.641.407m2.82-1.081a7.063,7.063,0,0,0-2,2.77,1.9,1.9,0,0,0,.179.238,14.676,14.676,0,0,0,2.733-3.036c-.307,0-.609.018-.911.027m-2.82,1.081c.046.082.092.169.133.261,0-.064,0-.133,0-.2.165-.16.334-.316.5-.472a6.522,6.522,0,0,1-.641.407m2.82-1.081a7.063,7.063,0,0,0-2,2.77,1.9,1.9,0,0,0,.179.238,14.676,14.676,0,0,0,2.733-3.036c-.307,0-.609.018-.911.027m-1.113,3.4a5.177,5.177,0,0,0,.76.215,24.4,24.4,0,0,0,2.408-3.1c-1.383.444-2.262,1.818-3.168,2.884m1.731.366c.266.023.536.041.8.05.3-.421.6-.838.907-1.25a8.634,8.634,0,0,0-1.708,1.2m12.545-3.168c-.128-.43-1.355-.742-2.088-.746q-2.72-.014-5.439.018c-.22,0-.44,0-.664.009h-.023c-.018,1.291-.055,2.573-.1,3.855a1.035,1.035,0,0,0,.119,0c.2-.009.4-.018.6-.032,1.552-.073,3.187-.174,5-.266a49.869,49.869,0,0,0-3.3,4.107c-.577.9-1.163,1.8-1.74,2.71-.192.293-.38.591-.568.888v4c.192-.311.389-.618.586-.925,1.058-1.662,2.1-3.283,3.173-4.89,1.342-2.01,2.921-3.869,4.176-5.929a3.817,3.817,0,0,0,.256-2.793M129.188,67.1c.266.023.536.041.8.05.3-.421.6-.838.907-1.25a8.634,8.634,0,0,0-1.708,1.2m-1.731-.366a5.177,5.177,0,0,0,.76.215,24.4,24.4,0,0,0,2.408-3.1c-1.383.444-2.262,1.818-3.168,2.884m-1.708-2.321c.046.082.092.169.133.261,0-.064,0-.133,0-.2.165-.16.334-.316.5-.472a6.522,6.522,0,0,1-.641.407m2.82-1.081a7.063,7.063,0,0,0-2,2.77,1.9,1.9,0,0,0,.179.238,14.676,14.676,0,0,0,2.733-3.036c-.307,0-.609.018-.911.027m-2.82,1.081c.046.082.092.169.133.261,0-.064,0-.133,0-.2.165-.16.334-.316.5-.472a6.522,6.522,0,0,1-.641.407m2.82-1.081a7.063,7.063,0,0,0-2,2.77,1.9,1.9,0,0,0,.179.238,14.676,14.676,0,0,0,2.733-3.036c-.307,0-.609.018-.911.027m-1.113,3.4a5.177,5.177,0,0,0,.76.215,24.4,24.4,0,0,0,2.408-3.1c-1.383.444-2.262,1.818-3.168,2.884m1.731.366c.266.023.536.041.8.05.3-.421.6-.838.907-1.25a8.634,8.634,0,0,0-1.708,1.2m12.545-3.168c-.128-.43-1.355-.742-2.088-.746q-2.72-.014-5.439.018c-.22,0-.44,0-.664.009h-.023c-.018,1.291-.055,2.573-.1,3.855a1.035,1.035,0,0,0,.119,0c.2-.009.4-.018.6-.032,1.552-.073,3.187-.174,5-.266a49.869,49.869,0,0,0-3.3,4.107c-.577.9-1.163,1.8-1.74,2.71-.192.293-.38.591-.568.888v4c.192-.311.389-.618.586-.925,1.058-1.662,2.1-3.283,3.173-4.89,1.342-2.01,2.921-3.869,4.176-5.929a3.817,3.817,0,0,0,.256-2.793M129.188,67.1c.266.023.536.041.8.05.3-.421.6-.838.907-1.25a8.634,8.634,0,0,0-1.708,1.2m-1.731-.366a5.177,5.177,0,0,0,.76.215,24.4,24.4,0,0,0,2.408-3.1c-1.383.444-2.262,1.818-3.168,2.884m-1.708-2.321c.046.082.092.169.133.261,0-.064,0-.133,0-.2.165-.16.334-.316.5-.472a6.522,6.522,0,0,1-.641.407m2.82-1.081a7.063,7.063,0,0,0-2,2.77,1.9,1.9,0,0,0,.179.238,14.676,14.676,0,0,0,2.733-3.036c-.307,0-.609.018-.911.027m-2.82,1.081c.046.082.092.169.133.261,0-.064,0-.133,0-.2.165-.16.334-.316.5-.472a6.522,6.522,0,0,1-.641.407m2.82-1.081a7.063,7.063,0,0,0-2,2.77,1.9,1.9,0,0,0,.179.238,14.676,14.676,0,0,0,2.733-3.036c-.307,0-.609.018-.911.027m-1.113,3.4a5.177,5.177,0,0,0,.76.215,24.4,24.4,0,0,0,2.408-3.1c-1.383.444-2.262,1.818-3.168,2.884M129.22,86.36c.142.156.284.307.43.467a1.341,1.341,0,0,0,.169-.192.861.861,0,0,0,.073-.105,6.024,6.024,0,0,0,.5-1.493,12.019,12.019,0,0,1-1.177,1.323M129.188,67.1c.266.023.536.041.8.05.3-.421.6-.838.907-1.25a8.634,8.634,0,0,0-1.708,1.2m1.735,19.866c-.092.215-.183.426-.275.636.142-.192.293-.375.444-.545a.219.219,0,0,1-.169-.092m-.082-2.6a6.7,6.7,0,0,1-.444.664l.142.522c.215-.339.421-.668.618-.966,0-.105-.1-.215-.316-.22m10.892-20.439c-.128-.43-1.355-.742-2.088-.746q-2.72-.014-5.439.018c-.22,0-.44,0-.664.009h-.023c-.018,1.291-.055,2.573-.1,3.855a1.035,1.035,0,0,0,.119,0c.2-.009.4-.018.6-.032,1.552-.073,3.187-.174,5-.266a49.869,49.869,0,0,0-3.3,4.107c-.577.9-1.163,1.8-1.74,2.71-.192.293-.38.591-.568.888v4c.192-.311.389-.618.586-.925,1.058-1.662,2.1-3.283,3.173-4.89,1.342-2.01,2.921-3.869,4.176-5.929a3.817,3.817,0,0,0,.256-2.793M130.841,84.373a6.7,6.7,0,0,1-.444.664l.142.522c.215-.339.421-.668.618-.966,0-.105-.1-.215-.316-.22m.082,2.6c-.092.215-.183.426-.275.636.142-.192.293-.375.444-.545a.219.219,0,0,1-.169-.092M129.188,67.1c.266.023.536.041.8.05.3-.421.6-.838.907-1.25a8.634,8.634,0,0,0-1.708,1.2m.032,19.257c.142.156.284.307.43.467a1.341,1.341,0,0,0,.169-.192.861.861,0,0,0,.073-.105,6.024,6.024,0,0,0,.5-1.493,12.019,12.019,0,0,1-1.177,1.323m-1.763-19.624a5.177,5.177,0,0,0,.76.215,24.4,24.4,0,0,0,2.408-3.1c-1.383.444-2.262,1.818-3.168,2.884m-1.708-2.321c.046.082.092.169.133.261,0-.064,0-.133,0-.2.165-.16.334-.316.5-.472a6.522,6.522,0,0,1-.641.407m2.82-1.081a7.063,7.063,0,0,0-2,2.77,1.9,1.9,0,0,0,.179.238,14.676,14.676,0,0,0,2.733-3.036c-.307,0-.609.018-.911.027m-2.82,1.081c.046.082.092.169.133.261,0-.064,0-.133,0-.2.165-.16.334-.316.5-.472a6.522,6.522,0,0,1-.641.407m2.82-1.081a7.063,7.063,0,0,0-2,2.77,1.9,1.9,0,0,0,.179.238,14.676,14.676,0,0,0,2.733-3.036c-.307,0-.609.018-.911.027m-1.113,3.4a5.177,5.177,0,0,0,.76.215,24.4,24.4,0,0,0,2.408-3.1c-1.383.444-2.262,1.818-3.168,2.884M129.22,86.36c.142.156.284.307.43.467a1.341,1.341,0,0,0,.169-.192.861.861,0,0,0,.073-.105,6.024,6.024,0,0,0,.5-1.493,12.019,12.019,0,0,1-1.177,1.323M129.188,67.1c.266.023.536.041.8.05.3-.421.6-.838.907-1.25a8.634,8.634,0,0,0-1.708,1.2m1.735,19.866c-.092.215-.183.426-.275.636.142-.192.293-.375.444-.545a.219.219,0,0,1-.169-.092m-.082-2.6a6.7,6.7,0,0,1-.444.664l.142.522c.215-.339.421-.668.618-.966,0-.105-.1-.215-.316-.22m.128,4.734,0,0c-.037.027-.073.06-.11.087a.647.647,0,0,0-.11.092c-.069.05-.137.11-.206.169-.119.1-.233.211-.348.325-.1.1-.2.192-.293.293-.243.256-.476.527-.7.806-.105.133-.211.266-.311.4,0,.009-.014.018-.018.027-.05.1-.105.2-.16.3a1,1,0,0,1-.243.279,0,0,0,0,0,0,0A16.714,16.714,0,0,0,126.808,95a26.536,26.536,0,0,0,4.308-5.874s0-.009,0-.014c.027-.06.05-.119.073-.174-.073.05-.151.105-.224.165m10.764-25.173c-.128-.43-1.355-.742-2.088-.746q-2.72-.014-5.439.018c-.22,0-.44,0-.664.009h-.023c-.018,1.291-.055,2.573-.1,3.855a1.035,1.035,0,0,0,.119,0c.2-.009.4-.018.6-.032,1.552-.073,3.187-.174,5-.266a49.869,49.869,0,0,0-3.3,4.107c-.577.9-1.163,1.8-1.74,2.71-.192.293-.38.591-.568.888v4c.192-.311.389-.618.586-.925,1.058-1.662,2.1-3.283,3.173-4.89,1.342-2.01,2.921-3.869,4.176-5.929a3.817,3.817,0,0,0,.256-2.793M130.969,89.108l0,0c-.037.027-.073.06-.11.087a.647.647,0,0,0-.11.092c-.069.05-.137.11-.206.169-.119.1-.233.211-.348.325-.1.1-.2.192-.293.293-.243.256-.476.527-.7.806-.105.133-.211.266-.311.4,0,.009-.014.018-.018.027-.05.1-.105.2-.16.3a1,1,0,0,1-.243.279,0,0,0,0,0,0,0A16.714,16.714,0,0,0,126.808,95a26.536,26.536,0,0,0,4.308-5.874s0-.009,0-.014c.027-.06.05-.119.073-.174-.073.05-.151.105-.224.165m-.128-4.734a6.7,6.7,0,0,1-.444.664l.142.522c.215-.339.421-.668.618-.966,0-.105-.1-.215-.316-.22m.082,2.6c-.092.215-.183.426-.275.636.142-.192.293-.375.444-.545a.219.219,0,0,1-.169-.092M129.188,67.1c.266.023.536.041.8.05.3-.421.6-.838.907-1.25a8.634,8.634,0,0,0-1.708,1.2m.032,19.257c.142.156.284.307.43.467a1.341,1.341,0,0,0,.169-.192.861.861,0,0,0,.073-.105,6.024,6.024,0,0,0,.5-1.493,12.019,12.019,0,0,1-1.177,1.323m-1.763-19.624a5.177,5.177,0,0,0,.76.215,24.4,24.4,0,0,0,2.408-3.1c-1.383.444-2.262,1.818-3.168,2.884m-1.708-2.321c.046.082.092.169.133.261,0-.064,0-.133,0-.2.165-.16.334-.316.5-.472a6.522,6.522,0,0,1-.641.407m2.82-1.081a7.063,7.063,0,0,0-2,2.77,1.9,1.9,0,0,0,.179.238,14.676,14.676,0,0,0,2.733-3.036c-.307,0-.609.018-.911.027m-2.82,1.081c.046.082.092.169.133.261,0-.064,0-.133,0-.2.165-.16.334-.316.5-.472a6.522,6.522,0,0,1-.641.407m2.82-1.081a7.063,7.063,0,0,0-2,2.77,1.9,1.9,0,0,0,.179.238,14.676,14.676,0,0,0,2.733-3.036c-.307,0-.609.018-.911.027m-1.113,3.4a5.177,5.177,0,0,0,.76.215,24.4,24.4,0,0,0,2.408-3.1c-1.383.444-2.262,1.818-3.168,2.884M129.22,86.36c.142.156.284.307.43.467a1.341,1.341,0,0,0,.169-.192.861.861,0,0,0,.073-.105,6.024,6.024,0,0,0,.5-1.493,12.019,12.019,0,0,1-1.177,1.323M129.188,67.1c.266.023.536.041.8.05.3-.421.6-.838.907-1.25a8.634,8.634,0,0,0-1.708,1.2m1.735,19.866c-.092.215-.183.426-.275.636.142-.192.293-.375.444-.545a.219.219,0,0,1-.169-.092m-.082-2.6a6.7,6.7,0,0,1-.444.664l.142.522c.215-.339.421-.668.618-.966,0-.105-.1-.215-.316-.22m.128,4.734,0,0c-.037.027-.073.06-.11.087a.647.647,0,0,0-.11.092c-.069.05-.137.11-.206.169-.119.1-.233.211-.348.325-.1.1-.2.192-.293.293-.243.256-.476.527-.7.806-.105.133-.211.266-.311.4,0,.009-.014.018-.018.027-.05.1-.105.2-.16.3a1,1,0,0,1-.243.279,0,0,0,0,0,0,0A16.714,16.714,0,0,0,126.808,95a26.536,26.536,0,0,0,4.308-5.874s0-.009,0-.014c.027-.06.05-.119.073-.174-.073.05-.151.105-.224.165m10.764-25.173c-.128-.43-1.355-.742-2.088-.746q-2.72-.014-5.439.018c-.22,0-.44,0-.664.009h-.023c-.018,1.291-.055,2.573-.1,3.855a1.035,1.035,0,0,0,.119,0c.2-.009.4-.018.6-.032,1.552-.073,3.187-.174,5-.266a49.869,49.869,0,0,0-3.3,4.107c-.577.9-1.163,1.8-1.74,2.71-.192.293-.38.591-.568.888v4c.192-.311.389-.618.586-.925,1.058-1.662,2.1-3.283,3.173-4.89,1.342-2.01,2.921-3.869,4.176-5.929a3.817,3.817,0,0,0,.256-2.793M130.969,89.108l0,0c-.037.027-.073.06-.11.087a.647.647,0,0,0-.11.092c-.069.05-.137.11-.206.169-.119.1-.233.211-.348.325-.1.1-.2.192-.293.293-.243.256-.476.527-.7.806-.105.133-.211.266-.311.4,0,.009-.014.018-.018.027-.05.1-.105.2-.16.3a1,1,0,0,1-.243.279,0,0,0,0,0,0,0A16.714,16.714,0,0,0,126.808,95a26.536,26.536,0,0,0,4.308-5.874s0-.009,0-.014c.027-.06.05-.119.073-.174-.073.05-.151.105-.224.165m-.128-4.734a6.7,6.7,0,0,1-.444.664l.142.522c.215-.339.421-.668.618-.966,0-.105-.1-.215-.316-.22m.082,2.6c-.092.215-.183.426-.275.636.142-.192.293-.375.444-.545a.219.219,0,0,1-.169-.092M129.188,67.1c.266.023.536.041.8.05.3-.421.6-.838.907-1.25a8.634,8.634,0,0,0-1.708,1.2m.032,19.257c.142.156.284.307.43.467a1.341,1.341,0,0,0,.169-.192.861.861,0,0,0,.073-.105,6.024,6.024,0,0,0,.5-1.493,12.019,12.019,0,0,1-1.177,1.323m-1.763-19.624a5.177,5.177,0,0,0,.76.215,24.4,24.4,0,0,0,2.408-3.1c-1.383.444-2.262,1.818-3.168,2.884m1.113-3.4a7.063,7.063,0,0,0-2,2.77,1.9,1.9,0,0,0,.179.238,14.676,14.676,0,0,0,2.733-3.036c-.307,0-.609.018-.911.027m-2.82,1.081c.046.082.092.169.133.261,0-.064,0-.133,0-.2.165-.16.334-.316.5-.472a6.522,6.522,0,0,1-.641.407m0,0c.046.082.092.169.133.261,0-.064,0-.133,0-.2.165-.16.334-.316.5-.472a6.522,6.522,0,0,1-.641.407m2.82-1.081a7.063,7.063,0,0,0-2,2.77,1.9,1.9,0,0,0,.179.238,14.676,14.676,0,0,0,2.733-3.036c-.307,0-.609.018-.911.027m-1.113,3.4a5.177,5.177,0,0,0,.76.215,24.4,24.4,0,0,0,2.408-3.1c-1.383.444-2.262,1.818-3.168,2.884M129.22,86.36c.142.156.284.307.43.467a1.341,1.341,0,0,0,.169-.192.861.861,0,0,0,.073-.105,6.024,6.024,0,0,0,.5-1.493,12.019,12.019,0,0,1-1.177,1.323M129.188,67.1c.266.023.536.041.8.05.3-.421.6-.838.907-1.25a8.634,8.634,0,0,0-1.708,1.2m1.735,19.866c-.092.215-.183.426-.275.636.142-.192.293-.375.444-.545a.219.219,0,0,1-.169-.092m-.082-2.6a6.7,6.7,0,0,1-.444.664l.142.522c.215-.339.421-.668.618-.966,0-.105-.1-.215-.316-.22m.128,4.734,0,0c-.037.027-.073.06-.11.087a.647.647,0,0,0-.11.092c-.069.05-.137.11-.206.169-.119.1-.233.211-.348.325-.1.1-.2.192-.293.293-.243.256-.476.527-.7.806-.105.133-.211.266-.311.4,0,.009-.014.018-.018.027-.05.1-.105.2-.16.3a1,1,0,0,1-.243.279,0,0,0,0,0,0,0A16.714,16.714,0,0,0,126.808,95a26.536,26.536,0,0,0,4.308-5.874s0-.009,0-.014c.027-.06.05-.119.073-.174-.073.05-.151.105-.224.165m.348-10.521c-.238.27-.481.536-.723.8a.063.063,0,0,1-.014.018c-.32.586-.632,1.172-.939,1.767a3.406,3.406,0,0,1-2.706,2.033.638.638,0,0,0-.156.527c1.062.353,2.069-1.236,2.848-2.179s1.992-2.2,1.689-2.962m.5,2.582c-.087-.1-.192-.105-.357-.11-1.442,1.9-3.645,3.878-4.656,5.677a5.228,5.228,0,0,0,1.506-.984c.037-.078.073-.16.11-.243.023.023.046.05.069.073.06-.06.119-.119.179-.183.087-.087.169-.183.252-.275.124-.142.243-.284.357-.43.055-.069.11-.137.16-.206q.213-.282.412-.563c.261-.366.513-.737.778-1.1a1.571,1.571,0,0,1,.11-.151q.206-.288.426-.563c.064-.087.133-.169.2-.247a.8.8,0,0,1,.078-.1h-.009c.128-.2.256-.4.385-.6m9.913-17.234c-.128-.43-1.355-.742-2.088-.746q-2.72-.014-5.439.018c-.22,0-.44,0-.664.009h-.023c-.018,1.291-.055,2.573-.1,3.855a1.035,1.035,0,0,0,.119,0c.2-.009.4-.018.6-.032,1.552-.073,3.187-.174,5-.266a49.869,49.869,0,0,0-3.3,4.107c-.577.9-1.163,1.8-1.74,2.71-.192.293-.38.591-.568.888-.151.243-.307.485-.458.728-.069,1.433-.137,2.862-.206,4.3.224-.343.444-.687.664-1.03.192-.311.389-.618.586-.925,1.058-1.662,2.1-3.283,3.173-4.89,1.342-2.01,2.921-3.869,4.176-5.929a3.817,3.817,0,0,0,.256-2.793m0,0c-.128-.43-1.355-.742-2.088-.746q-2.72-.014-5.439.018c-.22,0-.44,0-.664.009h-.023c-.018,1.291-.055,2.573-.1,3.855a1.035,1.035,0,0,0,.119,0c.2-.009.4-.018.6-.032,1.552-.073,3.187-.174,5-.266a49.869,49.869,0,0,0-3.3,4.107c-.577.9-1.163,1.8-1.74,2.71-.192.293-.38.591-.568.888-.151.243-.307.485-.458.728-.069,1.433-.137,2.862-.206,4.3.224-.343.444-.687.664-1.03.192-.311.389-.618.586-.925,1.058-1.662,2.1-3.283,3.173-4.89,1.342-2.01,2.921-3.869,4.176-5.929a3.817,3.817,0,0,0,.256-2.793m-10.27,17.124c-1.442,1.9-3.645,3.878-4.656,5.677a5.228,5.228,0,0,0,1.506-.984c.037-.078.073-.16.11-.243.023.023.046.05.069.073.06-.06.119-.119.179-.183.087-.087.169-.183.252-.275.124-.142.243-.284.357-.43.055-.069.11-.137.16-.206q.213-.282.412-.563c.261-.366.513-.737.778-1.1a1.571,1.571,0,0,1,.11-.151q.206-.288.426-.563c.064-.087.133-.169.2-.247a.8.8,0,0,1,.078-.1h-.009c.128-.2.256-.4.385-.6-.087-.1-.192-.105-.357-.11m-1.836.49c.774-.948,1.992-2.2,1.689-2.962-.238.27-.481.536-.723.8a.063.063,0,0,1-.014.018c-.32.586-.632,1.172-.939,1.767a3.406,3.406,0,0,1-2.706,2.033.638.638,0,0,0-.156.527c1.062.353,2.069-1.236,2.848-2.179m1.337,7.564c-.037.027-.073.06-.11.087a.647.647,0,0,0-.11.092c-.069.05-.137.11-.206.169-.119.1-.233.211-.348.325-.1.1-.2.192-.293.293-.243.256-.476.527-.7.806-.105.133-.211.266-.311.4,0,.009-.014.018-.018.027-.05.1-.105.2-.16.3a1,1,0,0,1-.243.279,0,0,0,0,0,0,0A16.714,16.714,0,0,0,126.808,95a26.536,26.536,0,0,0,4.308-5.874s0-.009,0-.014c.027-.06.05-.119.073-.174-.073.05-.151.105-.224.165Zm-.124-4.739a6.7,6.7,0,0,1-.444.664l.142.522c.215-.339.421-.668.618-.966,0-.105-.1-.215-.316-.22m.252,2.688a.219.219,0,0,1-.169-.092c-.092.215-.183.426-.275.636.142-.192.293-.375.444-.545m-1.1-19.907c.3-.421.6-.838.907-1.25a8.634,8.634,0,0,0-1.708,1.2c.266.023.536.041.8.05m-.339,19.674a1.341,1.341,0,0,0,.169-.192.861.861,0,0,0,.073-.105,6.024,6.024,0,0,0,.5-1.493,12.019,12.019,0,0,1-1.177,1.323c.142.156.284.307.43.467m-2.193-20.091a5.177,5.177,0,0,0,.76.215,24.4,24.4,0,0,0,2.408-3.1c-1.383.444-2.262,1.818-3.168,2.884m2.024-3.429c-.307,0-.609.018-.911.027a7.063,7.063,0,0,0-2,2.77,1.9,1.9,0,0,0,.179.238,14.676,14.676,0,0,0,2.733-3.036m-3.6,1.369c0-.064,0-.133,0-.2.165-.16.334-.316.5-.472a6.522,6.522,0,0,1-.641.407c.046.082.092.169.133.261m32.933,9.285,0,0a73.056,73.056,0,0,0-.133-9.313c-.911-10.75-1.74-21.5-1.287-32.329.3-7.138.261-14.308.027-21.455-.128-4.029-2.917-9.336-9.047-9.262-2.152.023-4.313-.375-6.465-.343-4.18.064-8.36.421-12.545.44q-17.678.055-35.355-.078C77.813,1.5,61.618,1.383,45.429,1.122,35.768.966,26.1.733,16.456.142c-3.832-.234-7.463-.4-10.952,1.4C3.517,2.569,1.951,4.011,1.649,6.3a90.818,90.818,0,0,0-.87,9.51C.431,30.278-.018,44.741,0,59.205c.009,8.722.65,17.453,1.314,26.153.4,5.279,2.752,9.6,8.356,10.938,2.134.508,4.473.151,6.721.156,13.63.009,27.256-.055,40.886.018,24.756.133,49.517.348,74.273.513,4.025.027,8.054.027,12.083-.037,1.474-.018,3.013-.6,4.4-.316a7.61,7.61,0,0,0,7.518-2.1c3.022-3.21,4.079-16.309,3.269-20.567M4.158,81.4c2.472,2.7-.362,4.295-.44,6.218-1.4-2.019-.1-3.819.44-6.218m1.955,2.482c2.527.458,2.253.165-.581,6.909-2.193-2.788.4-4.7.581-6.909m3.512,8.814c-.124-.353-.44-.778-.339-1.048.449-1.19,1.081-2.317,1.515-3.512a7.652,7.652,0,0,0,.206-1.882.028.028,0,0,1-.018,0c-.8,1.515-1.548,3.049-2.422,4.51-.266.449-.884.682-1.337,1.012a4.622,4.622,0,0,1-.188-1.731c.481-1.644,1.117-3.237,1.85-5.293.824.591,1.461,1.048,2.1,1.5a.115.115,0,0,0,.018-.032v.027c.641-.092,1.282-.188,2.221-.334-.925,2.317-1.7,4.336-2.559,6.314-.11.256-.687.311-1.044.462m2.248.54c-.105-.229-.206-.458-.311-.687A36.6,36.6,0,0,1,13.832,87.4c.417-.673,1.712-.8,2.61-1.177.147.206.293.412.435.618a61.315,61.315,0,0,1-2.669,5.847c-.27.472-1.529.38-2.335.549m3.635.517c.4-4.006,2.253-6.726,4.4-6.721-.783,1.877-1.41,3.649-2.271,5.3-.293.559-1.177.81-2.124,1.419m3.008-.366c1.676-5.737,2.308-6.529,5.238-6.341-2.129,1.831-1.209,5.691-5.238,6.341m3.461-.751c1.493-2.088,1.149-5.284,4.464-6.222-.508,3.91-2.363,6.625-4.464,6.222m3.677.641c-.137-.229-.27-.453-.407-.682.714-1.8,1.126-3.837,2.257-5.32.641-.838,2.463-.769,4.295-1.255-1.035,2.523-1.561,4.6-2.706,6.263-.522.76-2.253.687-3.438.994m4.858.224-.458-.623a35.9,35.9,0,0,1,2.587-6.131c.476-.742,2.234-.668,3.956-1.108a49.916,49.916,0,0,1-2.944,6.845c-.44.714-2.056.7-3.141,1.016m4.464.165c-.133-.2-.266-.389-.4-.586.847-2.06,1.63-4.153,2.6-6.154.2-.417,1.053-.6,1.639-.719a18.322,18.322,0,0,1,2.358-.174,42.329,42.329,0,0,1-2.83,6.369c-.513.81-2.207.865-3.365,1.264m4.185.142c1.969-6.534,3.21-8.3,5.357-8.008a70.6,70.6,0,0,1-2.537,6.721c-.311.632-1.635.774-2.82,1.287m4.057-.27L42.7,93.04c.861-2.074,1.694-4.162,2.619-6.209.169-.371.7-.577,1.067-.861.078.5.353,1.071.206,1.5a49.433,49.433,0,0,1-2,5.023c-.22.462-.9.7-1.369,1.044m2.646.092c-.156-.183-.316-.362-.472-.545a47.03,47.03,0,0,1,2.445-5.751c.371-.65,1.7-.76,2.591-1.113l.33.549c-.865,1.918-1.616,3.905-2.665,5.723-.353.6-1.465.769-2.23,1.135m3.754.014c-.293-3.791,2.431-7.349,5.1-6.817a52.636,52.636,0,0,1-2.527,5.8c-.348.6-1.63.673-2.569,1.021m3.489-.49c1.662-2.683,1.168-6.666,5.609-6.9-3.654,6.95-3.654,6.95-5.609,6.9m2.93.485c1.534-3.054,2.743-5.448,4-7.962H62.36c-1.145,2.445-2.143,4.83-3.4,7.069-.288.5-1.5.49-2.921.893m4.249.243c.375-4.322,3.109-8.264,5.261-8.072-.925,2.239-1.671,4.382-2.71,6.373-.357.687-1.447.994-2.55,1.7m3.553-.169c.678-5.1,2.926-8.182,5.229-7.683-.939,2.037-1.79,4.116-2.871,6.071-.353.632-1.314.925-2.358,1.612m3.567-.407c.87-4.977,2.857-7.674,5.169-7.257-.971,2.193-1.859,4.4-2.962,6.5-.229.44-1.259.458-2.207.76m5.792-.449c-.641.037-1.433.082-2.674.156,1.1-2.381,1.96-4.505,3.086-6.479.27-.476,1.429-.449,2.179-.655.064.261.128.522.188.783-.632,1.277-1.291,2.546-1.9,3.841-.316.678-.531,1.4-.884,2.353m1.451.4c.893-5.242,2.884-7.637,6.089-7.367a59.31,59.31,0,0,1-3.15,6.176c-.435.668-1.767.751-2.939,1.19m4.464-.3c-.11-.192-.215-.389-.325-.586,1.85-2.028,1.255-5.8,5.1-6.451-.916,2.184-1.758,4.409-2.825,6.524-.2.4-1.277.353-1.95.513m3.178.375c.888-5.274,2.752-7.806,5.119-7.417-.957,2.019-1.836,4.084-2.926,6.03-.32.572-1.241.81-2.193,1.387m3.429-.2c-.119-.229-.238-.453-.357-.682,1.635-2.427,1.447-6.328,5.961-7.065-1.2,2.518-2.092,4.679-3.274,6.666-.362.609-1.529.733-2.33,1.081m3.736,0c-.1-.233-.2-.472-.3-.71,1.007-2.111,2.01-4.221,3.072-6.46.705.266,1.291.485,1.886.705a54.443,54.443,0,0,1-2.527,5.178c-.38.632-1.4.87-2.129,1.287m3.164.032c.522-4.359,2.729-6.863,5.545-6.456a42.379,42.379,0,0,1-2.7,5.462c-.421.636-1.772.65-2.843.994m4.121-.453c2.129-5.613,2.431-6.016,4.478-6.089-.536,3.535-2.413,6.186-4.478,6.089m3.892.385c-.188-.179-.38-.357-.572-.536.994-2.134,1.863-4.34,3.054-6.36.343-.577,1.612-.609,2.729-.984-1.245,2.555-2.225,4.739-3.393,6.822-.293.527-1.2.714-1.818,1.058m2.949-.156c1.03-4.409,3.384-7.431,5.842-7.362-1.232,2.33-2.326,4.592-3.631,6.717-.275.449-1.337.412-2.211.646m3.329.147c1.332-2.807,2.321-4.894,3.351-7.065.577.22,1.117.426,1.763.668-.961,1.9-1.831,3.8-2.875,5.59-.234.394-1.094.417-2.239.806m3.672-.156c.833-4.226,2.665-6.456,5.6-6.195-2.454,1.9-2.074,5.531-5.6,6.195m3.919.124c-.179-.256-.362-.513-.545-.769,1.442-2.019,1.657-5,5.064-6.108a40.7,40.7,0,0,1-2.056,5.613c-.357.668-1.612.856-2.463,1.264m3.612.1c.389-4.789,1.717-6.382,5.38-6.923a45.676,45.676,0,0,1-2.591,5.233c-.472.728-1.625,1.016-2.788,1.689M130.9,95.408a1.551,1.551,0,0,0-.018-.3c-.046.1-.1.2-.147.3h-1.731a8.431,8.431,0,0,0,1.351-2.775c-.046.009-.087.018-.133.032h0c-.737.939-1.543,1.763-2.221,2.743h-2.166c-.032-.852-.05-1.744-.06-2.665-.087-.119-.174-.238-.266-.357-.046-.064-.1-.133-.147-.2.05-.105.1-.215.147-.32.087-.183.169-.371.256-.559,0-.8,0-1.625,0-2.468-.082.179-.169.362-.256.54-.2.417-.4.824-.609,1.232-.133.261-.27.522-.407.783-.362.668-1.337,1-2.395,1.74a15.014,15.014,0,0,1,2.743-6.708,8.12,8.12,0,0,1,.668-.778c.1-.1.192-.192.288-.279.009-.705.018-1.419.027-2.134-.105,0-.211-.014-.316-.023-.137-.009-.27-.023-.408-.037a2.538,2.538,0,0,1-.279-.046c-1.428-.307-1.616-1.735-1.612-3.21a41.678,41.678,0,0,0-.5-6.8,2.656,2.656,0,0,0-1.845-1.644,27.83,27.83,0,0,0-5.242-.06c-1.277.069-2.788.142-2.8,1.95-.014,1.941,1.589,1.987,2.935,2.056,1.813.1,3.631.023,5.622.023.156,2.5.3,4.8.458,7.271H111.3V67.272c.8,0,1.387-.032,1.973,0,1.7.1,1.941-.989,1.667-2.234-.5-2.225-2.395-1.639-3.906-1.749-1.456-.105-1.831.838-1.809,2.042.078,4.551.156,9.1.284,13.653.041,1.58.22,3.155.348,4.949H104.9c0-2.674-.055-5.389.018-8.1.087-3.351-.444-3.732-3.709-3.342a61.459,61.459,0,0,1-7.019.05V67.4h10.517c.6-3.535.321-3.832-2.921-3.6-2.124.151-4.267.078-6.382.32A15.473,15.473,0,0,0,92.3,65c.183,3.837.339,7.051.5,10.453,2.958,0,5.709.018,8.466-.009,1.314-.014,1.909.444,1.882,1.882-.037,2.111.156,4.226.234,5.861a8.268,8.268,0,0,0-2.5-.783c-2.344.014-4.693.261-7.037.421a1.375,1.375,0,0,0-.673.105c-4.913,3.544-10.457.609-15.833,2.015-.234-5.091-.449-9.72-.664-14.349-.279-.023-.559-.041-.838-.064-.27,1.085-.536,2.17-.852,3.452-3.31.165-6.712.339-10.4.527-.151-2.866-.3-5.806-.458-8.75-.385.018-.769.032-1.149.046,0,3.374-.092,6.753.1,10.119.027.5,1.337,1.287,2.079,1.319,3.251.147,6.511.064,9.94.064v7.037H60.684c-.174-3.049-.27-5.833-.513-8.6-.247-2.852-.494-2.985-3.342-2.61a11.246,11.246,0,0,1-1.222,0c0-2.088-.05-4.107.018-6.122.041-1.255-.426-1.827-1.694-1.813-2.477.027-4.949.009-7.394.009-.147,2.756-.147,2.756,7.875,3.594-.082,1.383-.165,2.779-.266,4.5-2.184,0-4.3.014-6.41,0-1.012-.009-2.037.151-1.689,1.424a2.412,2.412,0,0,0,1.625,1.525c3.617.142,7.243.073,11.19.073-.114,2.372-.206,4.286-.293,6.053-4.551.27-8.777-.778-12.765,1.722a3.713,3.713,0,0,1-4.972-.655c-.371-.462-1.52-.472-2.289-.412-2.491.2-4.963.527-7.568.824V78l12.664-.746c0-1.795.05-4.02-.009-6.245-.114-4.556-.142-4.5-4.757-4.656-2.042-.073-4.07-.43-6.1-.659a4.125,4.125,0,0,0-1.57-.151,12.908,12.908,0,0,0-2.134,1.131c.618.641,1.145,1.68,1.868,1.831a28.579,28.579,0,0,0,5.21.407c1.96.055,3.924.009,6.012.009v4.73c-3.695.316-7.431.536-11.126,1.039a2.88,2.88,0,0,0-1.937,1.941C28.859,79.332,29,82.066,29,85l-5.893.494c-1.062-1.548-1.877-2.646-2.582-3.809a2.7,2.7,0,0,1-.156-1.332c0-3.951-.046-7.907.078-11.854.064-2.005-.714-2.962-2.656-2.559a2.944,2.944,0,0,0-1.955,1.493c-.389,1.158.215,2.06,1.653,2.056a12.287,12.287,0,0,1,1.314.124V81.64c-1.392.6-3.777.568-2.862,3.516-4.945.032-9.093-1.085-12.193-5-.417,1.172-.778,2.189-1.135,3.2l-.545-.069c.179-2.472.485-4.94.513-7.413q.151-13.811.142-27.622.007-6.84-.156-13.672c0-.192-.009-.389-.014-.581l-.014-.591c-.064-2.5-.147-5-.229-7.5,0-.105,0-.211-.009-.316-.179-5.307-.353-10.613-.339-15.915A5.878,5.878,0,0,1,4.483,5.27c2.395-1.259,5.265-1.612,7.935-2.353,3.53-.984,6.817.691,10.242.916,5.151.334,10.293,1.195,15.439,1.2,16.373.032,32.746-.394,49.119-.334,12.728.046,25.457.458,38.185.641l.742.014h.11c.147,0,.288,0,.435,0,0,0,0,0,0,0,.316.009.627.009.943.014h0c.435,0,.865.014,1.3.018.362,0,.723,0,1.081.009h0c.385,0,.765.009,1.145.009.348,0,.7,0,1.048.009.586,0,1.177-.014,1.767-.046.243-.014.49-.027.733-.046,3.773-.27,7.555-1.053,11.291-.82,2.656.165,5.311,1.983,7.751,3.429,2.2,1.3,2.289,3.878,2.353,6.122.105,3.59.16,7.179.188,10.773,0,.211,0,.426,0,.641q.007,1.806.009,3.612c0,.188,0,.371,0,.559v.723c0,.183,0,.366,0,.554,0,.563,0,1.122,0,1.685,0,.16,0,.325,0,.485,0,.27,0,.545,0,.815a160.754,160.754,0,0,1-.256,16.281c-.705,7.385-2.092,14.738-6.616,20.965-3.906,5.38-9.34,8.475-15.517,10.357-.133.041-.266.078-.4.119l-.769.22q-.062,1.387-.114,2.788c-.009.311-.009.632,0,.952.238-.513.49-1.012.755-1.506a2.033,2.033,0,0,1,.133-.211,1.757,1.757,0,0,1,.165-.2,16.246,16.246,0,0,1,2.688-1.795c.156.165.311.33.472.49-1.062,2.253-2.088,4.514-3.173,6.749l-.151.316c-.229.462-.458.925-.687,1.383.023.751.037,1.488.018,2.2-.055.568-.266,1.461-.4,2.395Zm2.834-3.123-.192-.055-.041-.014.041-.1c.069-.151.133-.3.2-.458,1.387-3.223,2.656-6.483,4.295-9.555.536-1.007,2.193-1.419,3.736-1.836-.536,1.227-1.094,2.45-1.6,3.69a33.841,33.841,0,0,0-2.193,5.691c-.531,2.527-1.776,3.306-4.24,2.633m4.986.44c-.128-.243-.261-.485-.389-.728,2.312-6.543,3.654-13.644,10.576-17.586-.5,1.236-.961,2.509-1.529,3.727-2.079,4.437-4.139,8.892-6.364,13.255-.339.664-1.506.9-2.294,1.332m3.141-.343q7.239-17.025,14.432-33.927l.288.014A48.49,48.49,0,0,1,155,64.85c-3.635,9.272-7.417,18.488-11.213,27.9-.44-.082-1.158-.22-1.928-.366m4.4.742c-1.52-.1-1.154-1.1-.728-2.17,2.12-5.325,4.244-10.654,6.332-16,1.287-3.292,2.514-6.607,3.768-9.917a16.185,16.185,0,0,1-1.493,11.437c-2.83,5.407-5.242,11.025-7.88,16.648m7.143-.961c1.213-3.438,2.326-6.593,3.434-9.743a71.848,71.848,0,0,0-4.7,8.827c-.847,1.845-2.207,2.271-4.226,1.928,2.683-6.112,5.307-12.083,8.044-18.319.229,1.973.925,6.795,1.108,8.383-.682,3.264.266,6.955-3.658,8.924M134.129,77.547c1.058-1.662,2.1-3.283,3.173-4.89,1.342-2.01,2.921-3.869,4.176-5.929a3.817,3.817,0,0,0,.256-2.793c-.128-.43-1.355-.742-2.088-.746q-2.72-.014-5.439.018c-.22,0-.44,0-.664.009h-.023c-.018,1.291-.055,2.573-.1,3.855a1.035,1.035,0,0,0,.119,0c.2-.009.4-.018.6-.032,1.552-.073,3.187-.174,5-.266a49.869,49.869,0,0,0-3.3,4.107c-.577.9-1.163,1.8-1.74,2.71-.192.293-.38.591-.568.888-.151.243-.307.485-.458.728-.069,1.433-.137,2.862-.206,4.3.224-.343.444-.687.664-1.03.192-.311.389-.618.586-.925m-2.665,3.512c-1.442,1.9-3.645,3.878-4.656,5.677a5.228,5.228,0,0,0,1.506-.984c.037-.078.073-.16.11-.243.023.023.046.05.069.073.06-.06.119-.119.179-.183.087-.087.169-.183.252-.275.124-.142.243-.284.357-.43.055-.069.11-.137.16-.206q.213-.282.412-.563c.261-.366.513-.737.778-1.1a1.571,1.571,0,0,1,.11-.151q.206-.288.426-.563c.064-.087.133-.169.2-.247a.8.8,0,0,1,.078-.1h-.009c.128-.2.256-.4.385-.6-.087-.1-.192-.105-.357-.11m-1.836.49c.774-.948,1.992-2.2,1.689-2.962-.238.27-.481.536-.723.8a.063.063,0,0,1-.014.018c-.32.586-.632,1.172-.939,1.767a3.406,3.406,0,0,1-2.706,2.033.638.638,0,0,0-.156.527c1.062.353,2.069-1.236,2.848-2.179m1.337,7.564c-.037.027-.073.06-.11.087a.647.647,0,0,0-.11.092c-.069.05-.137.11-.206.169-.119.1-.233.211-.348.325-.1.1-.2.192-.293.293-.243.256-.476.527-.7.806-.105.133-.211.266-.311.4,0,.009-.014.018-.018.027-.05.1-.105.2-.16.3a1,1,0,0,1-.243.279,0,0,0,0,0,0,0A16.714,16.714,0,0,0,126.808,95a26.536,26.536,0,0,0,4.308-5.874s0-.009,0-.014c.027-.06.05-.119.073-.174-.073.05-.151.105-.224.165Zm-.124-4.739a6.7,6.7,0,0,1-.444.664l.142.522c.215-.339.421-.668.618-.966,0-.105-.1-.215-.316-.22m.252,2.688a.219.219,0,0,1-.169-.092c-.092.215-.183.426-.275.636.142-.192.293-.375.444-.545m-1.1-19.907c.3-.421.6-.838.907-1.25a8.634,8.634,0,0,0-1.708,1.2c.266.023.536.041.8.05m-.339,19.674a1.341,1.341,0,0,0,.169-.192.861.861,0,0,0,.073-.105,6.024,6.024,0,0,0,.5-1.493,12.019,12.019,0,0,1-1.177,1.323c.142.156.284.307.43.467m-2.193-20.091a5.177,5.177,0,0,0,.76.215,24.4,24.4,0,0,0,2.408-3.1c-1.383.444-2.262,1.818-3.168,2.884m2.024-3.429c-.307,0-.609.018-.911.027a7.063,7.063,0,0,0-2,2.77,1.9,1.9,0,0,0,.179.238,14.676,14.676,0,0,0,2.733-3.036m-3.6,1.369c0-.064,0-.133,0-.2.165-.16.334-.316.5-.472a6.522,6.522,0,0,1-.641.407c.046.082.092.169.133.261m-.133-.261c.046.082.092.169.133.261,0-.064,0-.133,0-.2.165-.16.334-.316.5-.472a6.522,6.522,0,0,1-.641.407m2.82-1.081a7.063,7.063,0,0,0-2,2.77,1.9,1.9,0,0,0,.179.238,14.676,14.676,0,0,0,2.733-3.036c-.307,0-.609.018-.911.027m-1.113,3.4a5.177,5.177,0,0,0,.76.215,24.4,24.4,0,0,0,2.408-3.1c-1.383.444-2.262,1.818-3.168,2.884M129.22,86.36c.142.156.284.307.43.467a1.341,1.341,0,0,0,.169-.192.861.861,0,0,0,.073-.105,6.024,6.024,0,0,0,.5-1.493,12.019,12.019,0,0,1-1.177,1.323M129.188,67.1c.266.023.536.041.8.05.3-.421.6-.838.907-1.25a8.634,8.634,0,0,0-1.708,1.2m1.735,19.866c-.092.215-.183.426-.275.636.142-.192.293-.375.444-.545a.219.219,0,0,1-.169-.092m-.082-2.6a6.7,6.7,0,0,1-.444.664l.142.522c.215-.339.421-.668.618-.966,0-.105-.1-.215-.316-.22m.128,4.734,0,0c-.037.027-.073.06-.11.087a.647.647,0,0,0-.11.092c-.069.05-.137.11-.206.169-.119.1-.233.211-.348.325-.1.1-.2.192-.293.293-.243.256-.476.527-.7.806-.105.133-.211.266-.311.4,0,.009-.014.018-.018.027-.05.1-.105.2-.16.3a1,1,0,0,1-.243.279,0,0,0,0,0,0,0A16.714,16.714,0,0,0,126.808,95a26.536,26.536,0,0,0,4.308-5.874s0-.009,0-.014c.027-.06.05-.119.073-.174-.073.05-.151.105-.224.165m.348-10.521c-.238.27-.481.536-.723.8a.063.063,0,0,1-.014.018c-.32.586-.632,1.172-.939,1.767a3.406,3.406,0,0,1-2.706,2.033.638.638,0,0,0-.156.527c1.062.353,2.069-1.236,2.848-2.179s1.992-2.2,1.689-2.962m.5,2.582c-.087-.1-.192-.105-.357-.11-1.442,1.9-3.645,3.878-4.656,5.677a5.228,5.228,0,0,0,1.506-.984c.037-.078.073-.16.11-.243.023.023.046.05.069.073.06-.06.119-.119.179-.183.087-.087.169-.183.252-.275.124-.142.243-.284.357-.43.055-.069.11-.137.16-.206q.213-.282.412-.563c.261-.366.513-.737.778-1.1a1.571,1.571,0,0,1,.11-.151q.206-.288.426-.563c.064-.087.133-.169.2-.247a.8.8,0,0,1,.078-.1h-.009c.128-.2.256-.4.385-.6m9.913-17.234c-.128-.43-1.355-.742-2.088-.746q-2.72-.014-5.439.018c-.22,0-.44,0-.664.009h-.023c-.018,1.291-.055,2.573-.1,3.855a1.035,1.035,0,0,0,.119,0c.2-.009.4-.018.6-.032,1.552-.073,3.187-.174,5-.266a49.869,49.869,0,0,0-3.3,4.107c-.577.9-1.163,1.8-1.74,2.71-.192.293-.38.591-.568.888-.151.243-.307.485-.458.728-.069,1.433-.137,2.862-.206,4.3.224-.343.444-.687.664-1.03.192-.311.389-.618.586-.925,1.058-1.662,2.1-3.283,3.173-4.89,1.342-2.01,2.921-3.869,4.176-5.929a3.817,3.817,0,0,0,.256-2.793m0,0c-.128-.43-1.355-.742-2.088-.746q-2.72-.014-5.439.018c-.22,0-.44,0-.664.009h-.023c-.018,1.291-.055,2.573-.1,3.855a1.035,1.035,0,0,0,.119,0c.2-.009.4-.018.6-.032,1.552-.073,3.187-.174,5-.266a49.869,49.869,0,0,0-3.3,4.107c-.577.9-1.163,1.8-1.74,2.71-.192.293-.38.591-.568.888-.151.243-.307.485-.458.728-.069,1.433-.137,2.862-.206,4.3.224-.343.444-.687.664-1.03.192-.311.389-.618.586-.925,1.058-1.662,2.1-3.283,3.173-4.89,1.342-2.01,2.921-3.869,4.176-5.929a3.817,3.817,0,0,0,.256-2.793m-9.913,17.234c-.087-.1-.192-.105-.357-.11-1.442,1.9-3.645,3.878-4.656,5.677a5.228,5.228,0,0,0,1.506-.984c.037-.078.073-.16.11-.243.023.023.046.05.069.073.06-.06.119-.119.179-.183.087-.087.169-.183.252-.275.124-.142.243-.284.357-.43.055-.069.11-.137.16-.206q.213-.282.412-.563c.261-.366.513-.737.778-1.1a1.571,1.571,0,0,1,.11-.151q.206-.288.426-.563c.064-.087.133-.169.2-.247a.8.8,0,0,1,.078-.1h-.009c.128-.2.256-.4.385-.6m-.5-2.582c-.238.27-.481.536-.723.8a.063.063,0,0,1-.014.018c-.32.586-.632,1.172-.939,1.767a3.406,3.406,0,0,1-2.706,2.033.638.638,0,0,0-.156.527c1.062.353,2.069-1.236,2.848-2.179s1.992-2.2,1.689-2.962m-.348,10.521,0,0c-.037.027-.073.06-.11.087a.647.647,0,0,0-.11.092c-.069.05-.137.11-.206.169-.119.1-.233.211-.348.325-.1.1-.2.192-.293.293-.243.256-.476.527-.7.806-.105.133-.211.266-.311.4,0,.009-.014.018-.018.027-.05.1-.105.2-.16.3a1,1,0,0,1-.243.279,0,0,0,0,0,0,0A16.714,16.714,0,0,0,126.808,95a26.536,26.536,0,0,0,4.308-5.874s0-.009,0-.014c.027-.06.05-.119.073-.174-.073.05-.151.105-.224.165m-.128-4.734a6.7,6.7,0,0,1-.444.664l.142.522c.215-.339.421-.668.618-.966,0-.105-.1-.215-.316-.22m.082,2.6c-.092.215-.183.426-.275.636.142-.192.293-.375.444-.545a.219.219,0,0,1-.169-.092M129.188,67.1c.266.023.536.041.8.05.3-.421.6-.838.907-1.25a8.634,8.634,0,0,0-1.708,1.2m.032,19.257c.142.156.284.307.43.467a1.341,1.341,0,0,0,.169-.192.861.861,0,0,0,.073-.105,6.024,6.024,0,0,0,.5-1.493,12.019,12.019,0,0,1-1.177,1.323m-1.763-19.624a5.177,5.177,0,0,0,.76.215,24.4,24.4,0,0,0,2.408-3.1c-1.383.444-2.262,1.818-3.168,2.884m1.113-3.4a7.063,7.063,0,0,0-2,2.77,1.9,1.9,0,0,0,.179.238,14.676,14.676,0,0,0,2.733-3.036c-.307,0-.609.018-.911.027m-2.82,1.081c.046.082.092.169.133.261,0-.064,0-.133,0-.2.165-.16.334-.316.5-.472a6.522,6.522,0,0,1-.641.407m0,0c.046.082.092.169.133.261,0-.064,0-.133,0-.2.165-.16.334-.316.5-.472a6.522,6.522,0,0,1-.641.407m2.82-1.081a7.063,7.063,0,0,0-2,2.77,1.9,1.9,0,0,0,.179.238,14.676,14.676,0,0,0,2.733-3.036c-.307,0-.609.018-.911.027m-1.113,3.4a5.177,5.177,0,0,0,.76.215,24.4,24.4,0,0,0,2.408-3.1c-1.383.444-2.262,1.818-3.168,2.884M129.22,86.36c.142.156.284.307.43.467a1.341,1.341,0,0,0,.169-.192.861.861,0,0,0,.073-.105,6.024,6.024,0,0,0,.5-1.493,12.019,12.019,0,0,1-1.177,1.323M129.188,67.1c.266.023.536.041.8.05.3-.421.6-.838.907-1.25a8.634,8.634,0,0,0-1.708,1.2m1.735,19.866c-.092.215-.183.426-.275.636.142-.192.293-.375.444-.545a.219.219,0,0,1-.169-.092m-.082-2.6a6.7,6.7,0,0,1-.444.664l.142.522c.215-.339.421-.668.618-.966,0-.105-.1-.215-.316-.22m.128,4.734,0,0c-.037.027-.073.06-.11.087a.647.647,0,0,0-.11.092c-.069.05-.137.11-.206.169-.119.1-.233.211-.348.325-.1.1-.2.192-.293.293-.243.256-.476.527-.7.806-.105.133-.211.266-.311.4,0,.009-.014.018-.018.027-.05.1-.105.2-.16.3a1,1,0,0,1-.243.279,0,0,0,0,0,0,0A16.714,16.714,0,0,0,126.808,95a26.536,26.536,0,0,0,4.308-5.874s0-.009,0-.014c.027-.06.05-.119.073-.174-.073.05-.151.105-.224.165m10.764-25.173c-.128-.43-1.355-.742-2.088-.746q-2.72-.014-5.439.018c-.22,0-.44,0-.664.009h-.023c-.018,1.291-.055,2.573-.1,3.855a1.035,1.035,0,0,0,.119,0c.2-.009.4-.018.6-.032,1.552-.073,3.187-.174,5-.266a49.869,49.869,0,0,0-3.3,4.107c-.577.9-1.163,1.8-1.74,2.71-.192.293-.38.591-.568.888v4c.192-.311.389-.618.586-.925,1.058-1.662,2.1-3.283,3.173-4.89,1.342-2.01,2.921-3.869,4.176-5.929a3.817,3.817,0,0,0,.256-2.793M130.969,89.108l0,0c-.037.027-.073.06-.11.087a.647.647,0,0,0-.11.092c-.069.05-.137.11-.206.169-.119.1-.233.211-.348.325-.1.1-.2.192-.293.293-.243.256-.476.527-.7.806-.105.133-.211.266-.311.4,0,.009-.014.018-.018.027-.05.1-.105.2-.16.3a1,1,0,0,1-.243.279,0,0,0,0,0,0,0A16.714,16.714,0,0,0,126.808,95a26.536,26.536,0,0,0,4.308-5.874s0-.009,0-.014c.027-.06.05-.119.073-.174-.073.05-.151.105-.224.165m-.128-4.734a6.7,6.7,0,0,1-.444.664l.142.522c.215-.339.421-.668.618-.966,0-.105-.1-.215-.316-.22m.082,2.6c-.092.215-.183.426-.275.636.142-.192.293-.375.444-.545a.219.219,0,0,1-.169-.092M129.188,67.1c.266.023.536.041.8.05.3-.421.6-.838.907-1.25a8.634,8.634,0,0,0-1.708,1.2m.032,19.257c.142.156.284.307.43.467a1.341,1.341,0,0,0,.169-.192.861.861,0,0,0,.073-.105,6.024,6.024,0,0,0,.5-1.493,12.019,12.019,0,0,1-1.177,1.323m-1.763-19.624a5.177,5.177,0,0,0,.76.215,24.4,24.4,0,0,0,2.408-3.1c-1.383.444-2.262,1.818-3.168,2.884m-1.708-2.321c.046.082.092.169.133.261,0-.064,0-.133,0-.2.165-.16.334-.316.5-.472a6.522,6.522,0,0,1-.641.407m2.82-1.081a7.063,7.063,0,0,0-2,2.77,1.9,1.9,0,0,0,.179.238,14.676,14.676,0,0,0,2.733-3.036c-.307,0-.609.018-.911.027m-2.82,1.081c.046.082.092.169.133.261,0-.064,0-.133,0-.2.165-.16.334-.316.5-.472a6.522,6.522,0,0,1-.641.407m2.82-1.081a7.063,7.063,0,0,0-2,2.77,1.9,1.9,0,0,0,.179.238,14.676,14.676,0,0,0,2.733-3.036c-.307,0-.609.018-.911.027m-1.113,3.4a5.177,5.177,0,0,0,.76.215,24.4,24.4,0,0,0,2.408-3.1c-1.383.444-2.262,1.818-3.168,2.884M129.22,86.36c.142.156.284.307.43.467a1.341,1.341,0,0,0,.169-.192.861.861,0,0,0,.073-.105,6.024,6.024,0,0,0,.5-1.493,12.019,12.019,0,0,1-1.177,1.323M129.188,67.1c.266.023.536.041.8.05.3-.421.6-.838.907-1.25a8.634,8.634,0,0,0-1.708,1.2m1.735,19.866c-.092.215-.183.426-.275.636.142-.192.293-.375.444-.545a.219.219,0,0,1-.169-.092m-.082-2.6a6.7,6.7,0,0,1-.444.664l.142.522c.215-.339.421-.668.618-.966,0-.105-.1-.215-.316-.22m.128,4.734,0,0c-.037.027-.073.06-.11.087a.647.647,0,0,0-.11.092c-.069.05-.137.11-.206.169-.119.1-.233.211-.348.325-.1.1-.2.192-.293.293-.243.256-.476.527-.7.806-.105.133-.211.266-.311.4,0,.009-.014.018-.018.027-.05.1-.105.2-.16.3a1,1,0,0,1-.243.279,0,0,0,0,0,0,0A16.714,16.714,0,0,0,126.808,95a26.536,26.536,0,0,0,4.308-5.874s0-.009,0-.014c.027-.06.05-.119.073-.174-.073.05-.151.105-.224.165m10.764-25.173c-.128-.43-1.355-.742-2.088-.746q-2.72-.014-5.439.018c-.22,0-.44,0-.664.009h-.023c-.018,1.291-.055,2.573-.1,3.855a1.035,1.035,0,0,0,.119,0c.2-.009.4-.018.6-.032,1.552-.073,3.187-.174,5-.266a49.869,49.869,0,0,0-3.3,4.107c-.577.9-1.163,1.8-1.74,2.71-.192.293-.38.591-.568.888v4c.192-.311.389-.618.586-.925,1.058-1.662,2.1-3.283,3.173-4.89,1.342-2.01,2.921-3.869,4.176-5.929a3.817,3.817,0,0,0,.256-2.793M130.969,89.108l0,0c-.037.027-.073.06-.11.087a.647.647,0,0,0-.11.092c-.069.05-.137.11-.206.169-.119.1-.233.211-.348.325-.1.1-.2.192-.293.293-.243.256-.476.527-.7.806-.105.133-.211.266-.311.4,0,.009-.014.018-.018.027-.05.1-.105.2-.16.3a1,1,0,0,1-.243.279,0,0,0,0,0,0,0A16.714,16.714,0,0,0,126.808,95a26.536,26.536,0,0,0,4.308-5.874s0-.009,0-.014c.027-.06.05-.119.073-.174-.073.05-.151.105-.224.165m-.128-4.734a6.7,6.7,0,0,1-.444.664l.142.522c.215-.339.421-.668.618-.966,0-.105-.1-.215-.316-.22m.082,2.6c-.092.215-.183.426-.275.636.142-.192.293-.375.444-.545a.219.219,0,0,1-.169-.092M129.188,67.1c.266.023.536.041.8.05.3-.421.6-.838.907-1.25a8.634,8.634,0,0,0-1.708,1.2m.032,19.257c.142.156.284.307.43.467a1.341,1.341,0,0,0,.169-.192.861.861,0,0,0,.073-.105,6.024,6.024,0,0,0,.5-1.493,12.019,12.019,0,0,1-1.177,1.323m-1.763-19.624a5.177,5.177,0,0,0,.76.215,24.4,24.4,0,0,0,2.408-3.1c-1.383.444-2.262,1.818-3.168,2.884m-1.708-2.321c.046.082.092.169.133.261,0-.064,0-.133,0-.2.165-.16.334-.316.5-.472a6.522,6.522,0,0,1-.641.407m2.82-1.081a7.063,7.063,0,0,0-2,2.77,1.9,1.9,0,0,0,.179.238,14.676,14.676,0,0,0,2.733-3.036c-.307,0-.609.018-.911.027m-2.82,1.081c.046.082.092.169.133.261,0-.064,0-.133,0-.2.165-.16.334-.316.5-.472a6.522,6.522,0,0,1-.641.407m2.82-1.081a7.063,7.063,0,0,0-2,2.77,1.9,1.9,0,0,0,.179.238,14.676,14.676,0,0,0,2.733-3.036c-.307,0-.609.018-.911.027m-1.113,3.4a5.177,5.177,0,0,0,.76.215,24.4,24.4,0,0,0,2.408-3.1c-1.383.444-2.262,1.818-3.168,2.884m1.731.366c.266.023.536.041.8.05.3-.421.6-.838.907-1.25a8.634,8.634,0,0,0-1.708,1.2m12.545-3.168c-.128-.43-1.355-.742-2.088-.746q-2.72-.014-5.439.018c-.22,0-.44,0-.664.009h-.023c-.018,1.291-.055,2.573-.1,3.855a1.035,1.035,0,0,0,.119,0c.2-.009.4-.018.6-.032,1.552-.073,3.187-.174,5-.266a49.869,49.869,0,0,0-3.3,4.107c-.577.9-1.163,1.8-1.74,2.71-.192.293-.38.591-.568.888v4c.192-.311.389-.618.586-.925,1.058-1.662,2.1-3.283,3.173-4.89,1.342-2.01,2.921-3.869,4.176-5.929a3.817,3.817,0,0,0,.256-2.793M129.188,67.1c.266.023.536.041.8.05.3-.421.6-.838.907-1.25a8.634,8.634,0,0,0-1.708,1.2m-1.731-.366a5.177,5.177,0,0,0,.76.215,24.4,24.4,0,0,0,2.408-3.1c-1.383.444-2.262,1.818-3.168,2.884m-1.708-2.321c.046.082.092.169.133.261,0-.064,0-.133,0-.2.165-.16.334-.316.5-.472a6.522,6.522,0,0,1-.641.407m2.82-1.081a7.063,7.063,0,0,0-2,2.77,1.9,1.9,0,0,0,.179.238,14.676,14.676,0,0,0,2.733-3.036c-.307,0-.609.018-.911.027m-2.82,1.081c.046.082.092.169.133.261,0-.064,0-.133,0-.2.165-.16.334-.316.5-.472a6.522,6.522,0,0,1-.641.407m2.82-1.081a7.063,7.063,0,0,0-2,2.77,1.9,1.9,0,0,0,.179.238,14.676,14.676,0,0,0,2.733-3.036c-.307,0-.609.018-.911.027m-1.113,3.4a5.177,5.177,0,0,0,.76.215,24.4,24.4,0,0,0,2.408-3.1c-1.383.444-2.262,1.818-3.168,2.884m1.731.366c.266.023.536.041.8.05.3-.421.6-.838.907-1.25a8.634,8.634,0,0,0-1.708,1.2m12.545-3.168c-.128-.43-1.355-.742-2.088-.746q-2.72-.014-5.439.018c-.22,0-.44,0-.664.009h-.023c-.018,1.291-.055,2.573-.1,3.855a1.035,1.035,0,0,0,.119,0c.2-.009.4-.018.6-.032,1.552-.073,3.187-.174,5-.266a49.869,49.869,0,0,0-3.3,4.107c-.577.9-1.163,1.8-1.74,2.71-.192.293-.38.591-.568.888v4c.192-.311.389-.618.586-.925,1.058-1.662,2.1-3.283,3.173-4.89,1.342-2.01,2.921-3.869,4.176-5.929a3.817,3.817,0,0,0,.256-2.793M129.188,67.1c.266.023.536.041.8.05.3-.421.6-.838.907-1.25a8.634,8.634,0,0,0-1.708,1.2m-1.731-.366a5.177,5.177,0,0,0,.76.215,24.4,24.4,0,0,0,2.408-3.1c-1.383.444-2.262,1.818-3.168,2.884m-1.708-2.321c.046.082.092.169.133.261,0-.064,0-.133,0-.2.165-.16.334-.316.5-.472a6.522,6.522,0,0,1-.641.407m2.82-1.081a7.063,7.063,0,0,0-2,2.77,1.9,1.9,0,0,0,.179.238,14.676,14.676,0,0,0,2.733-3.036c-.307,0-.609.018-.911.027m-2.82,1.081c.046.082.092.169.133.261,0-.064,0-.133,0-.2.165-.16.334-.316.5-.472a6.522,6.522,0,0,1-.641.407m2.82-1.081a7.063,7.063,0,0,0-2,2.77,1.9,1.9,0,0,0,.179.238,14.676,14.676,0,0,0,2.733-3.036c-.307,0-.609.018-.911.027m-1.113,3.4a5.177,5.177,0,0,0,.76.215,24.4,24.4,0,0,0,2.408-3.1c-1.383.444-2.262,1.818-3.168,2.884m1.731.366c.266.023.536.041.8.05.3-.421.6-.838.907-1.25a8.634,8.634,0,0,0-1.708,1.2m12.545-3.168c-.128-.43-1.355-.742-2.088-.746q-2.72-.014-5.439.018c-.22,0-.44,0-.664.009h-.023c-.018,1.291-.055,2.573-.1,3.855a1.035,1.035,0,0,0,.119,0c.2-.009.4-.018.6-.032,1.552-.073,3.187-.174,5-.266a49.869,49.869,0,0,0-3.3,4.107c-.577.9-1.163,1.8-1.74,2.71-.192.293-.38.591-.568.888v4c.192-.311.389-.618.586-.925,1.058-1.662,2.1-3.283,3.173-4.89,1.342-2.01,2.921-3.869,4.176-5.929a3.817,3.817,0,0,0,.256-2.793M129.188,67.1c.266.023.536.041.8.05.3-.421.6-.838.907-1.25a8.634,8.634,0,0,0-1.708,1.2m-1.731-.366a5.177,5.177,0,0,0,.76.215,24.4,24.4,0,0,0,2.408-3.1c-1.383.444-2.262,1.818-3.168,2.884m-1.708-2.321c.046.082.092.169.133.261,0-.064,0-.133,0-.2.165-.16.334-.316.5-.472a6.522,6.522,0,0,1-.641.407m2.82-1.081a7.063,7.063,0,0,0-2,2.77,1.9,1.9,0,0,0,.179.238,14.676,14.676,0,0,0,2.733-3.036c-.307,0-.609.018-.911.027m13.163.6c-.128-.43-1.355-.742-2.088-.746q-2.72-.014-5.439.018c-.22,0-.44,0-.664.009h-.023c-.018,1.291-.055,2.573-.1,3.855a1.035,1.035,0,0,0,.119,0c.2-.009.4-.018.6-.032,1.552-.073,3.187-.174,5-.266a49.869,49.869,0,0,0-3.3,4.107c-.577.9-1.163,1.8-1.74,2.71-.192.293-.38.591-.568.888v4c.192-.311.389-.618.586-.925,1.058-1.662,2.1-3.283,3.173-4.89,1.342-2.01,2.921-3.869,4.176-5.929a3.817,3.817,0,0,0,.256-2.793M129.188,67.1c.266.023.536.041.8.05.3-.421.6-.838.907-1.25a8.634,8.634,0,0,0-1.708,1.2m-1.731-.366a5.177,5.177,0,0,0,.76.215,24.4,24.4,0,0,0,2.408-3.1c-1.383.444-2.262,1.818-3.168,2.884m-1.708-2.321c.046.082.092.169.133.261,0-.064,0-.133,0-.2.165-.16.334-.316.5-.472a6.522,6.522,0,0,1-.641.407m2.82-1.081a7.063,7.063,0,0,0-2,2.77,1.9,1.9,0,0,0,.179.238,14.676,14.676,0,0,0,2.733-3.036c-.307,0-.609.018-.911.027m.65,23.025c.142.156.284.307.43.467a1.341,1.341,0,0,0,.169-.192.861.861,0,0,0,.073-.105,6.024,6.024,0,0,0,.5-1.493,12.019,12.019,0,0,1-1.177,1.323m1.7.609c-.092.215-.183.426-.275.636.142-.192.293-.375.444-.545a.219.219,0,0,1-.169-.092m-.082-2.6a6.7,6.7,0,0,1-.444.664l.142.522c.215-.339.421-.668.618-.966,0-.105-.1-.215-.316-.22" transform="translate(0 0)"/>
        <path id="Path_3111" data-name="Path 3111" d="M278.681,124.462c-.755.838-1.433,2.166-2.482,2.037.481-.682.939-1.383,1.428-2.037Z" transform="translate(-149.74 -67.477)" fill="#fff"/>
        <path id="Path_3112" data-name="Path 3112" d="M281.112,124.462a10.752,10.752,0,0,1-3.873,4.3c.907-1.8,2.459-3.8,3.873-4.3" transform="translate(-150.304 -67.477)" fill="#fff"/>
        <path id="Path_3113" data-name="Path 3113" d="M281.272,155.912c-1.222,1.689-2.688,4.226-4.423,4.931.792-1.479,2.8-4.327,4.423-4.931" transform="translate(-150.093 -84.527)" fill="#fff"/>
        <path id="Path_3114" data-name="Path 3114" d="M276.209,149.084a9.378,9.378,0,0,1,2.724-3.942,8.634,8.634,0,0,1,1.708-1.2c-.307.412-.6.829-.907,1.25a16.415,16.415,0,0,1-3.525,3.892" transform="translate(-149.746 -78.038)" fill="#fff"/>
        <path id="Path_3115" data-name="Path 3115" d="M278.224,163.941a6.308,6.308,0,0,1,2.642-2.4c-1.342,2.005-2.683,4.011-4.647,5.247a6,6,0,0,1,2.005-2.848" transform="translate(-149.751 -87.579)" fill="#fff"/>
        <path id="Path_3116" data-name="Path 3116" d="M276.059,171.63c.037-1.287,1.346-2.221,2.124-3.164a21.885,21.885,0,0,0,2.546-2.944.657.657,0,0,1,.307.655c-1.657,1.781-2.9,4.006-4.977,5.453" transform="translate(-149.664 -89.737)" fill="#fff"/>
        <path id="Path_3117" data-name="Path 3117" d="M277.019,153.481c1.026-2.34,3.1-3.786,4.661-5.787.325-.1.316.119.311.33-1.763,1.676-2.688,4.336-4.972,5.458" transform="translate(-150.185 -80.059)" fill="#fff"/>
        <path id="Path_3118" data-name="Path 3118" d="M279.537,154.445c-.082-.087-.151-.2-.362-.137-1.122,1.9-2.875,3.255-3.9,5.27,1.735-.43,2.752-2.848,3.974-4.482,0,0,0-.009.009-.014.142-.192.293-.375.444-.545a.219.219,0,0,1-.169-.092m-.082-2.6a6.693,6.693,0,0,1-.444.664,12.017,12.017,0,0,1-1.177,1.323,14.68,14.68,0,0,0-2.477,2.843,5.567,5.567,0,0,0,3.077-2.569.863.863,0,0,0,.073-.105c.224-.321.44-.65.646-.971.215-.339.421-.668.618-.966,0-.105-.1-.215-.316-.22m.082,2.6c-.082-.087-.151-.2-.362-.137-1.122,1.9-2.875,3.255-3.9,5.27,1.735-.43,2.752-2.848,3.974-4.482,0,0,0-.009.009-.014.142-.192.293-.375.444-.545a.219.219,0,0,1-.169-.092m-.082-2.6a6.693,6.693,0,0,1-.444.664,12.017,12.017,0,0,1-1.177,1.323,14.68,14.68,0,0,0-2.477,2.843,5.567,5.567,0,0,0,3.077-2.569.863.863,0,0,0,.073-.105c.224-.321.44-.65.646-.971.215-.339.421-.668.618-.966,0-.105-.1-.215-.316-.22m-.618,8.292h0c-.737.939-1.543,1.763-2.221,2.743h1.007a8.432,8.432,0,0,0,1.351-2.775c.023-.073.041-.147.06-.22-.064.087-.128.169-.192.252m.659,2.445c-.046.1-.1.2-.147.3h.165a1.552,1.552,0,0,0-.018-.3m-.618-33.735a11.809,11.809,0,0,1-1.694,1.96,7.063,7.063,0,0,0-2,2.77,2.77,2.77,0,0,0-.092.43c.092-.06.183-.124.27-.192a14.676,14.676,0,0,0,2.733-3.036,16.405,16.405,0,0,1,1.419-1.7c-.32-.009-.316-.224-.636-.233m3.255,1.841c-.018,1.291-.055,2.573-.1,3.855-.082,2.724-.206,5.426-.339,8.131-.069,1.433-.137,2.862-.206,4.3-.037.778-.073,1.561-.105,2.344q-.062,1.387-.114,2.788c-.009.311-.009.632,0,.952.009,1.7.142,3.493.2,5.224.023.751.037,1.488.018,2.2-.055.568-.266,1.461-.4,2.395h1.071V129.061c0,.545-.014,1.085-.023,1.63m-2.056,17.843c-1.442,1.9-3.645,3.878-4.656,5.677a5.228,5.228,0,0,0,1.506-.984c.06-.055.119-.11.179-.169s.119-.119.179-.183c.087-.087.169-.183.252-.275.124-.142.243-.284.357-.43.055-.069.11-.137.16-.206q.213-.282.412-.563c.261-.366.513-.737.778-1.1a1.57,1.57,0,0,1,.11-.151q.206-.288.426-.563c.064-.087.133-.169.2-.247a.8.8,0,0,1,.078-.1h0a6.275,6.275,0,0,1,.44-.485.5.5,0,0,0-.069-.114c-.087-.1-.192-.105-.357-.11m-.147-2.472c-.238.27-.481.536-.723.8a.063.063,0,0,1-.014.018,19.529,19.529,0,0,0-2.482,3.072c-.243.38-.865.417-1.163.728a.638.638,0,0,0-.156.527c1.062.353,2.069-1.236,2.848-2.179s1.992-2.2,1.689-2.962m-3.86-11.849A3.686,3.686,0,0,1,274.4,135.5c.032-1.117.06-2.23.092-3.347,0-.064,0-.133,0-.2.165-.16.334-.316.5-.472,1.6-1.483,3.214-2.871,4.148-4.991-1.96.916-2.665,3.26-4.62,4.176-.032-2.092-.05-4.157-.06-6.208h-.353v38.423h.325c-.032-.852-.05-1.744-.06-2.665,0-.472-.009-.948-.009-1.433,0-.8,0-1.625,0-2.468,0-1.131.018-2.294.032-3.471.009-.705.018-1.419.027-2.134.064-4.794.124-9.743-.06-14.143a14.737,14.737,0,0,0,2.454-2.143,24.4,24.4,0,0,0,2.408-3.1c-1.383.444-2.262,1.818-3.168,2.884m3.736,22.206c-.073.05-.151.105-.224.165l0,0c-.037.027-.073.06-.11.087a.646.646,0,0,0-.11.092c-.069.05-.137.11-.206.169-.119.1-.233.211-.348.325-.1.1-.2.192-.293.293-.243.256-.476.527-.7.806-.105.133-.211.266-.311.4,0,.009-.014.018-.018.027-.142.188-.279.38-.4.577a0,0,0,0,0,0,0,16.715,16.715,0,0,0-1.657,3.109,26.537,26.537,0,0,0,4.308-5.874s0-.009,0-.014c.046-.078.1-.151.142-.224a.655.655,0,0,0-.069.05m-.27-1.973c-.082-.087-.151-.2-.362-.137-1.122,1.9-2.875,3.255-3.9,5.27,1.735-.43,2.752-2.848,3.974-4.482,0,0,0-.009.009-.014.142-.192.293-.375.444-.545a.219.219,0,0,1-.169-.092m-.082-2.6a6.693,6.693,0,0,1-.444.664,12.017,12.017,0,0,1-1.177,1.323,14.68,14.68,0,0,0-2.477,2.843,5.567,5.567,0,0,0,3.077-2.569.863.863,0,0,0,.073-.105c.224-.321.44-.65.646-.971.215-.339.421-.668.618-.966,0-.105-.1-.215-.316-.22" transform="translate(-148.614 -67.476)" fill="#fff"/>
        <path id="Path_3119" data-name="Path 3119" d="M291.642,124.462V126.1c0-.545-.014-1.09-.023-1.635Z" transform="translate(-158.1 -67.477)" fill="#fff"/>
        <path id="Path_3120" data-name="Path 3120" d="M129.556,72.852a3.686,3.686,0,0,1-1.667,1.287c.032-1.117.06-2.23.092-3.347,0-.064,0-.133,0-.2.165-.16.334-.316.5-.472,1.6-1.483,3.214-2.871,4.148-4.991-1.96.916-2.665,3.26-4.62,4.176-.032-2.092-.05-4.157-.06-6.208q-.027-4.286,0-8.475v0c0-.366,0-.733,0-1.1a17.582,17.582,0,0,1-.325-1.937,32.389,32.389,0,0,0-.408-9.038c-.009.508-.009,1.021-.009,1.534,0,1.424.041,2.857.055,4.267.252,13.255-.385,26.624-.357,40.9q0,1.641.018,3.3c.009,1.387.032,2.779.06,4.185.027,1.227.055,2.459.1,3.7,0,.32-.032.7-.041,1.094h.879c-.032-.852-.05-1.744-.06-2.665,0-.472-.009-.948-.009-1.433,0-.8,0-1.625,0-2.468,0-1.131.018-2.294.032-3.471.009-.705.018-1.419.027-2.134.064-4.794.124-9.743-.06-14.143a14.739,14.739,0,0,0,2.454-2.143,24.4,24.4,0,0,0,2.408-3.1c-1.383.444-2.262,1.818-3.168,2.884M106.389,39.264c-.179.009-.353.023-.531.032q-1.3.082-2.619.156c-5.641.316-30.452.788-53.729,1.026h-.357c-1.914.023-3.819.041-5.7.055h0c-.147,0-.284,0-.43,0-.966.009-1.923.014-2.875.023-.174,0-.348,0-.522,0h0L37,40.578h0c-.224,0-.444,0-.664,0-3.049.018-5.993.032-8.772.037h-.334q-1.538.007-3,0h-.407s0,0,0,0c-.907,0-1.79,0-2.646,0h-.6c-2.074-.009-3.992-.023-5.728-.041h0c-.128,0-.256,0-.38,0q-1.49-.014-2.775-.041h0c-.183,0-.366,0-.54-.009h-.009c-.884-.018-1.68-.041-2.39-.06H8.715c-.275-.014-.536-.023-.778-.032-.7-.027-1.282-.06-1.744-.1-.362-.032-.728-.092-1.094-.151h0a.078.078,0,0,1-.032,0h0l-.4-.069c-.266-.041-.527-.082-.783-.11v.641c.234.018.5.037.8.05.769.046,1.749.082,2.912.119.073,0,.147,0,.22.009h.009c18.749.563,82.881.3,92.61-.261,2.037-.119,4.089-.279,6.144-.453.2-.018.389-.032.586-.05a3.959,3.959,0,0,1-.76-.792m1.131-8.338c-.137,0-.279,0-.417.009-11.881.279-24.046.627-34.476.627-1.14.05-61.819.147-68.225.147H3.871v.362c.183-.018.366-.037.54-.046a.347.347,0,0,1,.069,0c7.733-.014,77.9.014,84.566-.027,6.076-.046,12.083-.311,18.145-.458.124,0,.247,0,.371-.009-.009-.192-.023-.394-.041-.6m20.727-19.175v-.027c0-.082,0-.169,0-.256V11.28H127.5v.174c-.014,1.621,0,3.338.027,5.1,0,.114,0,.234,0,.348a7.121,7.121,0,0,1,.746.82v-.559q-.007-2.678-.032-5.412" transform="translate(-2.099 -6.115)" fill-rule="evenodd"/>
        <path id="Path_3121" data-name="Path 3121" d="M291.075,57.981c0-.147-.014-.293-.018-.44l-.861.572c.014.174.027.348.037.522.041.609.069,1.227.078,1.85.032.875.055,1.744.069,2.614.009.545.018,1.09.023,1.635q.014,1.49,0,2.967c0,.545-.014,1.085-.023,1.63-.018,1.291-.055,2.573-.1,3.855-.082,2.724-.206,5.426-.339,8.131-.069,1.433-.137,2.862-.206,4.3-.037.778-.073,1.561-.105,2.344q-.062,1.387-.114,2.788c-.009.311-.009.632,0,.952.009,1.7.142,3.493.2,5.224.023.751.037,1.488.018,2.2-.055.568-.266,1.461-.4,2.395H290.4a13.387,13.387,0,0,0,.179-2.157c.009-.325.014-.65.014-.966,0-.211,0-.417,0-.623,0-.893-.018-1.74-.046-2.55-.032-1.117-.078-2.166-.1-3.164a21.229,21.229,0,0,1,.114-2.28c.064-.719.156-1.442.238-2.161a22.464,22.464,0,0,0,.183-3.709v-.252q-.021-1.964-.018-3.96c0-2.17.014-4.359.037-6.552q.021-1.916.06-3.828.041-2.273.1-4.519c.06-2.33,0-4.592-.092-6.822M313.19,39.2c-2.129.055-4.368.1-6.643.1h-.536a4.442,4.442,0,0,1-.22.705c.211,0,.421,0,.632,0,1.859.014,3.64.009,5.366-.009.44-.027.925.009,1.406.018A5.871,5.871,0,0,0,314,40v-.82c-.27.009-.54.014-.81.023m-.027-8.26a74.512,74.512,0,0,0-8.365-.137c-.1,0-.2,0-.3.009a3.392,3.392,0,0,1-.316.865h.293c2.037,0,4.015,0,5.815.009a9.178,9.178,0,0,0,2.88-.105A2.022,2.022,0,0,0,314,31.1v-.069c-.279-.032-.559-.06-.838-.087M290.851,11.28c0,.069,0,.137,0,.206-.1,4.116-.147,7.9-.174,11.6,0,.142,0,.279,0,.421.247-.229.494-.449.746-.655,0-.133,0-.261.009-.394.073-3.846.069-7.664.156-11.016,0-.055,0-.105,0-.16Z" transform="translate(-156.86 -6.115)" fill-rule="evenodd"/>
        <path id="Path_3122" data-name="Path 3122" d="M275.694,11.283h.665a5.212,5.212,0,0,1-.866.475c.062-.163.13-.321.2-.475" transform="translate(-149.358 -6.117)" fill-rule="evenodd"/>
        <path id="Path_3123" data-name="Path 3123" d="M277.68,11.283h1.325c-.131.119-.257.23-.362.33-.662.626-1.546,1.57-2.3,1.658a4.373,4.373,0,0,1,1.336-1.988" transform="translate(-149.819 -6.117)" fill-rule="evenodd"/>
        <path id="Path_3124" data-name="Path 3124" d="M276.239,15.1a10.338,10.338,0,0,1,3.982-3.812h.991c-.917.855-2.195,1.49-3.109,2.358-.553.63-.909,1.909-1.864,1.454" transform="translate(-149.762 -6.117)" fill-rule="evenodd"/>
        <path id="Path_3125" data-name="Path 3125" d="M281.73,14.291c.426.118.42.334.2.541-2.175,1.018-3.307,3.243-5.586,4.15,1.24-2.223,3.417-3.347,5.386-4.692" transform="translate(-149.819 -7.748)" fill-rule="evenodd"/>
        <path id="Path_3126" data-name="Path 3126" d="M282.573,18.3c-1.858,1.239-3.535,3.772-5.376,4.368a12,12,0,0,1,5.376-4.368" transform="translate(-150.281 -9.922)" fill-rule="evenodd"/>
        <path id="Path_3127" data-name="Path 3127" d="M278.469,26.4c1.123-1.625,2.986-2.471,4.525-3.656.322.009.316.223.311.438-1.871.923-2.971,2.657-4.693,3.654-.045-.147-.093-.293-.144-.435" transform="translate(-150.971 -12.329)" fill-rule="evenodd"/>
        <path id="Path_3128" data-name="Path 3128" d="M279.311,30.664a7.166,7.166,0,0,1,3.324-2.575,17.814,17.814,0,0,1-3.2,3.253q-.055-.347-.126-.678" transform="translate(-151.427 -15.228)" fill-rule="evenodd"/>
        <path id="Path_3129" data-name="Path 3129" d="M279.834,34.083a10.218,10.218,0,0,1,3.582-2.681c-1.267,1.2-2.287,2.6-3.532,3.748,0-.364-.021-.72-.05-1.066" transform="translate(-151.711 -17.024)" fill-rule="evenodd"/>
        <path id="Path_3130" data-name="Path 3130" d="M279.772,38.8a8.705,8.705,0,0,1,3.279-2.485c-1.145,1.242-2.174,2.545-3.387,3.729q.077-.637.108-1.244" transform="translate(-151.619 -19.686)" fill-rule="evenodd"/>
        <path id="Path_3131" data-name="Path 3131" d="M278.877,44.222a10.733,10.733,0,0,1,3.547-2.754,22.274,22.274,0,0,1-3.8,3.888q.146-.576.255-1.134" transform="translate(-151.054 -22.482)" fill-rule="evenodd"/>
        <path id="Path_3132" data-name="Path 3132" d="M278.616,50.787,278,50.4a17.334,17.334,0,0,1,2.642-2.662c-.754,1.036-1.44,2.079-2.03,3.051" transform="translate(-150.719 -25.88)" fill-rule="evenodd"/>
        <path id="Path_3133" data-name="Path 3133" d="M317.56,60.162c-.016.024-.033.05-.052.077l-.1.032.154-.109" transform="translate(-172.08 -32.617)" fill-rule="evenodd"/>
        <path id="Path_3134" data-name="Path 3134" d="M334.717,60.209c-1.215,1.258-2.665,3.366-4.389,3.536a9.493,9.493,0,0,1,4.389-3.536" transform="translate(-179.086 -32.642)" fill-rule="evenodd"/>
        <path id="Path_3135" data-name="Path 3135" d="M226,68.118a3.243,3.243,0,0,0-.011.456,4.24,4.24,0,0,1-.54.136c.173-.205.358-.4.552-.592" transform="translate(-122.225 -36.93)" fill-rule="evenodd"/>
        <path id="Path_3136" data-name="Path 3136" d="M321.572,62.231a17.762,17.762,0,0,1,3.023-1.624c-.731.743-1.486,1.484-2.308,2.168a6.694,6.694,0,0,0-.716-.544" transform="translate(-174.339 -32.858)" fill-rule="evenodd"/>
        <path id="Path_3137" data-name="Path 3137" d="M324.66,63.365c.994-1.239,3.091-1.957,4.19-3.081-.57,1.409-2.314,2.638-3.83,3.727a3.257,3.257,0,0,0-.36-.646" transform="translate(-176.013 -32.683)" fill-rule="evenodd"/>
        <path id="Path_3138" data-name="Path 3138" d="M318.626,61.364a13.178,13.178,0,0,0,1.368-.957c.325-.1.319.115.421.332a7.783,7.783,0,0,0-1.286.873q-.241-.126-.5-.248" transform="translate(-172.742 -32.736)" fill-rule="evenodd"/>
        <path id="Path_3139" data-name="Path 3139" d="M223.367,60.017a4.153,4.153,0,0,1-.122.478q-.227.313-.423.619c-1.567,1.447-2.989,3.046-5.154,3.863,1.562-2.034,3.768-3.388,5.7-4.96" transform="translate(-118.008 -32.538)" fill-rule="evenodd"/>
        <path id="Path_3140" data-name="Path 3140" d="M333.6,65.569c1.31-.825,2.959-2.285,4.253-2.466-1,1.155-2.767,3.149-4.253,2.466" transform="translate(-180.858 -34.211)" fill-rule="evenodd"/>
        <path id="Path_3141" data-name="Path 3141" d="M215.217,62.616c1.2-.827,2.318-2.409,3.487-1.949-2.508,1.437-3.965,3.762-6.678,4.872.358-1.386,2.1-2.092,3.191-2.922" transform="translate(-114.949 -32.846)" fill-rule="evenodd"/>
        <path id="Path_3142" data-name="Path 3142" d="M211.457,60.1a18.329,18.329,0,0,1-6.475,5.307c1.671-2.319,4.281-3.539,6.475-5.307" transform="translate(-111.13 -32.584)" fill-rule="evenodd"/>
        <path id="Path_3143" data-name="Path 3143" d="M195.318,61.1c-2.3,1.765-4.079,4.082-7.009,5.186a17.854,17.854,0,0,1,7.009-5.186" transform="translate(-102.091 -33.126)" fill-rule="evenodd"/>
        <path id="Path_3144" data-name="Path 3144" d="M204.633,61.562c-2.188,1.553-3.977,4.3-6.46,4.77,1.979-1.773,3.746-3.66,6.46-4.77" transform="translate(-107.439 -33.376)" fill-rule="evenodd"/>
        <path id="Path_3145" data-name="Path 3145" d="M174.468,61.283c.429.011.211.113.2.435-3.15,1.314-5.044,3.949-7.98,5.375,1.46-2.432,4.944-4.273,7.777-5.81" transform="translate(-90.371 -33.224)" fill-rule="evenodd"/>
        <path id="Path_3146" data-name="Path 3146" d="M340.69,66.137a2.834,2.834,0,0,0,1.155-.16V66.5c-.488.284-1.174.361-1.155-.367" transform="translate(-184.703 -35.769)" fill-rule="evenodd"/>
        <path id="Path_3147" data-name="Path 3147" d="M187.508,62.083a46.849,46.849,0,0,1-7.444,5.388c1.68-2.64,4.509-4.069,7.444-5.388" transform="translate(-97.621 -33.658)" fill-rule="evenodd"/>
        <path id="Path_3148" data-name="Path 3148" d="M180.391,62.29c.325-.1.32.116.314.33-2.183,1.338-3.634,3.449-6.235,4.347,1.346-2.219,4.052-3.009,5.921-4.677" transform="translate(-94.588 -33.757)" fill-rule="evenodd"/>
        <path id="Path_3149" data-name="Path 3149" d="M159.354,62.518c.322.008.316.224.53.229-2.516,1.76-5.159,4.268-7.972,5.053,1.883-2.205,5.03-3.412,7.441-5.282" transform="translate(-82.359 -33.894)" fill-rule="evenodd"/>
        <path id="Path_3150" data-name="Path 3150" d="M153.87,62.842a29.453,29.453,0,0,1-7.311,4.427c1.773-2.1,4.49-3.319,7.311-4.427" transform="translate(-79.456 -34.07)" fill-rule="evenodd"/>
        <path id="Path_3151" data-name="Path 3151" d="M166.293,63.628c-2.191,1.661-4.509,4.07-7.1,4.647a24.6,24.6,0,0,1,7.1-4.647" transform="translate(-86.305 -34.496)" fill-rule="evenodd"/>
        <path id="Path_3152" data-name="Path 3152" d="M145.555,61.977a4.154,4.154,0,0,1-.122.478q-.227.313-.423.619c-1.567,1.447-2.989,3.046-5.154,3.863,1.562-2.034,3.768-3.388,5.7-4.96" transform="translate(-75.823 -33.601)" fill-rule="evenodd"/>
        <path id="Path_3153" data-name="Path 3153" d="M137.406,64.575c1.2-.827,2.318-2.409,3.487-1.949-2.508,1.437-3.965,3.762-6.678,4.872.358-1.386,2.1-2.092,3.191-2.922" transform="translate(-72.764 -33.908)" fill-rule="evenodd"/>
        <path id="Path_3154" data-name="Path 3154" d="M133.645,62.06a18.328,18.328,0,0,1-6.475,5.307c1.671-2.319,4.281-3.539,6.475-5.307" transform="translate(-68.945 -33.646)" fill-rule="evenodd"/>
        <path id="Path_3155" data-name="Path 3155" d="M117.507,63.06c-2.3,1.765-4.079,4.082-7.009,5.186a17.854,17.854,0,0,1,7.009-5.186" transform="translate(-59.906 -34.188)" fill-rule="evenodd"/>
        <path id="Path_3156" data-name="Path 3156" d="M126.822,63.521c-2.188,1.553-3.977,4.3-6.46,4.771,1.979-1.774,3.746-3.66,6.46-4.771" transform="translate(-65.254 -34.438)" fill-rule="evenodd"/>
        <path id="Path_3157" data-name="Path 3157" d="M96.657,63.242c.429.011.211.113.2.435-3.15,1.314-5.044,3.949-7.98,5.375,1.46-2.432,4.944-4.273,7.777-5.81" transform="translate(-48.186 -34.286)" fill-rule="evenodd"/>
        <path id="Path_3158" data-name="Path 3158" d="M109.7,64.042a46.848,46.848,0,0,1-7.444,5.388c1.68-2.64,4.509-4.069,7.444-5.388" transform="translate(-55.436 -34.72)" fill-rule="evenodd"/>
        <path id="Path_3159" data-name="Path 3159" d="M102.579,64.249c.325-.1.32.116.314.33-2.183,1.338-3.634,3.449-6.235,4.347,1.346-2.219,4.052-3.009,5.921-4.677" transform="translate(-52.403 -34.819)" fill-rule="evenodd"/>
        <path id="Path_3160" data-name="Path 3160" d="M81.541,64.478c.322.008.316.224.53.229-2.516,1.76-5.159,4.268-7.972,5.053,1.883-2.205,5.03-3.412,7.441-5.282" transform="translate(-40.173 -34.957)" fill-rule="evenodd"/>
        <path id="Path_3161" data-name="Path 3161" d="M76.058,64.8a29.437,29.437,0,0,1-7.311,4.426c1.773-2.1,4.49-3.319,7.311-4.426" transform="translate(-37.271 -35.132)" fill-rule="evenodd"/>
        <path id="Path_3162" data-name="Path 3162" d="M88.481,65.587c-2.191,1.661-4.509,4.07-7.1,4.647a24.6,24.6,0,0,1,7.1-4.647" transform="translate(-44.119 -35.558)" fill-rule="evenodd"/>
        <path id="Path_3163" data-name="Path 3163" d="M62.283,63.242c.429.011.211.113.2.435-3.15,1.314-5.044,3.949-7.98,5.375,1.46-2.432,4.944-4.273,7.777-5.81" transform="translate(-29.55 -34.286)" fill-rule="evenodd"/>
        <path id="Path_3164" data-name="Path 3164" d="M68.206,64.249c.325-.1.32.116.314.33-2.183,1.338-3.634,3.449-6.235,4.347,1.346-2.219,4.052-3.009,5.921-4.677" transform="translate(-33.768 -34.819)" fill-rule="evenodd"/>
        <path id="Path_3165" data-name="Path 3165" d="M47.168,64.478c.322.008.316.224.53.229-2.516,1.76-5.159,4.268-7.972,5.053,1.883-2.205,5.03-3.412,7.441-5.282" transform="translate(-21.538 -34.957)" fill-rule="evenodd"/>
        <path id="Path_3166" data-name="Path 3166" d="M41.685,64.8a29.437,29.437,0,0,1-7.311,4.426c1.773-2.1,4.49-3.319,7.311-4.426" transform="translate(-18.636 -35.132)" fill-rule="evenodd"/>
        <path id="Path_3167" data-name="Path 3167" d="M54.108,65.587c-2.192,1.661-4.51,4.07-7.1,4.647a24.6,24.6,0,0,1,7.1-4.647" transform="translate(-25.484 -35.558)" fill-rule="evenodd"/>
        <path id="Path_3168" data-name="Path 3168" d="M34.314,63.242c.429.011.211.113.2.435-3.15,1.314-5.044,3.949-7.98,5.375,1.46-2.432,4.944-4.273,7.777-5.81" transform="translate(-14.387 -34.286)" fill-rule="evenodd"/>
        <path id="Path_3169" data-name="Path 3169" d="M19.2,64.478c.322.008.316.224.53.229-2.516,1.76-5.159,4.268-7.972,5.053,1.883-2.205,5.03-3.412,7.441-5.282" transform="translate(-6.375 -34.957)" fill-rule="evenodd"/>
        <path id="Path_3170" data-name="Path 3170" d="M13.716,64.8a29.437,29.437,0,0,1-7.311,4.426c1.773-2.1,4.49-3.319,7.311-4.426" transform="translate(-3.472 -35.132)" fill-rule="evenodd"/>
        <path id="Path_3171" data-name="Path 3171" d="M26.139,65.587c-2.191,1.661-4.509,4.07-7.1,4.647a24.6,24.6,0,0,1,7.1-4.647" transform="translate(-10.321 -35.558)" fill-rule="evenodd"/>
        <path id="Path_3172" data-name="Path 3172" d="M275.688,106.7c.012.035.025.07.038.1-.044.024-.088.047-.131.069.031-.058.062-.115.094-.173" transform="translate(-149.412 -57.848)" fill-rule="evenodd"/>
        <path id="Path_3173" data-name="Path 3173" d="M277.133,110.887q-.151.117-.316.22a4.653,4.653,0,0,1-.668.357,7.249,7.249,0,0,1,.412-.714c.073-.119.151-.234.233-.348a4.8,4.8,0,0,0,.339.485" transform="translate(-149.713 -59.854)" fill-rule="evenodd"/>
        <path id="Path_3174" data-name="Path 3174" d="M278.8,113.378c-.082.073-.169.151-.256.22a7.663,7.663,0,0,1-1.561,1.026,4.072,4.072,0,0,1,.916-1.52c.078-.092.16-.174.247-.261a5.222,5.222,0,0,0,.655.536" transform="translate(-150.163 -61.177)" fill-rule="evenodd"/>
        <path id="Path_3175" data-name="Path 3175" d="M280.2,115.322c-.046.078-.092.156-.142.234h0a7.358,7.358,0,0,1-3.214,2.793,8.718,8.718,0,0,1,2.628-2.985c.082-.069.169-.137.252-.2.156.06.316.114.481.16" transform="translate(-150.087 -62.435)" fill-rule="evenodd"/>
        <path id="Path_3176" data-name="Path 3176" d="M280.942,118.392a16.448,16.448,0,0,1-2.221,2.733.409.409,0,0,0-.041.046c-.755.838-1.433,2.166-2.482,2.037.481-.682.939-1.383,1.428-2.037a7.682,7.682,0,0,1,3.315-2.779" transform="translate(-149.74 -64.186)" fill-rule="evenodd"/>
        <path id="Path_3177" data-name="Path 3177" d="M281.112,124.462a10.752,10.752,0,0,1-3.873,4.3c.907-1.8,2.459-3.8,3.873-4.3" transform="translate(-150.304 -67.477)" fill-rule="evenodd"/>
        <path id="Path_3178" data-name="Path 3178" d="M280.664,134.284a16.407,16.407,0,0,0-1.419,1.7,14.676,14.676,0,0,1-2.733,3.036c-.087.069-.179.133-.27.192a2.766,2.766,0,0,1,.092-.43,7.063,7.063,0,0,1,2-2.77,11.809,11.809,0,0,0,1.694-1.96c.32.009.316.224.636.234" transform="translate(-149.763 -72.675)" fill-rule="evenodd"/>
        <path id="Path_3179" data-name="Path 3179" d="M280.641,143.942c-.307.412-.6.829-.907,1.25a16.415,16.415,0,0,1-3.525,3.892,9.378,9.378,0,0,1,2.724-3.942,8.634,8.634,0,0,1,1.708-1.2" transform="translate(-149.746 -78.038)" fill-rule="evenodd"/>
        <path id="Path_3180" data-name="Path 3180" d="M281.991,148.024c-1.763,1.676-2.688,4.336-4.972,5.458,1.026-2.34,3.1-3.786,4.661-5.787.325-.1.316.119.311.33" transform="translate(-150.185 -80.059)" fill-rule="evenodd"/>
        <path id="Path_3181" data-name="Path 3181" d="M281.272,155.912c-1.222,1.689-2.688,4.226-4.423,4.931.792-1.479,2.8-4.327,4.423-4.931" transform="translate(-150.093 -84.527)" fill-rule="evenodd"/>
        <path id="Path_3182" data-name="Path 3182" d="M280.866,161.542c-1.342,2.005-2.683,4.011-4.647,5.247a6,6,0,0,1,2.005-2.848,6.308,6.308,0,0,1,2.642-2.4" transform="translate(-149.751 -87.579)" fill-rule="evenodd"/>
        <path id="Path_3183" data-name="Path 3183" d="M281.036,166.176c-1.657,1.782-2.9,4.006-4.977,5.453.037-1.286,1.346-2.22,2.124-3.164a21.853,21.853,0,0,0,2.546-2.944.657.657,0,0,1,.307.654" transform="translate(-149.664 -89.737)" fill-rule="evenodd"/>
        <path id="Path_3184" data-name="Path 3184" d="M279.743,174.6c-.778.943-1.786,2.532-2.848,2.179a.638.638,0,0,1,.156-.527c.3-.311.92-.348,1.163-.728a19.53,19.53,0,0,1,2.482-3.072.063.063,0,0,0,.014-.018c.243-.261.485-.527.723-.8.3.76-.916,2.015-1.689,2.962" transform="translate(-150.115 -93.054)" fill-rule="evenodd"/>
        <path id="Path_3185" data-name="Path 3185" d="M282.043,177.264a6.275,6.275,0,0,0-.44.485h0a.793.793,0,0,0-.078.1c-.069.078-.137.16-.2.247q-.22.275-.426.563a1.573,1.573,0,0,0-.11.151c-.266.362-.517.733-.778,1.1q-.2.282-.412.563c-.05.069-.105.137-.16.206-.114.147-.234.288-.357.43-.082.092-.165.188-.252.275-.06.064-.119.124-.179.183s-.119.114-.179.169a5.229,5.229,0,0,1-1.506.984c1.012-1.8,3.214-3.782,4.656-5.677.165,0,.27.009.357.11a.5.5,0,0,1,.069.114" transform="translate(-150.153 -95.982)" fill-rule="evenodd"/>
        <path id="Path_3186" data-name="Path 3186" d="M281.233,184.5c-.2.3-.4.627-.618.966-.206.32-.421.65-.646.971a.863.863,0,0,1-.073.105,5.567,5.567,0,0,1-3.077,2.569,14.682,14.682,0,0,1,2.477-2.843,12.016,12.016,0,0,0,1.177-1.323,6.706,6.706,0,0,0,.444-.664c.215,0,.32.114.316.22" transform="translate(-150.076 -99.908)" fill-rule="evenodd"/>
        <path id="Path_3187" data-name="Path 3187" d="M281.076,189.859c-.151.169-.3.353-.444.545,0,0-.009.009-.009.014-1.222,1.635-2.239,4.052-3.974,4.482,1.021-2.015,2.775-3.365,3.9-5.27.211-.064.279.05.362.137a.219.219,0,0,0,.169.092" transform="translate(-149.984 -102.797)" fill-rule="evenodd"/>
        <path id="Path_3188" data-name="Path 3188" d="M281.414,194.152c-.046.073-.1.147-.142.224,0,0,0,.009,0,.014a26.536,26.536,0,0,1-4.308,5.874,16.713,16.713,0,0,1,1.657-3.109,0,0,0,0,1,0,0c.124-.2.261-.389.4-.577,0-.009.014-.018.018-.027.1-.137.206-.27.311-.4.22-.279.453-.549.7-.806.1-.1.192-.2.293-.293.114-.114.229-.224.348-.325.069-.06.137-.119.206-.169a.646.646,0,0,1,.11-.092c.037-.027.073-.06.11-.087l0,0c.073-.06.151-.114.224-.165a.661.661,0,0,1,.069-.05" transform="translate(-150.152 -105.259)" fill-rule="evenodd"/>
        <path id="Path_3189" data-name="Path 3189" d="M281.976,201.842c-.018.073-.037.147-.06.22a8.431,8.431,0,0,1-1.351,2.775h-1.007c.678-.98,1.483-1.8,2.221-2.743h0c.064-.082.128-.165.192-.252" transform="translate(-151.562 -109.428)" fill-rule="evenodd"/>
        <path id="Path_3190" data-name="Path 3190" d="M285.7,208.03h-.165c.05-.1.1-.2.147-.3a1.555,1.555,0,0,1,.018.3" transform="translate(-154.804 -112.621)" fill-rule="evenodd"/>
        <path id="Path_3191" data-name="Path 3191" d="M265.957,25.482c-1.585-.936-2.835-2.141-5.241-2.553,1.448.768,4.007,1.2,3.677,2.846-.929-1.325-3.337-1.737-4.921-2.673,1.909-2.092,5.587.753,6.485,2.381" transform="translate(-140.672 -12.123)" fill-rule="evenodd"/>
        <path id="Path_3192" data-name="Path 3192" d="M263.226,28.171c-1.234-1.357-3.656-1.617-4.889-2.975,1.834.043,4.159,1.212,4.889,2.975" transform="translate(-140.056 -13.66)" fill-rule="evenodd"/>
        <path id="Path_3193" data-name="Path 3193" d="M261.516,31.04a17.866,17.866,0,0,0-4.365-2.152c-.135-.167.032-.3.049-.454,1.817.2,3.7,1.162,4.316,2.607" transform="translate(-139.385 -15.415)" fill-rule="evenodd"/>
        <path id="Path_3194" data-name="Path 3194" d="M304.2,34.916c-1.261.325-2.624.179-3.478,1.006-.643-1.141,3-2.282,3.478-1.006" transform="translate(-162.996 -18.625)" fill-rule="evenodd"/>
        <path id="Path_3195" data-name="Path 3195" d="M259.549,32.73c-1.346-.3-2.7-1.975-4.532-2.017,1.677-1.353,3.569.995,4.532,2.017" transform="translate(-138.257 -16.429)" fill-rule="evenodd"/>
        <path id="Path_3196" data-name="Path 3196" d="M304.479,37.376c-.368.573-1.427.46-2.066.7s-1.325.931-1.914.714c.735-1.146,2.835-2.147,3.981-1.411" transform="translate(-162.914 -20.127)" fill-rule="evenodd"/>
        <path id="Path_3197" data-name="Path 3197" d="M256.061,34.44a10.946,10.946,0,0,0-4.045-2.272c.979.871,1.838,1.423,2.666,2.277-1.347-.3-2.731-1.672-4.212-2.137.367-.573,1.059.114,1.293-.626,1.817.2,3.873,1.028,4.3,2.758" transform="translate(-135.791 -17.176)" fill-rule="evenodd"/>
        <path id="Path_3198" data-name="Path 3198" d="M305.788,39.725c-.839.676-1.914.714-2.889,1.222-.639.238-1.173.946-1.763.731,1.039-1.114,3.034-2.585,4.652-1.953" transform="translate(-163.26 -21.454)" fill-rule="evenodd"/>
        <path id="Path_3199" data-name="Path 3199" d="M307.933,42.518c-1.293.627-2.857.92-4,1.563.13-1.212,2.834-2.147,4-1.563" transform="translate(-164.778 -22.954)" fill-rule="evenodd"/>
        <path id="Path_3200" data-name="Path 3200" d="M309.06,45.42a12.036,12.036,0,0,1-3.613.839c.417-1.028,2.618-1.558,3.613-.839" transform="translate(-165.597 -24.444)" fill-rule="evenodd"/>
        <path id="Path_3201" data-name="Path 3201" d="M311.027,47.42c-.7.843-2.368.664-3.477,1.006a3.054,3.054,0,0,1,3.477-1.006" transform="translate(-166.737 -25.59)" fill-rule="evenodd"/>
        <path id="Path_3202" data-name="Path 3202" d="M315.127,50.647c-.59-.217-1.092.19-1.363-.146.065-.606,1.8-1.034,1.363.146" transform="translate(-170.106 -27.053)" fill-rule="evenodd"/>
        <path id="Path_3203" data-name="Path 3203" d="M238.24,49.919c-.065.606-.941.205-1.379.005a29.665,29.665,0,0,0-3.111.433c.33-1.651,3.494-1.157,4.489-.438" transform="translate(-126.727 -26.7)" fill-rule="evenodd"/>
        <path id="Path_3204" data-name="Path 3204" d="M238.417,52.278a12.967,12.967,0,0,1-3.851.2c.569-1.011,3.024-1.054,3.851-.2" transform="translate(-127.169 -28.015)" fill-rule="evenodd"/>
        <path id="Path_3205" data-name="Path 3205" d="M238.013,55.38a12.225,12.225,0,0,0-4.155.168c-.324-1.261,3.814-1.277,4.155-.168" transform="translate(-126.775 -29.587)" fill-rule="evenodd"/>
        <path id="Path_3206" data-name="Path 3206" d="M317.523,66.988c-1.043-.266-2.108-1.758-3.926-1.953,1.141-.644,3.77.557,3.926,1.953" transform="translate(-170.015 -35.162)" fill-rule="evenodd"/>
        <path id="Path_3207" data-name="Path 3207" d="M238.593,58.126c-.956.358-2.623.179-3.732.519-.308-1.412,3.023-1.054,3.732-.519" transform="translate(-127.318 -31.257)" fill-rule="evenodd"/>
        <path id="Path_3208" data-name="Path 3208" d="M315.612,69.274c-1.552-1.238-3.775-1.937-5.83-2.77,2.153-.076,5.268.871,5.83,2.77" transform="translate(-167.947 -36.053)" fill-rule="evenodd"/>
        <path id="Path_3209" data-name="Path 3209" d="M237.442,61.318a20.2,20.2,0,0,0-3.7.215.149.149,0,0,0-.135-.167c.7-.844,3.208-1.341,3.835-.048" transform="translate(-126.649 -32.815)" fill-rule="evenodd"/>
        <path id="Path_3210" data-name="Path 3210" d="M311.831,69.075c1.633.481,3.417.979,4.029,2.423-1.363-.145-2.11-1.758-3.943-1.8a.908.908,0,0,1-.087-.621" transform="translate(-169.05 -37.449)" fill-rule="evenodd"/>
        <path id="Path_3211" data-name="Path 3211" d="M236.789,63.3c-1.159.8-3.261.417-4.269,1.228.2-1.818,2.77-1.542,4.269-1.228" transform="translate(-126.06 -34.196)" fill-rule="evenodd"/>
        <path id="Path_3212" data-name="Path 3212" d="M314.78,74.083a15.577,15.577,0,0,1-3.911-2.1,4.83,4.83,0,0,1,3.911,2.1" transform="translate(-168.536 -39.023)" fill-rule="evenodd"/>
        <path id="Path_3213" data-name="Path 3213" d="M235.122,66.75c-1.259.324-3.007.9-3.948,1.109-.022-1.228,2.937-1.677,3.948-1.109" transform="translate(-125.33 -36.056)" fill-rule="evenodd"/>
        <path id="Path_3214" data-name="Path 3214" d="M309.607,74.189c1.178.432,3.148.643,3.424,2.358-1.163-.584-1.839-1.423-3.169-1.872-.3-.032-.287-.184-.255-.486" transform="translate(-167.843 -40.221)" fill-rule="evenodd"/>
        <path id="Path_3215" data-name="Path 3215" d="M311.393,79.533c-.811-1.006-2.866-1.839-3.407-2.51,1.38,0,3.722,1.012,3.407,2.51" transform="translate(-166.973 -41.758)" fill-rule="evenodd"/>
        <path id="Path_3216" data-name="Path 3216" d="M311.749,83.151a18.931,18.931,0,0,0-2.5-2.413c.973-.509,2.763,1.368,2.5,2.413" transform="translate(-167.659 -43.725)" fill-rule="evenodd"/>
        <path id="Path_3217" data-name="Path 3217" d="M310.7,86.014c.908.1,1.737.952,1.353,1.677-.558-.519-1.3-.752-1.353-1.677" transform="translate(-168.446 -46.632)" fill-rule="evenodd"/>
        <path id="Path_3218" data-name="Path 3218" d="M237.622,81.508c-.735,1.146-1.757,2.11-2.493,3.256-.157-1.4,1.266-3.234,2.493-3.256" transform="translate(-127.468 -44.189)" fill-rule="evenodd"/>
        <path id="Path_3219" data-name="Path 3219" d="M239.326,83.809a6.586,6.586,0,0,0-1.991,2.85c-.979-.871,1.012-3.721,1.991-2.85" transform="translate(-128.528 -45.348)" fill-rule="evenodd"/>
        <path id="Path_3220" data-name="Path 3220" d="M240.991,85.43c.152.016.286.185.439.2a7.46,7.46,0,0,1-1.991,2.85c-.156-1.395,1.136-2.023,1.553-3.051" transform="translate(-129.804 -46.316)" fill-rule="evenodd"/>
        <path id="Path_3221" data-name="Path 3221" d="M298.746,91.423c1.753.8,2.331,2.548,1.8,4.636-.612-1.444-.7-3.445-1.8-4.636" transform="translate(-161.964 -49.565)" fill-rule="evenodd"/>
        <path id="Path_3222" data-name="Path 3222" d="M297.246,92.936c1.45.768,1.677,2.937,1.515,4.451-.8-1.158-.736-3.144-1.515-4.451" transform="translate(-161.151 -50.385)" fill-rule="evenodd"/>
        <path id="Path_3223" data-name="Path 3223" d="M243.108,87.628c.3.033.27.336.59.216-.72,1-1,2.191-1.808,2.564-.324-1.26.8-1.754,1.218-2.78" transform="translate(-131.108 -47.507)" fill-rule="evenodd"/>
        <path id="Path_3224" data-name="Path 3224" d="M245.823,89.235c.287.183.27.336.422.352-.535.709-.7,2.223-1.488,2.445-.189-1.092.514-1.937,1.066-2.8" transform="translate(-132.677 -48.378)" fill-rule="evenodd"/>
        <path id="Path_3225" data-name="Path 3225" d="M294.056,94.6c1.3.752,2.282,3,1.514,4.451a18.286,18.286,0,0,0-1.514-4.451" transform="translate(-159.421 -51.287)" fill-rule="evenodd"/>
        <path id="Path_3226" data-name="Path 3226" d="M247.668,91.1c.3.032.287.185.59.217-.416,1.027-.967,1.888-1.385,2.915-.844-.7.547-2.239.8-3.132" transform="translate(-133.696 -49.391)" fill-rule="evenodd"/>
        <path id="Path_3227" data-name="Path 3227" d="M291.893,96.043c.152.016.152.016.287.184.557.52,2.067,3.591.757,4.37a12.6,12.6,0,0,0-1.044-4.554" transform="translate(-158.249 -52.069)" fill-rule="evenodd"/>
        <path id="Path_3228" data-name="Path 3228" d="M289.4,97.449c1.163.584,1.812,3.1,1.195,4.57-.292-1.564-1.005-3.478-1.195-4.57" transform="translate(-156.898 -52.832)" fill-rule="evenodd"/>
        <path id="Path_3229" data-name="Path 3229" d="M249.3,93.892c.319-.119.287.184.438.2a7.315,7.315,0,0,1-1.033,2.493c-.692-.687.21-1.97.595-2.694" transform="translate(-134.695 -50.888)" fill-rule="evenodd"/>
        <path id="Path_3230" data-name="Path 3230" d="M286.873,99.185c1.146.736,2.218,3.607.941,4.084.011-1.531-.633-2.672-.941-4.084" transform="translate(-155.527 -53.773)" fill-rule="evenodd"/>
        <path id="Path_3231" data-name="Path 3231" d="M251.375,96.453c.3.033.271.335.59.217a20.693,20.693,0,0,0-.746,2.677c-.876-.4-.076-2.153.157-2.894" transform="translate(-135.98 -52.292)" fill-rule="evenodd"/>
        <path id="Path_3232" data-name="Path 3232" d="M271.821,41.425a3.64,3.64,0,0,0-.43-.7,4.78,4.78,0,0,0-.682-.714h0a6.378,6.378,0,0,0-.678-.508c-.275-.183-.563-.357-.861-.522-.147-.078-.3-.156-.449-.238-.311-.16-.627-.316-.939-.472a5.742,5.742,0,0,0,2.289-2.349,4.561,4.561,0,0,0,.325-.875,4.171,4.171,0,0,0-.041-2.17c-2.129-1.607-3.745-6.529-6.492-8.049-2.463-1.337-3.75.673-5.783,1.067-.353.252-.705.517-1.058.8-.252.2-.5.407-.751.627a29.459,29.459,0,0,0-2.6,2.541,15.265,15.265,0,0,0-2.454,3.388v0a4.493,4.493,0,0,0-.38,1.232v0a3.476,3.476,0,0,0-.023.577c2.729-3.992,5.87-9.02,10.714-9.88a4.447,4.447,0,0,1,1.969.211c1.7,1.255,2.028,2.518,3.5,4.514,1.186,1.809,3.965,3.026,2.427,5.925-4.336-3.832-10.778.531-14.775,2.092.046-.453.064-.6-.073-.774.266-1.044,1.932-.865,1.474-2.289.5-.407,1.548-.142,1.914-.714-1.451-.769-2.569,1.1-3.342,1.172.179-1.667,1.708-1.653,1.886-3.319-1.937-.517-2.921,1.525-3.823,2.807.114-1.062,1.135-2.024,1.067-2.8-1.548.142-1.337,2.459-2.193,3.287a8.974,8.974,0,0,0-2.939.3c.2-.435.078-.755-.375-.806-.4.879-.9,1.282-.563,2.39-.636.238-.966,1.891.092,2.005,1.447-.614,2.079-2.23,3.251-3.178.27.334,1.213.128,1.635.481.842.705.3,2.944-.105,3.818a13.628,13.628,0,0,1-4.318,4.592c-.137-.169-.44-.2-.577-.366.147-1.364,2.363-2.047,1.117-3.251-.6,1.314-1.186,2.477-2.582,2.633.032-.3-.27-.334-.252-.485.078-.76.989-.659.769-1.451-1.332-.449-.737,1.149-1.781.884-.284-3.1,1.964-5.458,2.376-7.866a7.63,7.63,0,0,0,1.946-1.016c-.2.44-.252.893.357.957.179-.554.353-1.154.508-1.786.1-.385.188-.783.27-1.186.1-.458.179-.925.252-1.4.069-.44.124-.875.165-1.314v0q.048-.5.069-1c.023-.4.027-.792.018-1.181-.009-.3-.023-.6-.05-.884v0c-.023-.3-.06-.586-.11-.87-.046-.256-.1-.508-.165-.751v0c-.055-.224-.124-.44-.2-.65v0a5.61,5.61,0,0,0-.4-.87c-.027-.046-.055-.1-.087-.142a2.86,2.86,0,0,0-.156-.252,7.216,7.216,0,0,0-1.081-1.236c-.238-.211-.49-.417-.751-.609a8.844,8.844,0,0,0-4.551-1.689c-4.427-.169-4.308,4.441-8.475,4.757-1.026.966-2.564,2.486-2.591,4.166.092,2,4.67,3.567,4.981,4.977-3.1-1.1-8.676-3.384-9.739.792a4.45,4.45,0,0,0-.05,1.378c.023.206.055.407.087.6a3.886,3.886,0,0,1,0,2.01c-.041.128-.082.252-.133.371a11.037,11.037,0,0,1-.54,1.149v0a0,0,0,0,0,0,0,6.894,6.894,0,0,0-.971,2.431c0,.055-.009.11-.014.16s-.009.128-.009.188a2.758,2.758,0,0,0,.343,1.442,2.971,2.971,0,0,0,.705.81c1.026.838,2.591,1.227,3.7,1.886-3.2,2.724-1.145,7.843,2.61,8.553,1.7,1.255,1.85,4.18,4.084,4.73,1.351.3,3.6-.687,4.606-1.5,2.715-2.468,4.208-7.825,5.371-11.529a15.005,15.005,0,0,1,.288,1.831c.366,3.416-.032,7.449.737,10.54v0a7.559,7.559,0,0,0,.989,2.385,3.912,3.912,0,0,0,.256.357,4.575,4.575,0,0,0,.627.673,4.3,4.3,0,0,0,.646.494,5.413,5.413,0,0,0,1,.508,5.169,5.169,0,0,0,.586.192h0a8.385,8.385,0,0,0,1.744.3,7.08,7.08,0,0,0,1.657-.9c.293-.206.568-.426.842-.655.687-.577,1.346-1.2,2.147-1.781,3.429.829,4.913-2.994,4.514-6.41,2.573.275,4.675-.723,5.3-3.718.215-.591-.023-1.232.211-1.969.609-1.566,2.733-2.541,3.173-4.093a.916.916,0,0,0,.041-.16q.055-.288.082-.549a3.96,3.96,0,0,0-.321-2.115m-23.973-2.994c-.156-1.4,1.135-2.024,2.111-2.532-.1.911-1.287,2.005-2.111,2.532M246.8,29.585c1.076-.037.293,1.566.7,2.069-.453-.05-.623-1.3-.7-2.069m-8.869-5.851c1.456-2.143,2.44-4.18,5.618-3.837a8.394,8.394,0,0,1,5.87,3.846c1.543,2.765.531,6.488-.165,10.091-.6-.064-.939.206-1.392.156.33-1.648.545-6.529-1.8-4.633-.211,1.969,1.68,2.935,1.012,4.853-.559-.517.229-2.115-.984-2.248-.5.407.174,1.245-.751,1.3.1.467.54.668.659.989a10.623,10.623,0,0,1-.778,2.981c-.591-.22.05-.458.082-.76-1.763-3.558-4.716-6.016-6.987-9.171-1.342-.3-2.44-1.488-3.988-1.351-.124-1.694,2.312-1.589,3.608-2.216M241.57,32.7a9.121,9.121,0,0,1-2.221.682c.05-.453,1.461-.765,2.221-.682m-3.5-.224a6.453,6.453,0,0,1,2.825-.614c-.806.371-2.134,1.3-2.825.614m4.208.76c-.2.435-.806.371-1.277.476.2-.44.792-.224,1.277-.476m.54.668c.151.018.137.169.288.183-.014.156-.014.156-.032.307-.925.05-1.291.627-2.019.243.353-.421,1.259-.325,1.763-.733m.508.975c.623-.087.389.655.847.705-.655.389-1.181-.435-1.534-.014-.554-.517.792-.22.687-.691m.81,1.007c.307.032.238.636.527.82-.018.156-.572-.366-.723-.385.014-.151.183-.284.2-.435m-9.587-9.148a.915.915,0,0,1-.957.357c.334-.27.517-.559.957-.357m-.966,1.886c-.32.119-.119-.316-.421-.348a5.017,5.017,0,0,1,2.852-.92c-.4.875-2.166.224-2.431,1.268m.27.339c.989-.664,2.518-.65,3.645-1.145a.671.671,0,0,0,.44.2,6.771,6.771,0,0,1-1.612.746,5.6,5.6,0,0,1-2.472.2m.975.87c.994-.659,3.058-1.36,3.919-.806a10.216,10.216,0,0,1-3.919.806m2.23,2.074c.554-.856,2.051-.545,2.889-1.218-1.131-.888-2.99.746-4.153.165,1.323-.929,4.047-2.019,4.725.2a10.912,10.912,0,0,1-3.461.852m-8.09,12.614a3.347,3.347,0,0,1-2.381-2.092c-.092-2,1.433-3.37,1.781-5.169.1-.911-.243-2.019-.147-2.926.458-2.862,3.974-2.793,6.268-1.323A27.932,27.932,0,0,1,241.85,35.8c1.163.581,2.917,1.383,2.921,2.761-1.131-.884-3.21-2.949-5-1.914.522.824,2.875.307,3.356,1.584-.5.407-.627.087-1.094.188.069.778.81,1.007,1.369,1.529a8.246,8.246,0,0,0-1.969-.211c.188,1.09,1.314.6,2.491,1.03.119.32-.266,1.044-.179,1.667-3.786-.407-12.536-1.648-14.775,2.092m12.325-.668c-.44-.2.366-.572.4-.879.911.1-.1.911-.4.879m-1.108.339a.789.789,0,0,1-.641.238c.234-.742.875-.98,1.241-1.552.407.5-.989.659-.6,1.314m-6.3-1.287c.22.788-1.168,2.326-2.276,2.665.449-1.328,1.57-1.822,2.276-2.665m-2.669,2.01c-.082-.618.888-1.126,1.273-1.854.087.623-1.053,1.268-1.273,1.854m4.368-2.134A5.133,5.133,0,0,1,233,45.417a14.545,14.545,0,0,1,2.582-2.633m1.076-.037c.375.806-1.3,2.156-2.28,2.665.586-1.163,1.712-1.657,2.28-2.665m1.076-.041c.256.027.513.06.6-.032-.408.888-1.181,2.427-2.4,2.6.417-1.026,1.529-1.369,1.809-2.564m2.289.092c-.838.678-1.424,1.841-2.532,2.184.852-.829,1.149-2.175,2.532-2.184M229.675,45.06c0-1.378,1.035-1.113,1.57-1.822.087.623-1.506,1.218-.211,1.969-.215.591-.6-.064-1.36-.147m4.359,9.354c-2.23-2.079-5.325-1.8-4.249-6.126,1.671-2.729,4.789-1.781,8.873-2.724,1.259-.325,4.753-1.479,5.155-2.358.316-.119.284.183.435.2-1.255,1.7-3.438,2.083-4.171,4.606.609.064.838-.673,1.039-1.113a.81.81,0,0,1,.577.366c.636-.238.614-1.465,1.538-1.52.44.2-.581,1.163-.65,1.772,1.094-.192,1.859-3.022,3.37-2.857-2.743,4.148-6.932,7.527-7.143,13.786-2.843.769-2.971-2.308-4.775-4.034m6.2,3.576c-.009-1.378-.348-2.491.119-3.97.206.939,1.154,3.493-.119,3.97m1.168-2.326a7.045,7.045,0,0,1,.307,1.41c-.591-.215-.206-.943-.307-1.41m.842.7c-.829-.852-.128-3.077-1.122-3.8.2-.44.668-.54.751-1.3.81,1-.055,3.361.92,4.231.087.623-.5.407-.549.861M243.3,55.1c-.476-1.277-1.09-4.1-.371-5.1a35.61,35.61,0,0,1,.183,4c.256.485.842.705.188,1.094m.723-.994c-.627-1.3-.4-3.416-.678-5.133.8,1.158.247,3.4,1.09,4.1-.046.453-.5.407-.412,1.03m.8-1.754c-.472-1.277-1-3.48-.4-4.794.691.687-.124,2.591.856,3.461a4.5,4.5,0,0,0-.453,1.332m.746-2.678c-.371-.806-.632-2.674-.1-3.379.27.334.037,1.076.8,1.154a10.319,10.319,0,0,0-.7,2.225m.966-3.269a.749.749,0,0,1-.037-1.076c.467-.1.05.925.037,1.076m21.189-9.061c-.755-.082-.852.829-1.593.6a9.03,9.03,0,0,0,1.909-2.092c.256.485-.687.691-.316,1.5m-.559-1.9c.824.856-1.68,1.355-1.186,2.477-.453-.05-.76-.082-1.062-.114a16.675,16.675,0,0,1,2.248-2.363m-1.044-.266c.586.215-.568,1.012-.888,1.131-.366.572-.467,1.483-1.511,1.218.568-1.012,1.694-1.5,2.4-2.349m-.911-.1c-.856.829-1.589,1.973-2.715,2.468.4-.879,1.319-2.312,2.715-2.468m-2.944.3c.458.05.641-.238,1.094-.188-.87.975-1.639,2.427-2.866,2.45.417-1.03,1.493-1.067,1.772-2.262m-2.065.7c.3.032.453.05.472-.1.27.334-.934,1.584-1.726,1.8.385-.723,1.021-.961,1.255-1.7m-1.763.733c.151.014.151.014.32-.119.27.334-.554.861-.737,1.145-.472.105.522-.554.417-1.026M257,37.419c.114.32-.737,1.149-1.479.916.5-.407,1.126-.494,1.479-.916m-1.163-4.872a3.891,3.891,0,0,1-1.374,1.383c-.087-.623.6-1.314,1.374-1.383m-2.079,10.805c-.385.723-1.076.037-1.163-.581a10.946,10.946,0,0,0,1.163.581m-5.293,10.769c1.314.6,2.967.929,3.274,2.344-1.177-.435-1.854-1.273-3.219-1.419.2-.44-.087-.623-.055-.925m.279-2.573a4.3,4.3,0,0,1,1.584.934c-.353.421-1.667-.179-1.584-.934m2.3,2.848c-.591-.215-2.39-.563-2.431-1.639,1.03.417,2.056.833,2.431,1.639m-2.372-3.622c.2-.44-.1-.472-.069-.774.453.046.559.517.659.989-.137-.165-.284-.183-.591-.215m3.255,6.781c-.994-.719-2.994-.627-3.3-2.037.994.719,2.642,1.048,3.3,2.037m-3.21-.037c.014-.151.046-.453-.105-.472,1.062.114,3,.627,3.319,1.891-1.007-.568-2.2-.852-3.214-1.419m3.118,2.326c-.032.3-.183.284-.215.591-.188-1.094-2.66-.9-2.262-1.776a4.134,4.134,0,0,1,2.477,1.186m-2.166.229a2.565,2.565,0,0,1,1.735.948c-.76-.078-1.5-.311-1.735-.948m11.552-.6c-.975.508-2.152.073-3.127.581-1.593.6-2.124,2.683-4.157,3.077a11.991,11.991,0,0,1-2.665-.9,7.583,7.583,0,0,0,1.635-3.8c.54.668.243,2.015.618,2.82,1.158-.8-.027-2.605-.385-3.562-.3-.032-.165.133-.2.435-.54-4.959-3.764-7.756-4.972-12.174.586.215,1.076-.037,1.529.009a1.989,1.989,0,0,0,.714,1.914c.385-.719-.174-1.241.073-2.134,1.149.737,1.291,2.28,2.45,2.866.284-1.195-.8-2.537-1.607-3.544.078-.755.687-.691.765-1.447,2.637,2.578,7.742,4.963,9.656,8.539.9,1.63,1.639,6.149-.325,7.321M261.4,50.6c.641-.238,1.9-.559,2.308-.06a5.864,5.864,0,0,1-2.308.06m2.779,1.218a7.655,7.655,0,0,0-1.983-.06c.366-.572,2.115-1.149,1.983.06m-3.017-1.854c-.421-.353,1.749-.577,1.7-.124a3.551,3.551,0,0,0-1.7.124m-1.081-1.342c1.213.128,1.442-.609,2.12.229-.472.1-1.9.559-2.12-.229m-1.584-.934a3.437,3.437,0,0,1,2.743.137,2.942,2.942,0,0,1-2.743-.137m-1.415-1.071a2.755,2.755,0,0,1,2.436.105c-.788.224-1.9.563-2.436-.105m-1.419-1.071a2.8,2.8,0,0,1,2.44.105,6.518,6.518,0,0,1-2.44-.105M254.4,44.493a2.6,2.6,0,0,1,2.12.229c-.623.087-1.566.293-2.12-.229m8.544,8.882c-.119-.316-.407-.5-.206-.939.774-.073.893.247,1.4-.16.3.037.252.49.357.961-.742-.234-.943.2-1.548.137m8.342-9.217c-.316,1.5-2.216,2.06-2.83,3.53-1.186,2.477-.485,5.92-3.512,5.595.412-2.408-1.213-4.418-2.747-5.81-.691-.687-2.037-.984-2.884-1.685-1.145-.737-1.79-1.877-3.15-2.024-.847-.705-2.193-1-3.036-1.7.719-1,4.469,2.624,5.769.462-.778-1.3-3.471-1.9-5.018-1.763.2-.44.536-.71.6-1.314,3.983-1.41,14.372-2.6,16.478,2.074a5.036,5.036,0,0,1,.33,2.637m-16.849-2.875a4.075,4.075,0,0,1,3.4,1.131,5.724,5.724,0,0,1-3.4-1.131" transform="translate(-122.455 -10.355)" fill-rule="evenodd"/>
      </g>
    </g>
  </g>
</svg>
