<svg xmlns="http://www.w3.org/2000/svg" xmlns:xlink="http://www.w3.org/1999/xlink" width="94.344" height="104.603" viewBox="0 0 94.344 104.603">
  <defs>
    <clipPath id="clip-path">
      <rect id="Rectangle_2879" data-name="Rectangle 2879" width="94.344" height="104.603" fill="none"/>
    </clipPath>
  </defs>
  <g id="Group_5748" data-name="Group 5748" transform="translate(0 0)">
    <g id="Group_5743" data-name="Group 5743" transform="translate(0 0)" clip-path="url(#clip-path)">
      <path id="Path_3233" data-name="Path 3233" d="M57.762,59.712c-.795-.288-.085-.461-.146-1.232.613.075.5.948.146,1.232" transform="translate(29.969 30.542)" fill="#1f344c" fill-rule="evenodd"/>
      <path id="Path_3234" data-name="Path 3234" d="M51.1,35.425c-.184,1.041-1.384-.362,0,0" transform="translate(26.345 18.469)" fill="#1f344c" fill-rule="evenodd"/>
      <path id="Path_3235" data-name="Path 3235" d="M48.654,45.981c-.665.1-.754.878-1.528.854.14-.722.947-1.457,1.528-.854" transform="translate(24.612 23.898)" fill-rule="evenodd"/>
      <path id="Path_3237" data-name="Path 3237" d="M40.642,42.155c-3.74,2.95-6.833,6.113-10.42,8.674,2.76-3.6,6.511-7.293,10.42-8.674" transform="translate(15.784 22.016)" fill-rule="evenodd"/>
      <path id="Path_3238" data-name="Path 3238" d="M30.871,48.053c-.09.42-.46.518-1,.408.088-.422.46-.519,1-.408" transform="translate(15.599 25.074)" fill-rule="evenodd"/>
      <path id="Path_3239" data-name="Path 3239" d="M30.7,48.516c-.528.352-.569,1.273-1.547,1.1a1.393,1.393,0,0,0,.32-.951c.569.7.3-.537,1.227-.146" transform="translate(15.228 25.297)" fill-rule="evenodd"/>
      <path id="Path_3240" data-name="Path 3240" d="M30.27,44.49c.391-.035.236,1.337-.3.706.085.1.317-.706.3-.706" transform="translate(15.653 23.235)" fill="#1f344c" fill-rule="evenodd"/>
      <path id="Path_3241" data-name="Path 3241" d="M12.746,25.13c-.764,1.172-4.5,2.661-3.909.18,1.656.942,2.792-.655,3.909-.18" transform="translate(4.582 13.077)" fill="#1f344c" fill-rule="evenodd"/>
      <path id="Path_3242" data-name="Path 3242" d="M93.521,97.914c.746.034-1.041.926-1.064,1.131a6.315,6.315,0,0,0,1.02,2.516c-7.605,1.044-18.3-.431-26.264-.364-2.229.018-4.52.546-6.071-.233-1.674.909-4.063-.4-5.642.528a58.068,58.068,0,0,0-10.927-.374c-2.53.056-6.366-.263-9.473-.259-.266.216-.53.44-.782.671-.35-.135.12-.3.056-.728-.437.437-1.839.085-1.247.388-.381-.449-3.5.811-3.147-.248-5,.4-16.042.909-22.152-.04-.387.056.177.443-.28.466-.645-.495-.282-.07-.67-.782-1.454.336-1.91,1.323-2.815,1.726.417-.84.116-3-1.279-2.294.242-2.822.2-5.509.2-8.747a1.756,1.756,0,0,1,1.918.4c.785-.335-.938-.378-.39-1.25,1.548-.793,2.478-.68,4.673-.606.338-11.839-.5-19.656-.463-31.2-1.664.125-4.76-.778-4.23,1.13-.971-1.728-1.789.056-3.329-.994.527-.572-.9-2.449.228-2.9C1.088,55.428.219,55.493,0,55c.4-.321.712-.752,1.286-.874-.076-1.362.856-3.445,1.611-4.985A69.018,69.018,0,0,0,8.038,36.4c.714-2.707,1.4-5.431,2.343-8.092,1.034-.385.86-1.334,1.139-2.1,14.5-1.818,35.668-1,52.46-1.467,2.23-6.983-1.212-13.23.314-19.453,1.522-.416,2.917-.784,4.131.081,1.7-.607,2.18-1.247,4.451-.868,2.67,2.97,4.772,7.2,3.6,10.024-.569,1.356-1.91,2.009-1.76,3.757-1.807,1.405-3.634,2.79-7,2.367.1,1.629-.632,2.9.42,3.93,2.918-.618,6.359-.122,8.563-.545.014-.233-.28-.21-.464-.28.04-.68,1.279-.347,1.19.338.671-.259,1.181-.294.824-1.151.484.508.91.795-.078.967,1.408.152,1.885,1.1,2.79,1.681.367-.076-.073-.315.056-.726.948.429.2,1.13.594,1.751,1.067.122-.062-.691.559-.929.568,1.047-.21,1.315.518,2.719-.244-.02-.484-.04-.728-.058.078,1.131.834-.3.947.318.076.527-.381.435-.764.428.318,2.306,2.378,4.845,2.168,6.5-.107.863,1.263,1.805,1.5,2.553.257.8-.021,1.466.315,2.215.577,1.311,2.273,2.964,2.075,4.547,2.376,2.757,2.918,6.206,6.145,8.517-.26,1.009.269,1.923-.209,2.662-1.318,2.047-5.581.758-7.634,1.1-.5,9.374.14,22.723.406,31.925,2.364.306,4.349-.349,6.091-.009.782,2.192.773,2.774.14,4.4.285-.017.237-.426.3-.708a7.847,7.847,0,0,1-.42,5.323c.2-.03.262-.224.5-.2M79.969,25.752a3.062,3.062,0,0,0,.055-.723c-.368-.773-.537,1.137-.055.723M85.7,89.02c-.1-.513.423-1.565-.11-1.714.1.513-.426,1.568.11,1.714M78.114,52.388c.828.093,1.729.262,1.973-.332a11.712,11.712,0,0,0,8.063-.336c-2.6.353-6.144-.586-10.036.668M21.246,41.825c-1.02,2.859-8.526,3.1-9.756.206-.682.356-1.769,1.618-2.739.76,1.335-1.464,3.183-3.058,4.973-1.311-.266-.548-1.757-2.023-.07-2.2,1.282,3.417,5.413.98,6.368-.475a5.751,5.751,0,0,0,6.416,1.967c.5-.645.592-1.778,1.606-1.821a3.39,3.39,0,0,1,1.076,1.79c3.7,1.271,5.667-.164,7.934-1.811.043,3.539,7.074,4.089,7.965.871,1.326,2.356,4.348,2.183,6.515.755.009-.958.225-1.673.878-1.877.82,2.608,4.842,4.256,8.054,2.827.262-1.254.041-1.653,1.362-1.842,1.288,4.885,7.085,1.808,8.526-.059a6.463,6.463,0,0,0,1.037,2.274c2.029.344,3.287-.2,4.9-.346.221-1.152.69-2.009,1.863-2.044a4.937,4.937,0,0,0,1.059,2.031,6.231,6.231,0,0,0,3.684-.441,25.265,25.265,0,0,0-2.611-7.021c-.5.557-1.944.021-2.157-.416-1.292,2.213-5.122,1.9-6.573-.03-1.9,1.359-5.285,2.378-8.118,1.067-1.848,1.83-6.234,1.688-8-.388-2.1,2.133-6.22,1.807-8.246-.4-1.034,2.35-4.587,2.044-6.89.916-1.9,2.583-6.276,1.174-8.246-.4-1.448,1.644-5.861,1.629-7.257-.574-1.236,1.283-3.574,1.282-5.5,1.758a4.808,4.808,0,0,1-1.6-1.343,4.125,4.125,0,0,1-4.9.346c.269-.3.3-.881.8-.91,1.408,1.259,3.937.21,3.743-1.166.3.076.464.413.5-.206.764.553.959,1.591,1.783,2.089a8.062,8.062,0,0,0,5.532-2.242c1.05,2.239,2.993,2.687,5.675,2.151.822-.356.588-1.955,1.847-1.8.674,2.034,3.969,3.417,6.158,2.191.492-.131.046-1.356.6-1.414,2.146.874,6.394,2.676,7.616-.863,1.171.064,1.6,1.758,2.991,2.184,2.722.828,4.421-.9,6.243-1.944.248.542.154,1.373.592,1.752,2.6,1.114,6.241.612,5.958-1.48,1.41.029,2.079,1.466,3.778,1.515,2.169.064,4.188-1.481,5.326-2.745,1.169,1.91,3.182,3.547,5.471,1.647.16-.343-.186-1.274.338-1.192,1.116-.189,1.423,1.477,2.381.676-.9-1.411-.8-3.676-1.8-5.008-3.3-.5-7.027-.239-10.4-.824.2,1.953.269,4.981-2.114,5.191-.256-.384-.222-1.012-.632-1.267.032,1.265-1.442.886-1.786,1.076-.21-1.614.84-3.075.4-5.08-1.183.16-5.9.767-5.66.77-.041,0-.32-.505-.688-.54a36.337,36.337,0,0,0-6.348.231c-8.263.789-16.914,1.3-24.385.515-.32-.021-.254.4-.522.445-2.334-.964-5.281.131-7.056-.069.018-.242.218-.272.282-.464-.779.711-4.037-.024-3.745,1.166a4.442,4.442,0,0,0-3.369-.508c-.247,1.385.177,3.555-1.031,3.813.283.061.69.014.7.3C10.8,38.078,7.22,42.744,7.4,47.551c-.481-.041-.254-.682-.929-.562C5,50.036,4.623,51.76,3.037,53.54c1.825.577.507-.954,1.77-.836-.155.956-.644-.312-.32.948,4.789-.69,10.2.515,14.11.137,4.086-.39,8.616-.79,13.219-.907,5.2-.131,10.6.4,16.046.289,1.483-.03,2.93-.562,4.433-.624,7.353-.307,14.824-.5,21.688-.241.043-1,1.256-.639,2.009-.814.413.251.233,1.006,1.154.822,2.282-2.43,6.636-1.493,10.109-1.641a3.025,3.025,0,0,0-1.522-2.309c-1.834,1.481-4.909.42-5.992-1.2-1.177,1.265-3.883,2.833-5.68,1.014-2.014,1.716-6.8,2.678-8.767.041a5.758,5.758,0,0,1-7.84.6c.056.769-.7.589-.82,1.155.146.607,1.536-.571,1.413.6-2.311.233-6.182,1.822-9.511.224-1.868,1.283-5.072-.12-6.738-1.015-2.159,2.271-8.041,2.489-9.7-.521-2.306,1.015-4.451,3.156-7.506,2.574-1.283-.242-2.154-1.7-3.513-1.735-1.093-.037-2.184.93-3.241.961-1.713.049-3.457-1.11-5.045-.884-.714.1-1.388.912-2.031,1.056-2.023.458-3.256-.46-5.042-.883.571-.39.827-1.143,1.787-1.075.875.478,3.59,1.356,4.133.079a4.283,4.283,0,0,1-3.274-1.717c1.6-.522,2.191.723,4.095.565.954-.472,1.253-1.7,2.35-2.006a10.016,10.016,0,0,0,1.337,1.565c3.609,1.078,5.287-.578,6.782-2.63.814,3.311,5.893,3.513,8.819,2.4.709-.4.406-1.991,1.6-1.822.735,3.491,5.891,3.366,8.84,2.157-.186-1.014-.161-1.515.636-1.9,1.085.39,2.076.881,1.28,2.294,1.678.16,2.583.609,3.891.061.492-.744.556-1.991,1.623-2.063,1.4,1.9,4.6,4.133,7.106,2.507a3.589,3.589,0,0,1,1.14-2.1c1.066,3.637,6.654,2.451,7.818-.361.959,3.637,6.678,2.871,8.264.163,1.647,2.685,4.987.714,6.164-.973,1,1.028,1.685,2.323,3.439,2.705.758-.435,1.729-.617,2.293-1.282a48.172,48.172,0,0,1-2.524-5.066c-1.534,1.4-4.975,1.031-6.031-.719-1.283,2.437-6.188,2.56-7.817.358-1.9,2.122-6.033,2.594-8.3.321-1.754,2.353-7.316,1.353-8.931-.948.006,1.081-.9.912-.84,1.4-2.233.181-4.7.942-6.535-.513-1.728,2.443-7.378,1.183-8.689-.93-2.073,1.8-4.753,3.527-8.439,2.015-1.155,1.044-5.96,2.844-6.328-.012,2.172.285,3.841-.3,6.124-.492-.384-1.3.437-.918.822-1.154-1.4.33-4,1.463-7.111.658M64.821,94.436c2.866-.571,12.958-.043,16.625-.883-.942-.746-.107-1.725-.776-2.495,2.125-4.342.743-8.473.49-12.378-.486-7.453.749-16.243-1.19-22.006-15.529.464-27.608,1.821-43.433,1.207C37.471,69.7,38.07,82.34,38.78,94.334c9.972-.218,19.171.4,26.041.1m14.984,1.422a1.98,1.98,0,0,0,1.489-.368c-.639-.049-1.414-.247-1.489.368m2.541-35.344c.4-1.53-.7-.589,0,0M78.353,95.745c.464-.072,1.434.445,1.247-.387-.44.1-1.014.043-1.247.387m3.035-63.307c-.824-2.911-.271.355,0,0m-1.63-4.023c-.148.653.974,2.121.612,1.51-.146-.554-.035-1.324-.612-1.51M79,25.678h0M69.1,98.911h0M71,53.047c-2.082-.656.682.213,0,0M72.535,8.855c-3.425-.493-3.679,1.871-4.807,2.3-.286,2.959.852,3.752,1.98,5.756,4.285,1.451,4.714-5.71,2.827-8.056M63.157,25.889c0-.015-.225,0-.241-.018-1.225-1.25.356,1.2.241.018M54.613,57.113c.315.056,1.748.175.989-.166-.318-.059-1.749-.175-.989.166M49.58,49.9c1.44-.038,3.244,1.553,4.357.343-1.831.155-3.509-2.338-4.357-.343m.157,7.316c.352.027,1.971.248,1.228-.146-.358-.024-1.973-.247-1.228.146m-6.185-8.031c.627,1.534,5.555,1.224,4.894-.346-.591,1.277-3.509.822-4.894.346M36.834,88.094c.673.88-.294,2.029.537,2.477.365-.346-.4-4.048-.537-2.477M39.622,49.6c-2.477.135-1.719,1.021,0,0m-4.635.125c.83.151,1.267.384,1.958-.088-.592.1-1.734-.443-1.958.088M33.912,88.106c-.2-.432-.763-.548-.891-1.043.193-7.806.857-16.069.435-24.069-1.2,3.79-.413,7.94-1.283,10.123.778,4.45.146,12.289.149,19.733,1.244-.965.37-4.9.9-5.287.056.222.387,1.27.687.542m-.557-29.989a164.359,164.359,0,0,1-16.57.157c-.545,9.324-1.717,21.735-.1,32.129.116.726-.155,2.183.8,2.253,1.76-9.771.187-23.1.93-30.357,2.114.655.859-1.122,2.049-1.3,3.9,2.655,10.759-.941,12.712,2.463.927-1.206-.05-3.379.177-5.342m-.691-9.794c.28.233,1.4.886,1.674.376-.668.1-1.379-1.6-1.674-.376m-2.936,28.01c-2.159.219-4.072-1.2-7.278-.327a94.493,94.493,0,0,1,.381,16.829c1.443.693,4.285.181,6.328.012-.065-6.736-.381-12.282.569-16.514m-1.745-2.571c.365-.014.884.158.986-.164-.183-.07-.476-.044-.463-.28.495-.417.607.02,1.209.094-.318-.6.161-1.035-.149-1.228-.323.764-1.388.664-1.583,1.579m-2.139-.655c.731-.965.33.026.965.076a19.79,19.79,0,0,1,2.834-1.968c-.093-.907-.417-1.751-.053-2.439-1.183,1.344-3.562,2.7-3.746,4.331m2.9-9.024c-2.781.665-3.912,3.112-6.672,4.346.476.723-.3,2.513.239,3.183.311-.339.292-1.064,1.043-.892-.041,1.186-1.615.575-1.381,2.082.795.072,1.171.5,2.16.411,1.32-2.722,5.844-4.256,4.722-7.416-1.286,1.93-3.238,3.081-4.981,4.477-.894-.683-.486.635-1.207-.1.335-1.088.971-.113,1.245-.387.572-1.585,4.233-2.583,4.832-5.709m-3.309-13.65a4.449,4.449,0,0,0,2.478-.536c-.894.1-2.086-.154-2.478.536M22.391,67.476c1.108-1.078,2.4-1.941,3.41-3.136L24.11,64.2c-.507,1.169-2.608,2.069-1.719,3.271m.458-18.222c1.481-.175,2.433.6,3.427-.216-2.1-.151-2.487-.42-3.427.216M21.574,87.136c.384-2.79-.152,1.093,0,0m.107,1.714c.4-1.531-.7-.594,0,0m.658-23.808c-.027-.566.722-.216.784-.671-.661-.387-1.489.318-.784.671M21.21,82.48c-.038.944-.064,3.055.256,2.944a5.754,5.754,0,0,0-.256-2.944m1.069-35.218c-.125.633.455.667.91.8.035-.653-.463-1.206-.91-.8M16.832,42.21a3.878,3.878,0,0,0,2.139.653,6.918,6.918,0,0,0,1.158-2.343c-1.18.467-2.177,1.151-3.3,1.69M14.4,48.348c1.044.641,3.736,1.668,4.8.865-2.012.323-4.338-1.352-4.8-.865m.011,46.259c-1.026-2.538.1-7.353.134-10.945A232.208,232.208,0,0,0,12.9,58.21c-.075.356-.6.174-.988.167-.373,7.494-.793,14.008-.894,20.624-.07,4.879.827,10.53-.175,14.594.848.437-.1,1.741.518,2.717.862-.749,2.5-.6,3.055-1.706m1.107-35.7c.222-.187-.122-.7-.186-.746-.406-.26,0,.9.186.746m-.2-16.084c.065-.452.816-.105.784-.667l-.723-.059c.062.425-.411.594-.061.726m-.945-.318c-2.086-.655.68.215,0,0M7.36,91.373c.907.251,2.554.014,1.773-.833-.221.706-1.63.027-1.773.833M5.655,57.4c-1.775-.5.845.239,0,0" transform="translate(0 2.29)" fill-rule="evenodd"/>
      <path id="Path_3243" data-name="Path 3243" d="M28.185,40.31c.9-.09.886.6,1.656.618,6.5-.828,14.338-.149,22.656-.164,4.912-.012,9.549-1.4,12.136.466.461.519-.219.635-.785.671.9.974.046,2.057.983,3-.887,5.546,1.114,10.193-.049,16.066.618.676,2.06.647,2.044,1.865a12.82,12.82,0,0,0-2.533,1.264,88.15,88.15,0,0,0-12.6-.75c-3.165-.009-6.508-.577-9.455-.5-1.9.049-3.789-.038-5.605.044-3.136.145-5.643,1.088-9.027.263-.16-.648-1.665-1.667-.575-1.993-.335-6.607-.6-13.611-.449-19.025.338-.837,1.6-.589,1.6-1.821M58.652,55.367c.685-1.306,2-1.885,2.909-2.935.562-.03.212.722.667.785.6-.747.157-2.454.469-2.888-2.21.408-2.283,3.316-4.214,4.051-.174-.973,1.353-.5.617-1.656-1.382,1.346-3.086,3.524-4.454,4.033-.373.846-2.031,3.357-2.892,2.694A60.6,60.6,0,0,1,62.572,48.859a9.277,9.277,0,0,1,0-3.165c-1.26.094-.9-1.337-.569-1.993-7.337-.3-14.2-.5-19.639-1.058a6.375,6.375,0,0,0-3.705.68c-2.908,2.591-5.993,6.362-9.173,8.286,1.568-3.253,6.174-5.573,8.485-8.825-1.42.052-3.564.725-2.589,1.987a3.1,3.1,0,0,0-2.314,1.522c-.445-.094.172-.39-.2-.5-2.927,2-4.861,4.855-3.427,9.469.411.128.647-.309.726.059-1.157.766.655,1.681-.227,2.9-1.158-.889-.915-2.979-1.875-4.042.327,1.451.816,2.766,1.131,4.229.425.489.448-.111,1.207.091.312.6.476.493.148,1.235,7.213.193,16.543.636,23.546.877.747-2.125,2.885-3.11,3.973-4.069.413-.4-1.037-2.011.4-1.917-.167.215-.636.848.186.743m-3.809,5.057c.644.426,1.79-.435,3.165.006.629-2.787,4.5-3.189,4.142-6.246-2.248,2.3-4.859,4.171-7.307,6.24M59.5,60.06c.1-.562,1.072-.055,1.209.1.032-1.018.14-1.952,1.343-1.6-.105-.364.382-1.23-.149-1.233-.664.9-2.442,1.894-2.4,2.734m1.181-5.75c.545.254.653-1.187.279-.466-.151.206-.81,1-.279.466m-4.816,8.628c1.463-.04,1.949.231,3.18-.236-1.1-.139-3.238-.1-3.18.236M29.79,47.74c1.315-2.2,3.917-3.332,4.757-4.74-1.991.93-4.311,2.882-4.757,4.74m.548-3.853c-.111.548-.014.916.408,1.006.111-.545.015-.915-.408-1.006M28.412,59.075c.146.024.282.058.222.259.3,0,.58-.026.522-.445-.288.015-.682-.1-.744.186M29.423,46.25c.269-.3.308-.874.577-1.172-.572-.2-1,1.081-.577,1.172" transform="translate(13.86 21.025)" fill-rule="evenodd"/>
      <path id="Path_3244" data-name="Path 3244" d="M48.75,46.264c-1.6-.629,1.128-.776.394-1.917.4.382.533.263.521-.446l.967.078c-1.079.671-1.111,2.573-2.647,2.711-.072-.525.382-.432.766-.426" transform="translate(25.057 22.928)" fill-rule="evenodd"/>
      <path id="Path_3245" data-name="Path 3245" d="M47.177,46.843c.449.207-.289.356-.241-.018-.2-.061-.239.078-.262.225-.566-.183.326-.711.5-.207" transform="translate(24.28 24.353)" fill-rule="evenodd"/>
      <path id="Path_3246" data-name="Path 3246" d="M37.936,21.892c-1.563-.621-2.232-2.006-3.941-2.5-.431-2.07-1.877-3.413-2-5.515a7.208,7.208,0,0,1,12.371-5.6c1.452,6.164-.03,13.4-6.429,13.614m6.046-8.776c.4-1.525-.7-.589,0,0M43.1,8.907c.247.769.119,1.857.8,2.258-.349-.685.032-1.988-.8-2.258m-4.41.385c-1.807,0-2.334,1.026-3.523,1.426.247,1.713-.822,6.155,2.594,7.264,4.057-.4,5.47-7.158.929-8.691M39.932,8.9c.511.317.74.871,1.375,1.081.11-.709-.965-1.56-1.375-1.081" transform="translate(16.701 3.183)" fill-rule="evenodd"/>
      <path id="Path_3247" data-name="Path 3247" d="M12.493,20.062c-.522.789-.817-.48-1.437-.356a4.715,4.715,0,0,1,1.828-1.559c2.029,1.583,6.593,3.7,7.968.869.125-1.46-.822-2-1.222-3.017C15.46,14.693,9.657,13.019,12.7,8.151c3.287-2.795,7.447-2.874,11.227-.333a6.1,6.1,0,0,0-.636,1.9c-2.312-.225-3.854-1.971-5.786-.7.69.318,1.875-.519,2.9.23-1.443.69-3.538.612-4.08,2.355a1.149,1.149,0,0,1,.186.749,8.908,8.908,0,0,0,6.214,1.463c3.063,2.172,2.178,4.223.842,7.856-1.311-1-2.407,1.195-5.436,1.032-2.2-.114-3.1-1.056-5.247-1.387.05-.906-.218-.712.113-1.451-.568-.041-.679-.472-1.429-.355a1.061,1.061,0,0,0,.929.557m9.236-2.924c.358-.1.518.989.709.3-.251.008-.409-1.082-.709-.3" transform="translate(5.774 3.123)" fill-rule="evenodd"/>
      <path id="Path_3248" data-name="Path 3248" d="M33.186,25.021c-1.084-.476-1.644-.148-2.906-.23-1.271-3.14,2.122-10.776-1.894-13.053-4.386,2.1-2.745,7.908-3.226,13.137-1.432.192-1.813.093-3.183.236C21.888,17.1,23.185,8.245,22.469.32c.951-.137,1.015.486,1.394.839.787.04.283-1.428,1.3-1.114A61.428,61.428,0,0,1,25.2,11.977c.945.05,1.034-.9,1.565-1.338-.687-.335-.989,1.09-1.247.39,5.712-6.809,9.318,3.8,7.039,9.56.09,1.773,1.432,2.859.626,4.433m-8.007-9.637a1.582,1.582,0,0,1,.336-1.192c-.7-.432-.735,1.2-.336,1.192M23.6,23.049c.642.443.75-.991.317-.947a1.364,1.364,0,0,1-.317.947" transform="translate(11.476 -0.001)" fill-rule="evenodd"/>
    </g>
  </g>
</svg>
