<svg xmlns="http://www.w3.org/2000/svg" width="44.145" height="48.56" viewBox="0 0 44.145 48.56">
  <path id="Path_6892" data-name="Path 6892" d="M985.685,49.009a7.445,7.445,0,0,1-3.722-.994l-14.557-8.4a7.465,7.465,0,0,1-3.722-6.447V16.353a7.465,7.465,0,0,1,3.722-6.447l14.557-8.4a7.465,7.465,0,0,1,7.445,0l14.557,8.4a7.465,7.465,0,0,1,3.722,6.447V33.162a7.465,7.465,0,0,1-3.722,6.447l-14.557,8.4a7.44,7.44,0,0,1-3.723.994m0-47.483a6.43,6.43,0,0,0-3.213.858l-14.557,8.405a6.444,6.444,0,0,0-3.213,5.565V33.162a6.444,6.444,0,0,0,3.213,5.565l14.557,8.4a6.444,6.444,0,0,0,6.426,0l14.557-8.4a6.444,6.444,0,0,0,3.213-5.565V16.353a6.444,6.444,0,0,0-3.213-5.565L988.9,2.384a6.43,6.43,0,0,0-3.213-.858" transform="translate(-963.542 -0.449)" fill="#050605"/>
  <path id="Path_6893" data-name="Path 6893" d="M1034,142.73a9.07,9.07,0,1,1-9.07-9.13,9.1,9.1,0,0,1,9.07,9.13" transform="translate(-1009.792 -118.421)" fill="#050605"/>
  <path id="Path_6894" data-name="Path 6894" d="M1192.221,146.976c0,4.736-2.036,8.586-4.535,8.586s-4.535-3.85-4.535-8.586,2.036-8.586,4.535-8.586,4.535,3.829,4.535,8.586" transform="translate(-1158.075 -122.667)" fill="#050605"/>
  <path id="Path_6895" data-name="Path 6895" d="M1273.971,153.9c0,4.253-.705,7.7-1.592,7.7s-1.592-3.446-1.592-7.7.705-7.7,1.592-7.7,1.592,3.446,1.592,7.7" transform="translate(-1235.755 -129.586)" fill="#050605"/>
  <rect id="Rectangle_2913" data-name="Rectangle 2913" width="44.145" height="48.56" fill="none"/>
</svg>
