<svg xmlns="http://www.w3.org/2000/svg" width="44.003" height="48.56" viewBox="0 0 44.003 48.56">
  <path id="Path_6898" data-name="Path 6898" d="M22,48.5a7.445,7.445,0,0,1-3.722-.994L3.722,39.1A7.465,7.465,0,0,1,0,32.655V15.846A7.465,7.465,0,0,1,3.722,9.4L18.279.994a7.465,7.465,0,0,1,7.445,0L40.281,9.4A7.465,7.465,0,0,1,44,15.846V32.655A7.465,7.465,0,0,1,40.281,39.1l-14.557,8.4A7.44,7.44,0,0,1,22,48.5M22,1.019a6.43,6.43,0,0,0-3.213.858l-14.557,8.4a6.444,6.444,0,0,0-3.213,5.565V32.655A6.444,6.444,0,0,0,4.231,38.22l14.557,8.4a6.444,6.444,0,0,0,6.426,0l14.557-8.4a6.444,6.444,0,0,0,3.213-5.565V15.846a6.444,6.444,0,0,0-3.213-5.565l-14.557-8.4A6.43,6.43,0,0,0,22,1.019" transform="translate(0 0)" fill="#050605"/>
  <path id="Path_6899" data-name="Path 6899" d="M73.014,132.341s10.941-4.49,14.736-6.071c1.455-.632,6.388-2.656,6.388-2.656s2.277-.885,2.087,1.265c-.063.885-.569,3.984-1.075,7.336-.759,4.743-1.581,9.929-1.581,9.929s-.126,1.455-1.2,1.708-2.846-.885-3.162-1.138c-.253-.19-4.743-3.036-6.388-4.427a1.2,1.2,0,0,1,.063-2.024c2.277-2.087,5-4.68,6.641-6.325.759-.759,1.518-2.53-1.644-.379-4.49,3.1-8.918,6.008-8.918,6.008a3.716,3.716,0,0,1-2.909.063c-1.9-.569-4.111-1.328-4.111-1.328s-1.518-.949,1.075-1.961" transform="translate(-63.293 -109.409)" fill="#050605"/>
  <rect id="Rectangle_2913" data-name="Rectangle 2913" width="43.84" height="48.56" transform="translate(0.081)" fill="none"/>
</svg>
