<svg xmlns="http://www.w3.org/2000/svg" width="44.003" height="48.56" viewBox="0 0 44.003 48.56">
  <path id="Path_6896" data-name="Path 6896" d="M503.843,48.5a7.445,7.445,0,0,1-3.722-.994l-14.557-8.4a7.465,7.465,0,0,1-3.722-6.447V15.846A7.465,7.465,0,0,1,485.564,9.4l14.557-8.4a7.465,7.465,0,0,1,7.445,0l14.557,8.4a7.465,7.465,0,0,1,3.722,6.447V32.655a7.465,7.465,0,0,1-3.722,6.447l-14.557,8.4a7.44,7.44,0,0,1-3.723.994m0-47.483a6.43,6.43,0,0,0-3.213.858l-14.557,8.4a6.444,6.444,0,0,0-3.213,5.565V32.655a6.444,6.444,0,0,0,3.213,5.565l14.557,8.4a6.444,6.444,0,0,0,6.426,0l14.557-8.4a6.444,6.444,0,0,0,3.213-5.565V15.846a6.444,6.444,0,0,0-3.213-5.565l-14.557-8.4a6.43,6.43,0,0,0-3.213-.858" transform="translate(-481.842 0)" fill="#050605"/>
  <path id="Path_6897" data-name="Path 6897" d="M586.446,130.062l7.817,10.452-7.866,8.5h1.77l6.887-7.44,5.564,7.44h6.024l-8.256-11.039,7.322-7.91h-1.77l-6.342,6.852-5.124-6.852Zm2.6,1.3h2.768l12.221,16.341h-2.768Z" transform="translate(-574.518 -115.257)" fill="#050605"/>
  <rect id="Rectangle_2913" data-name="Rectangle 2913" width="44.003" height="48.56" fill="none"/>
</svg>
